<svg width="96" height="16" viewBox="0 0 96 16" fill="none" xmlns="http://www.w3.org/2000/svg">
<path d="M5 13H96V14H5V13Z" fill="url(#paint0_linear_80_135247)"/>
<path d="M0.306828 13.6539C0.327911 13.5696 0.348994 13.4852 0.370077 13.4009C0.380618 13.3166 0.396431 13.2322 0.417514 13.1479C0.470221 12.9265 0.517658 12.7104 0.559824 12.4996C0.60199 12.2888 0.649427 12.0779 0.702134 11.8671C0.7443 11.709 0.791737 11.5509 0.844445 11.3927C0.897152 11.2452 0.928777 11.0976 0.939318 10.95C0.970943 10.5494 1.06582 10.1805 1.22394 9.84313C1.37152 9.49526 1.52964 9.14739 1.69831 8.79952C2.00401 8.13541 2.30444 7.48183 2.59961 6.8388C2.89477 6.19577 3.1952 5.5422 3.5009 4.87808C3.74336 4.36155 3.98054 3.85029 4.21246 3.34429C4.45491 2.8383 4.69736 2.33231 4.93982 1.82632C5.00307 1.67874 5.07159 1.52588 5.14538 1.36776C5.21917 1.20964 5.29823 1.06206 5.38256 0.925017C5.42473 0.872309 5.47217 0.819602 5.52487 0.766895C5.58812 0.714187 5.6461 0.66148 5.69881 0.608772C5.74097 0.640397 5.77787 0.677292 5.80949 0.719457C5.84112 0.751082 5.87801 0.793248 5.92018 0.845956C5.94126 0.824873 5.95707 0.814332 5.96762 0.814332C6.02032 0.898663 6.06776 0.982995 6.10993 1.06733C6.16263 1.14112 6.21534 1.21491 6.26805 1.2887C6.3313 1.37303 6.35765 1.49426 6.34711 1.65238C6.33657 1.79996 6.29967 1.93173 6.23642 2.04769C6.09939 2.25852 5.9887 2.47989 5.90437 2.7118C5.83058 2.94372 5.80422 3.1809 5.82531 3.42335C5.82531 3.46552 5.81476 3.50242 5.79368 3.53404C5.78314 3.56566 5.7726 3.59729 5.76206 3.62891C5.61448 3.96624 5.47217 4.30357 5.33513 4.6409C5.19809 4.97823 5.06632 5.32082 4.93982 5.66869C4.85549 5.89007 4.77116 6.11144 4.68682 6.33281C4.61303 6.55418 4.50762 6.77555 4.37058 6.99693C4.23354 7.23938 4.11758 7.49238 4.02271 7.75591C3.92783 8.00891 3.82242 8.26191 3.70646 8.5149C3.68538 8.53598 3.67484 8.56234 3.67484 8.59396C3.67484 8.62559 3.67484 8.65721 3.67484 8.68884C3.68538 8.69938 3.69065 8.70465 3.69065 8.70465C3.70119 8.70465 3.71173 8.70992 3.72228 8.72046C3.99635 8.34097 4.26516 7.9562 4.5287 7.56617C4.80278 7.17613 5.07686 6.79137 5.35094 6.41187C5.5196 6.16942 5.69354 5.93223 5.87274 5.70032C6.05195 5.46841 6.23115 5.23122 6.41036 4.98877C6.46307 4.90444 6.55267 4.77794 6.67917 4.60927C6.81621 4.44061 6.96379 4.25613 7.12191 4.05584C7.29057 3.84501 7.46451 3.62891 7.64371 3.40754C7.83346 3.17563 8.0074 2.9648 8.16552 2.77505C8.32364 2.57476 8.46068 2.40083 8.57664 2.25325C8.70314 2.10567 8.79274 2.00552 8.84545 1.95281C9.02465 1.74198 9.20386 1.53642 9.38306 1.33614C9.57281 1.12531 9.75729 0.919747 9.93649 0.719457C9.9892 0.66675 10.0419 0.629855 10.0946 0.608772C10.1579 0.577147 10.2211 0.540252 10.2844 0.498086C10.2949 0.413754 10.3529 0.31361 10.4583 0.197653C10.5637 0.0816967 10.6586 0.0184479 10.7429 0.0079065C10.7956 -0.0026355 10.8378 -0.0026355 10.8694 0.0079065C10.9116 0.0184479 10.9221 0.0342599 10.901 0.0553427C10.9537 0.150216 10.9959 0.24509 11.0275 0.339963C11.0697 0.424296 11.1066 0.519169 11.1382 0.624584C11.1593 0.645668 11.1646 0.677292 11.154 0.719457C11.1435 0.751082 11.133 0.787978 11.1224 0.830144C11.0381 1.05151 10.9327 1.25707 10.8062 1.44682C10.6797 1.63657 10.5532 1.82632 10.4267 2.01606C10.3002 2.19527 10.1842 2.37975 10.0788 2.56949C9.97339 2.75924 9.85743 2.94372 9.73093 3.12292C9.41469 3.53404 9.0879 3.93462 8.75057 4.32465C8.42379 4.71469 8.10754 5.10999 7.80184 5.51057C7.75967 5.56328 7.70169 5.64761 7.6279 5.76357C7.55411 5.86898 7.48032 5.98494 7.40653 6.11144C7.33274 6.23794 7.25895 6.35916 7.18516 6.47512C7.11137 6.58054 7.05339 6.6596 7.01122 6.7123C6.89527 6.8388 6.77931 6.9653 6.66336 7.0918C6.5474 7.2183 6.43144 7.35534 6.31549 7.50292C6.21007 7.62941 6.1152 7.76118 6.03086 7.89822C5.95707 8.02472 5.87801 8.14595 5.79368 8.26191C5.70935 8.36732 5.61975 8.47274 5.52487 8.57815C5.44054 8.67302 5.35621 8.77317 5.27188 8.87858C4.80805 9.47945 4.3495 10.0961 3.89621 10.7286C3.57997 11.1714 3.26372 11.6088 2.94747 12.041C2.63123 12.4838 2.32026 12.9423 2.01455 13.4167C1.83535 13.7013 1.64033 13.9069 1.4295 14.0334C1.21867 14.1704 0.992026 14.2495 0.749571 14.2706C0.675781 14.2811 0.607261 14.2495 0.544012 14.1757C0.480763 14.1019 0.422784 14.0386 0.370077 13.9859C0.348994 13.9649 0.338452 13.9385 0.338452 13.9069C0.327911 13.8858 0.312099 13.8647 0.291016 13.8436C0.291016 13.8225 0.296286 13.7909 0.306828 13.7488C0.306828 13.7171 0.306828 13.6855 0.306828 13.6539Z" fill="#48198F"/>
<path d="M10.6715 9.63757C10.6715 9.65866 10.7717 9.62176 10.9719 9.52689C11.1828 9.43201 11.4147 9.31606 11.6677 9.17902C11.9523 9.03143 12.2844 8.85223 12.6639 8.6414V8.81533C12.3371 9.05779 12.0261 9.26862 11.7309 9.44782C11.4779 9.59541 11.2249 9.73245 10.9719 9.85894C10.719 9.9749 10.5292 10.0118 10.4027 9.96963C10.213 9.91692 10.097 9.80097 10.0548 9.62176C10.0232 9.44255 10.0179 9.2897 10.039 9.1632C9.77549 9.39512 9.52776 9.59541 9.29585 9.76407C9.07448 9.93273 8.89 10.0592 8.74242 10.1436C8.61592 10.2068 8.49469 10.2806 8.37874 10.3649C8.26278 10.4387 8.13628 10.502 7.99924 10.5547C7.683 10.6812 7.34567 10.7023 6.98726 10.6179C6.5656 10.5336 6.23881 10.3228 6.0069 9.98544C5.98582 9.94328 5.96473 9.89584 5.94365 9.84313C5.92257 9.79042 5.90148 9.73772 5.8804 9.68501C5.85932 9.44255 5.94892 9.17902 6.14921 8.8944C6.3495 8.59923 6.58668 8.31461 6.86076 8.04053C7.13484 7.76645 7.40892 7.51873 7.683 7.29736C7.96762 7.07599 8.17318 6.91259 8.29968 6.80718C8.37347 6.75447 8.48942 6.69122 8.64755 6.61743C8.80567 6.5331 8.9796 6.45931 9.16935 6.39606C9.36964 6.33281 9.58047 6.2801 9.80184 6.23794C10.0338 6.19577 10.2551 6.18523 10.466 6.20631C10.6241 6.22739 10.719 6.30119 10.7506 6.42768C10.7927 6.54364 10.8454 6.6596 10.9087 6.77555C10.9192 6.79664 10.9351 6.81772 10.9561 6.8388C11.0088 6.89151 11.0668 6.99165 11.1301 7.13923C11.2039 7.27627 11.2302 7.45021 11.2091 7.66104C11.2091 7.70321 11.2039 7.75064 11.1933 7.80335C11.1828 7.84552 11.167 7.89295 11.1459 7.94566C11.1353 7.9562 11.1301 7.96674 11.1301 7.97728C11.1301 7.97728 11.1248 7.98256 11.1143 7.9931C11.0721 8.13014 11.0247 8.28826 10.9719 8.46746C10.9298 8.64667 10.8823 8.82061 10.8296 8.98927C10.7875 9.15793 10.7506 9.30551 10.719 9.43201C10.6873 9.54797 10.6715 9.61649 10.6715 9.63757ZM7.36675 9.5427C7.51433 9.53216 7.73044 9.43201 8.01506 9.24227C8.31022 9.04198 8.60538 8.81533 8.90054 8.56234C9.1957 8.2988 9.45397 8.04053 9.67534 7.78754C9.90726 7.524 10.0338 7.32898 10.0548 7.20248C9.93888 7.17086 9.82292 7.15505 9.70697 7.15505C9.60155 7.15505 9.4856 7.17086 9.3591 7.20248C9.2326 7.22357 9.11137 7.271 8.99542 7.34479C8.92163 7.3975 8.79513 7.4871 8.61592 7.6136C8.44726 7.7401 8.26278 7.88241 8.06249 8.04053C7.87275 8.19866 7.683 8.36732 7.49325 8.54653C7.31405 8.71519 7.17701 8.87331 7.08213 9.02089C6.98726 9.16847 6.95563 9.2897 6.98726 9.38458C7.01888 9.47945 7.14538 9.53216 7.36675 9.5427Z" fill="#48198F"/>
<path d="M19.6964 7.37642C19.3801 7.61887 19.085 7.84025 18.8109 8.04053C18.5684 8.21974 18.326 8.3884 18.0835 8.54653C17.8516 8.69411 17.6618 8.79425 17.5143 8.84696C17.4826 8.86804 17.4457 8.88385 17.4036 8.8944C17.372 8.8944 17.3403 8.90494 17.3087 8.92602C17.1611 9.09468 17.0083 9.24754 16.8502 9.38458C16.692 9.51107 16.555 9.60595 16.439 9.6692C16.3547 9.71136 16.2124 9.76407 16.0121 9.82732C15.8224 9.89057 15.601 9.95382 15.348 10.0171C15.1055 10.0803 14.8525 10.133 14.589 10.1752C14.336 10.2174 14.1094 10.2384 13.9091 10.2384C13.8247 10.2384 13.7404 10.2332 13.6561 10.2226C13.5717 10.2121 13.5032 10.1963 13.4505 10.1752H13.3873C13.3346 10.1752 13.2502 10.2068 13.1343 10.2701C13.0183 10.3333 12.8707 10.4862 12.6915 10.7286C12.6388 10.7919 12.5492 10.9026 12.4227 11.0607C12.3068 11.2188 12.1697 11.4033 12.0116 11.6141C11.8746 11.7933 11.7323 11.9778 11.5847 12.1675C11.4371 12.3678 11.3001 12.5523 11.1736 12.721C11.0471 12.8896 10.9364 13.0372 10.8415 13.1637C10.7361 13.3007 10.6676 13.3956 10.6359 13.4483C10.6359 13.4483 10.6254 13.4589 10.6043 13.48C10.5832 13.5327 10.5516 13.5748 10.5094 13.6064L10.4778 13.6381C10.4356 13.6697 10.3935 13.7013 10.3513 13.7329C10.2986 13.7646 10.2459 13.7804 10.1932 13.7804H10.1774C10.093 13.7698 10.0193 13.754 9.95601 13.7329C9.88222 13.7224 9.78735 13.6961 9.67139 13.6539C9.60814 13.6328 9.54489 13.6012 9.48164 13.559C9.41839 13.5168 9.36042 13.4694 9.30771 13.4167C9.1285 13.2164 9.11796 13.0161 9.27608 12.8158C9.33933 12.7315 9.508 12.5154 9.78208 12.1675C10.0456 11.8302 10.3513 11.4296 10.6992 10.9658C10.9416 10.6496 11.1841 10.3333 11.4265 10.0171C11.669 9.70082 11.8904 9.41093 12.0907 9.14739C12.3015 8.88385 12.4754 8.66248 12.6125 8.48328C12.7601 8.29353 12.8549 8.17757 12.8971 8.13541C12.9814 8.02999 13.0658 7.92458 13.1501 7.81916C13.2344 7.71375 13.324 7.60306 13.4189 7.4871C13.4611 7.4344 13.498 7.38169 13.5296 7.32898C13.5717 7.27628 13.6139 7.22357 13.6561 7.17086L14.1463 6.39606L14.1937 6.38025C14.2464 6.35916 14.3044 6.34335 14.3676 6.33281C14.4414 6.32227 14.5099 6.32227 14.5732 6.33281C14.7524 6.33281 14.9263 6.37498 15.095 6.45931C15.1372 6.49093 15.1899 6.50675 15.2531 6.50675C15.3058 6.50675 15.3849 6.48566 15.4903 6.4435C15.5325 6.43295 15.5694 6.42241 15.601 6.41187C15.6326 6.40133 15.6695 6.39606 15.7117 6.39606C15.796 6.37498 15.8751 6.36443 15.9489 6.36443C16.0226 6.36443 16.0964 6.36443 16.1702 6.36443C16.5603 6.36443 16.9239 6.4435 17.2613 6.60162C17.4089 6.68595 17.5248 6.7861 17.6091 6.90205C17.704 7.01801 17.7725 7.12869 17.8147 7.23411C17.8674 7.35006 17.9043 7.46075 17.9254 7.56617C17.9465 7.67158 17.9517 7.75064 17.9412 7.80335V7.81916V7.83497C17.9201 7.92985 17.8832 8.02472 17.8305 8.1196C17.7883 8.21447 17.7409 8.30407 17.6882 8.3884C17.9517 8.28299 18.2205 8.15649 18.4946 8.00891C18.5368 7.98783 18.6211 7.94566 18.7476 7.88241C18.8741 7.80862 19.0112 7.73483 19.1587 7.66104C19.3274 7.57671 19.5066 7.48183 19.6964 7.37642ZM15.3954 7.28155C15.3006 7.35534 15.1741 7.49765 15.0159 7.70848C14.8684 7.90876 14.7208 8.1196 14.5732 8.34097C14.4256 8.5518 14.2938 8.74154 14.1779 8.91021C14.0725 9.07887 14.0198 9.1632 14.0198 9.1632C14.22 9.15266 14.4678 9.10523 14.7629 9.02089C15.0581 8.92602 15.3322 8.78898 15.5852 8.60978C15.68 8.53598 15.796 8.4253 15.933 8.27772C16.0806 8.1196 16.1966 7.96147 16.2809 7.80335C16.3758 7.64523 16.4127 7.50292 16.3916 7.37642C16.3811 7.23938 16.2651 7.15505 16.0437 7.12342C15.8961 7.10234 15.7749 7.10234 15.68 7.12342C15.5852 7.14451 15.4903 7.19721 15.3954 7.28155Z" fill="#48198F"/>
<path d="M19.2936 10.6021C18.872 10.5178 18.5452 10.307 18.3133 9.96963C18.2922 9.92746 18.2711 9.88003 18.25 9.82732C18.229 9.77461 18.2079 9.7219 18.1868 9.6692C18.1657 9.42674 18.2553 9.1632 18.4556 8.87858C18.6559 8.58342 18.8931 8.2988 19.1671 8.02472C19.4412 7.75064 19.7153 7.50292 19.9894 7.28155C20.274 7.06017 20.4796 6.90205 20.6061 6.80718C20.6798 6.74393 20.7958 6.67541 20.9539 6.60162C21.1121 6.51729 21.286 6.4435 21.4757 6.38025C21.676 6.317 21.8869 6.26429 22.1082 6.22212C22.3401 6.17996 22.5615 6.16942 22.7723 6.1905C22.9305 6.22212 23.0253 6.30119 23.057 6.42768C23.0991 6.54364 23.1518 6.6596 23.2151 6.77555C23.2783 6.88097 23.4312 6.94949 23.6736 6.98111C23.9161 7.0022 24.1744 7.01274 24.4484 7.01274C24.7225 7.0022 24.9702 6.98638 25.1916 6.9653C25.4235 6.93368 25.5553 6.91786 25.5869 6.91786C25.3234 6.99165 25.0757 7.06017 24.8437 7.12342C24.6435 7.17613 24.4484 7.22884 24.2587 7.28155C24.0689 7.33425 23.9319 7.37115 23.8476 7.39223C23.8265 7.39223 23.8054 7.40804 23.7843 7.43967C23.7738 7.47129 23.7632 7.49765 23.7527 7.51873C23.5524 7.82443 23.3258 8.1196 23.0728 8.40422C22.8198 8.68884 22.5668 8.9471 22.3138 9.17902C22.0608 9.40039 21.8183 9.59541 21.5864 9.76407C21.365 9.93273 21.1858 10.054 21.0488 10.1278C20.9223 10.2015 20.8011 10.2806 20.6851 10.3649C20.5692 10.4387 20.4427 10.502 20.3056 10.5547C20.1475 10.6179 19.9841 10.6548 19.8154 10.6654C19.6468 10.6654 19.4728 10.6443 19.2936 10.6021ZM22.3612 7.18667C22.2558 7.0918 22.0977 7.07599 21.8869 7.13923C21.6866 7.19194 21.4652 7.29209 21.2227 7.43967C20.9803 7.58725 20.7378 7.76645 20.4954 7.97728C20.2529 8.18811 20.0421 8.39895 19.8629 8.60978C19.6942 8.82061 19.573 9.01562 19.4992 9.19483C19.4254 9.36349 19.4412 9.48999 19.5466 9.57432C19.5993 9.61649 19.7206 9.60595 19.9103 9.5427C20.1106 9.46891 20.332 9.36349 20.5744 9.22645C20.8274 9.07887 21.0804 8.91021 21.3334 8.72046C21.597 8.53071 21.8236 8.34097 22.0134 8.15122C22.2031 7.96147 22.3349 7.78227 22.4087 7.6136C22.493 7.4344 22.4772 7.29209 22.3612 7.18667Z" fill="#48198F"/>
<path d="M29.4439 8.1196C29.465 8.1196 29.4913 8.1196 29.5229 8.1196C29.5651 8.10905 29.6125 8.09324 29.6652 8.07216C29.0749 8.46219 28.5268 8.82588 28.0208 9.1632C27.8099 9.31079 27.5938 9.4531 27.3725 9.59014C27.1616 9.72717 26.9666 9.85894 26.7874 9.98544C26.6082 10.1014 26.4501 10.2068 26.313 10.3017C26.176 10.386 26.0811 10.444 26.0284 10.4756C25.8914 10.56 25.7491 10.6232 25.6015 10.6654C25.4645 10.697 25.3221 10.697 25.1746 10.6654C25.027 10.6337 24.9163 10.5441 24.8425 10.3966C24.7687 10.2384 24.7687 10.0803 24.8425 9.92219C24.9795 9.60595 25.1482 9.31079 25.3485 9.03671C25.5593 8.75209 25.7807 8.47274 26.0126 8.19866C26.1075 8.07216 26.2287 7.89822 26.3763 7.67685C26.5344 7.45548 26.6662 7.27627 26.7716 7.13923C26.6556 7.11815 26.5292 7.11815 26.3921 7.13923C26.2656 7.16032 26.1549 7.22884 26.0601 7.34479C25.9652 7.49238 25.8281 7.68739 25.6489 7.92985C25.4803 8.16176 25.2958 8.40949 25.0955 8.67302C24.9058 8.92602 24.716 9.16847 24.5263 9.40039C24.3471 9.6323 24.1995 9.81678 24.0835 9.95382L23.8463 10.2384C23.6988 10.386 23.5354 10.4914 23.3562 10.5547C23.1875 10.6074 23.0294 10.6443 22.8818 10.6654C22.7026 10.6865 22.5286 10.6812 22.36 10.6496C22.3284 10.6496 22.302 10.6548 22.2809 10.6654C22.3653 10.5494 22.4496 10.4387 22.5339 10.3333C22.6183 10.2279 22.7026 10.1225 22.7869 10.0171C22.8923 9.85894 23.0346 9.64811 23.2138 9.38458C23.4036 9.12104 23.5986 8.85223 23.7989 8.57815C24.0097 8.29353 24.21 8.02472 24.3998 7.77173C24.5895 7.50819 24.7424 7.29209 24.8583 7.12342C24.7213 7.07072 24.5948 7.01274 24.4788 6.94949C24.3734 6.8757 24.2944 6.76501 24.2416 6.61743C24.2206 6.57526 24.2047 6.5331 24.1942 6.49093C24.1837 6.43823 24.1889 6.38552 24.21 6.33281C24.2206 6.30119 24.2522 6.26956 24.3049 6.23794C24.3576 6.19577 24.3998 6.17469 24.4314 6.17469C25.0428 6.19577 25.6542 6.19577 26.2656 6.17469C26.877 6.1536 27.499 6.08508 28.1315 5.96913C28.6164 5.87425 28.9906 6.01129 29.2541 6.38025C29.212 6.42241 29.1698 6.46458 29.1276 6.50675C29.096 6.54891 29.0591 6.58054 29.0169 6.60162C28.8272 6.70703 28.6691 6.82826 28.5426 6.9653C28.4161 7.0918 28.2949 7.23938 28.1789 7.40804C28.0946 7.524 27.9891 7.66104 27.8627 7.81916C27.7467 7.97728 27.6202 8.14068 27.4832 8.30934C27.3567 8.46746 27.2302 8.62559 27.1037 8.78371C26.9877 8.93129 26.8876 9.05779 26.8032 9.1632C26.7821 9.18429 26.7558 9.21064 26.7242 9.24227C26.7031 9.27389 26.7031 9.30024 26.7242 9.32133C26.7347 9.34241 26.8401 9.31079 27.0404 9.22645C27.2512 9.14212 27.4937 9.03671 27.7678 8.91021C28.0419 8.78371 28.3265 8.65194 28.6216 8.5149C28.9168 8.36732 29.1645 8.23555 29.3648 8.1196H29.4439Z" fill="#48198F"/>
<path d="M40.4067 0.782707C40.4067 0.80379 40.4014 0.861768 40.3909 0.956642C40.3909 1.05152 40.3804 1.12531 40.3593 1.17801C40.3698 1.20964 40.3645 1.24126 40.3435 1.27289C40.3329 1.30451 40.3171 1.33087 40.296 1.35195C40.2855 1.34141 40.2644 1.36249 40.2328 1.4152C40.2012 1.4679 40.1643 1.53115 40.1221 1.60494C40.0799 1.67873 40.0378 1.7578 39.9956 1.84213C39.964 1.91592 39.9429 1.96863 39.9323 2.00025C39.9113 2.04242 39.8796 2.07931 39.8375 2.11094C39.8058 2.14256 39.7742 2.17946 39.7426 2.22162C39.5318 2.44299 39.3315 2.69072 39.1417 2.9648C39.0469 3.07021 38.9414 3.21779 38.8255 3.40754C38.7095 3.58675 38.6094 3.73433 38.5251 3.85028C38.4091 4.02949 38.2879 4.2087 38.1614 4.3879C38.0349 4.56711 37.9031 4.74631 37.7661 4.92552C37.7028 5.00985 37.6448 5.09418 37.5921 5.17851C37.5394 5.25231 37.4867 5.33137 37.434 5.4157C37.2864 5.60545 37.1494 5.80046 37.0229 6.00075C36.8964 6.1905 36.7699 6.38552 36.6434 6.58581C36.6329 6.60689 36.5696 6.70176 36.4536 6.87043C36.3482 7.02855 36.2165 7.22884 36.0583 7.47129C35.9002 7.70321 35.7263 7.96147 35.5365 8.24609C35.3468 8.52017 35.1676 8.78898 34.9989 9.05252C34.8303 9.30551 34.6774 9.53216 34.5404 9.73245C34.4139 9.92219 34.3295 10.054 34.2874 10.1278C34.1398 10.3597 33.9817 10.581 33.813 10.7919C33.6549 11.0132 33.502 11.2399 33.3544 11.4718C33.2701 11.5878 33.1752 11.7301 33.0698 11.8987C32.975 12.0674 32.8748 12.2361 32.7694 12.4047C32.664 12.5839 32.5638 12.7526 32.469 12.9107C32.3741 13.0794 32.2845 13.227 32.2001 13.3535C32.1158 13.4694 32.0473 13.5854 31.9946 13.7013C31.9419 13.8278 31.8734 13.949 31.789 14.065C31.7679 14.1177 31.7311 14.1599 31.6783 14.1915C31.6362 14.2231 31.594 14.26 31.5518 14.3022H30.8719C30.8192 14.2811 30.7612 14.26 30.698 14.2389C30.6453 14.2179 30.5926 14.202 30.5399 14.1915C30.4555 14.1704 30.3659 14.1599 30.2711 14.1599C30.1867 14.1599 30.0918 14.1546 29.9864 14.1441C30.0181 13.9754 30.0391 13.8173 30.0497 13.6697C30.0708 13.5221 30.0971 13.3745 30.1287 13.227C30.1393 13.1321 30.1656 13.0109 30.2078 12.8633C30.25 12.7157 30.2869 12.5681 30.3185 12.4205C30.3607 12.2729 30.3976 12.1254 30.4292 11.9778C30.4713 11.8302 30.503 11.709 30.5241 11.6141C30.5662 11.34 30.6189 11.0765 30.6822 10.8235C30.756 10.5705 30.8403 10.3175 30.9352 10.0645C31.0617 9.77988 31.1724 9.48999 31.2672 9.19483C31.3726 8.89967 31.4781 8.6045 31.5835 8.30934C31.6046 8.24609 31.6256 8.18284 31.6467 8.1196C31.6678 8.05635 31.6889 7.9931 31.71 7.92985L30.8403 9.11577C30.8087 9.18956 30.756 9.27389 30.6822 9.36876L28.421 12.8158C28.3789 12.8685 28.3367 12.9107 28.2945 12.9423C28.2418 12.9845 28.1733 12.995 28.089 12.974C27.9203 12.9318 27.7833 12.8475 27.6778 12.721C27.5724 12.605 27.4828 12.4627 27.409 12.294V12.2466C27.5566 11.8776 27.7042 11.5034 27.8518 11.1239C27.9888 10.755 28.1311 10.386 28.2787 10.0171C28.3209 9.93273 28.363 9.85367 28.4052 9.77988C28.4368 9.70609 28.479 9.62703 28.5317 9.5427C28.6582 9.36349 28.7583 9.17902 28.8321 8.98927C28.9059 8.79952 28.985 8.59923 29.0693 8.3884C29.1431 8.21974 29.2274 8.06162 29.3223 7.91404C29.4172 7.75591 29.5121 7.59779 29.6069 7.43967C29.6596 7.35534 29.7124 7.271 29.7651 7.18667C29.8178 7.0918 29.8705 7.0022 29.9232 6.91786C30.134 6.54891 30.3343 6.18523 30.5241 5.82682C30.7243 5.46841 30.9299 5.10999 31.1407 4.75158C31.2989 4.46696 31.4675 4.19288 31.6467 3.92935C31.8259 3.65527 31.9946 3.38119 32.1527 3.10711C32.3108 2.86465 32.4742 2.57476 32.6429 2.23743C32.8221 1.90011 32.9802 1.60494 33.1173 1.35195C33.1911 1.22545 33.2754 1.15166 33.3703 1.13058C33.4651 1.10949 33.5547 1.09895 33.6391 1.09895C33.7445 1.09895 33.8183 1.14112 33.8604 1.22545C33.9026 1.30978 33.9342 1.40993 33.9553 1.52588C33.9975 1.70509 33.9975 1.88429 33.9553 2.0635C33.9237 2.23216 33.871 2.4061 33.7972 2.5853C33.7339 2.75397 33.6549 2.92263 33.56 3.0913C33.4757 3.24942 33.3966 3.397 33.3228 3.53404C33.1963 3.77649 33.0593 4.01368 32.9117 4.24559C32.7747 4.4775 32.6376 4.71469 32.5006 4.95714C32.4163 5.10472 32.3214 5.25231 32.216 5.39989C32.1211 5.54747 32.0315 5.69505 31.9472 5.84263C31.8312 6.02184 31.7258 6.20104 31.6309 6.38025C31.5466 6.55945 31.4464 6.73866 31.3305 6.91786C31.2567 7.03382 31.1882 7.13923 31.1249 7.23411C31.0617 7.32898 30.9984 7.4344 30.9352 7.55035C30.8719 7.65577 30.8139 7.76118 30.7612 7.8666C30.7191 7.97201 30.6716 8.0827 30.6189 8.19866L32.1685 6.25375C32.2107 6.14833 32.2529 6.04819 32.295 5.95332C32.3372 5.85844 32.3794 5.76357 32.4215 5.66869C32.6218 5.33137 32.8221 4.98877 33.0224 4.6409C33.2227 4.29303 33.4282 3.95043 33.6391 3.6131C33.6918 3.52877 33.7392 3.43917 33.7814 3.34429C33.8341 3.23888 33.9342 3.19144 34.0818 3.20198C34.1134 3.20198 34.1451 3.21252 34.1767 3.23361C34.2083 3.24415 34.2399 3.25996 34.2716 3.28104C34.3243 3.30213 34.3717 3.32321 34.4139 3.34429C34.4666 3.36538 34.514 3.39173 34.5562 3.42335C34.6827 3.50769 34.7301 3.60783 34.6985 3.72379C34.6774 3.83974 34.6669 3.96624 34.6669 4.10328C34.6458 4.30357 34.6036 4.48805 34.5404 4.65671C34.4877 4.82537 34.4191 4.99404 34.3348 5.1627C34.2505 5.40516 34.1503 5.64234 34.0344 5.87425C33.9184 6.10617 33.8183 6.34335 33.7339 6.58581C33.6496 6.76501 33.5811 6.94949 33.5284 7.13923C33.4862 7.31844 33.4335 7.49765 33.3703 7.67685C33.3492 7.72956 33.3386 7.777 33.3386 7.81916C33.3386 7.85079 33.3281 7.88768 33.307 7.92985C33.2121 8.1723 33.1225 8.42003 33.0382 8.67302C32.9539 8.91548 32.8695 9.15793 32.7852 9.40039C32.7536 9.51634 32.7167 9.6323 32.6745 9.74826C32.6429 9.85367 32.6165 9.96436 32.5955 10.0803C32.6692 9.99598 32.7325 9.91165 32.7852 9.82732C32.8379 9.73245 32.9012 9.64284 32.9749 9.55851C33.0171 9.49526 33.0646 9.43201 33.1173 9.36876C33.1805 9.30551 33.2385 9.24227 33.2912 9.17902C33.5337 8.78898 33.7866 8.39895 34.0502 8.00891C34.3137 7.61887 34.5825 7.22884 34.8566 6.8388C34.9726 6.63851 35.0938 6.4435 35.2203 6.25375C35.3573 6.05346 35.4891 5.85317 35.6156 5.65288C35.6261 5.64234 35.6788 5.57382 35.7737 5.44732C35.8686 5.31028 35.974 5.15743 36.09 4.98877C36.2165 4.8201 36.3377 4.65671 36.4536 4.49859C36.5696 4.32992 36.6592 4.20343 36.7225 4.11909C36.7646 4.07693 36.8279 3.99787 36.9122 3.88191C37.0071 3.76595 37.102 3.65 37.1968 3.53404C37.3022 3.40754 37.3918 3.29686 37.4656 3.20198C37.55 3.09657 37.6027 3.03332 37.6238 3.01224C37.6554 2.98061 37.7186 2.90682 37.8135 2.79086C37.9189 2.67491 38.0296 2.55368 38.1456 2.42718C38.2615 2.30068 38.3669 2.18473 38.4618 2.07931C38.5567 1.9739 38.6147 1.91065 38.6357 1.88956C38.699 1.81577 38.7622 1.74725 38.8255 1.68401C38.8993 1.61022 38.9678 1.53642 39.031 1.46263C39.0521 1.44155 39.1048 1.3783 39.1892 1.27289C39.2735 1.15693 39.3684 1.0357 39.4738 0.909205C39.5792 0.782707 39.6846 0.672021 39.79 0.577147C39.8954 0.471732 39.9798 0.413754 40.043 0.403213C40.0852 0.392671 40.1274 0.361047 40.1695 0.308339C40.2117 0.255632 40.2486 0.208195 40.2802 0.166029C40.3013 0.144946 40.3277 0.123863 40.3593 0.10278C40.3909 0.081697 40.4331 0.0500726 40.4858 0.0079065C40.4541 0.0922381 40.4278 0.181841 40.4067 0.276714C40.3962 0.361046 40.3856 0.445379 40.3751 0.529711C40.3751 0.603501 40.3751 0.66675 40.3751 0.719457C40.3751 0.761624 40.3856 0.782707 40.4067 0.782707Z" fill="#48198F"/>
<path d="M40.4029 9.63757C40.4029 9.65866 40.503 9.62176 40.7033 9.52689C40.9141 9.43201 41.1461 9.31606 41.3991 9.17902C41.6837 9.03143 42.0157 8.85223 42.3952 8.6414V8.81533C42.0684 9.05779 41.7575 9.26862 41.4623 9.44782C41.2093 9.59541 40.9563 9.73245 40.7033 9.85894C40.4503 9.9749 40.2606 10.0118 40.1341 9.96963C39.9443 9.91692 39.8284 9.80097 39.7862 9.62176C39.7546 9.44255 39.7493 9.2897 39.7704 9.1632C39.5069 9.39512 39.2591 9.59541 39.0272 9.76407C38.8058 9.93273 38.6214 10.0592 38.4738 10.1436C38.3473 10.2068 38.2261 10.2806 38.1101 10.3649C37.9941 10.4387 37.8677 10.502 37.7306 10.5547C37.4144 10.6812 37.077 10.7023 36.7186 10.6179C36.297 10.5336 35.9702 10.3228 35.7383 9.98544C35.7172 9.94328 35.6961 9.89584 35.675 9.84313C35.6539 9.79042 35.6329 9.73772 35.6118 9.68501C35.5907 9.44255 35.6803 9.17902 35.8806 8.8944C36.0809 8.59923 36.3181 8.31461 36.5921 8.04053C36.8662 7.76645 37.1403 7.51873 37.4144 7.29736C37.699 7.07599 37.9045 6.91259 38.031 6.80718C38.1048 6.75447 38.2208 6.69122 38.3789 6.61743C38.537 6.5331 38.711 6.45931 38.9007 6.39606C39.101 6.33281 39.3118 6.2801 39.5332 6.23794C39.7651 6.19577 39.9865 6.18523 40.1973 6.20631C40.3554 6.22739 40.4503 6.30119 40.4819 6.42768C40.5241 6.54364 40.5768 6.6596 40.6401 6.77555C40.6506 6.79664 40.6664 6.81772 40.6875 6.8388C40.7402 6.89151 40.7982 6.99165 40.8614 7.13923C40.9352 7.27627 40.9616 7.45021 40.9405 7.66104C40.9405 7.70321 40.9352 7.75064 40.9247 7.80335C40.9141 7.84552 40.8983 7.89295 40.8773 7.94566C40.8667 7.9562 40.8614 7.96674 40.8614 7.97728C40.8614 7.97728 40.8562 7.98256 40.8456 7.9931C40.8035 8.13014 40.756 8.28826 40.7033 8.46746C40.6611 8.64667 40.6137 8.82061 40.561 8.98927C40.5188 9.15793 40.4819 9.30551 40.4503 9.43201C40.4187 9.54797 40.4029 9.61649 40.4029 9.63757ZM37.0981 9.5427C37.2457 9.53216 37.4618 9.43201 37.7464 9.24227C38.0416 9.04198 38.3367 8.81533 38.6319 8.56234C38.9271 8.2988 39.1853 8.04053 39.4067 7.78754C39.6386 7.524 39.7651 7.32898 39.7862 7.20248C39.6702 7.17086 39.5543 7.15505 39.4383 7.15505C39.3329 7.15505 39.217 7.17086 39.0905 7.20248C38.964 7.22357 38.8427 7.271 38.7268 7.34479C38.653 7.3975 38.5265 7.4871 38.3473 7.6136C38.1786 7.7401 37.9941 7.88241 37.7939 8.04053C37.6041 8.19866 37.4144 8.36732 37.2246 8.54653C37.0454 8.71519 36.9084 8.87331 36.8135 9.02089C36.7186 9.16847 36.687 9.2897 36.7186 9.38458C36.7503 9.47945 36.8768 9.53216 37.0981 9.5427Z" fill="#48198F"/>
<path d="M48.5739 7.06017C48.6055 7.07072 48.616 7.0918 48.6055 7.12342C48.6055 7.14451 48.5897 7.15505 48.5581 7.15505L48.0679 7.20248C47.9835 7.21303 47.8992 7.22357 47.8149 7.23411C47.7305 7.23411 47.6462 7.24465 47.5619 7.26573C47.3932 7.28682 47.2246 7.31844 47.0559 7.36061C46.8978 7.40277 46.7396 7.45021 46.5815 7.50292C46.4129 7.55562 46.26 7.60833 46.123 7.66104C45.7962 7.96674 45.4589 8.28299 45.111 8.60978C44.7631 8.93656 44.4416 9.237 44.1464 9.51107C43.8513 9.78515 43.5983 10.0223 43.3874 10.2226C43.1766 10.4124 43.0501 10.5231 43.008 10.5547C42.8498 10.6812 42.6759 10.7919 42.4861 10.8867C42.4124 10.9184 42.3333 10.9131 42.249 10.8709C42.1646 10.8498 42.0856 10.813 42.0118 10.7602C41.938 10.7181 41.8589 10.6865 41.7746 10.6654C41.5216 10.581 41.4004 10.4176 41.4109 10.1752C41.4109 10.0487 41.3951 9.90638 41.3635 9.74826C41.3846 9.66393 41.432 9.52689 41.5058 9.33714C41.5796 9.14739 41.6639 8.93656 41.7588 8.70465C41.8537 8.47274 41.9538 8.23028 42.0592 7.97728C42.1752 7.72429 42.2806 7.49238 42.3755 7.28155C42.4703 7.06017 42.5547 6.8757 42.6285 6.72812C42.7022 6.56999 42.7497 6.47512 42.7708 6.4435C42.8129 6.39079 42.8551 6.34862 42.8973 6.317C42.95 6.28537 43.0185 6.29064 43.1028 6.33281C43.1872 6.38552 43.282 6.41714 43.3874 6.42768C43.4929 6.43823 43.593 6.45404 43.6879 6.47512C43.8144 6.50675 43.8987 6.57526 43.9409 6.68068C43.9936 6.77555 43.9936 6.88097 43.9409 6.99693C43.9092 7.08126 43.8513 7.19721 43.7669 7.34479C43.6931 7.48183 43.6141 7.63469 43.5298 7.80335C43.4454 7.96147 43.3611 8.1196 43.2768 8.27772C43.1924 8.43584 43.1239 8.56761 43.0712 8.67302L43.1186 8.72046L43.5139 8.35678L45.2691 6.61743L46.0439 5.92169C46.0861 5.87952 46.1335 5.86371 46.1862 5.87425C46.3443 5.91642 46.4972 5.96386 46.6448 6.01656C46.8029 6.06927 46.9294 6.16942 47.0243 6.317C47.0664 6.3697 47.077 6.43822 47.0559 6.52256C47.0348 6.60689 47.0137 6.68595 46.9926 6.75974C46.961 6.84407 46.903 6.9284 46.8187 7.01274L46.629 7.20248C46.7871 7.16032 46.9452 7.12869 47.1033 7.10761C47.2614 7.07599 47.4248 7.04963 47.5935 7.02855C47.6778 7.01801 47.7622 7.01274 47.8465 7.01274C47.9308 7.0022 48.0152 7.0022 48.0995 7.01274C48.1838 7.01274 48.2629 7.01801 48.3367 7.02855C48.4105 7.03909 48.4895 7.04963 48.5739 7.06017Z" fill="#48198F"/>
<path d="M47.6706 9.73245C47.7338 9.78515 47.8814 9.80624 48.1133 9.79569C48.3452 9.77461 48.6141 9.73772 48.9198 9.68501C49.236 9.62176 49.5681 9.55324 49.9159 9.47945C50.2743 9.39512 50.6117 9.32133 50.9279 9.25808C51.2442 9.18429 51.5182 9.12631 51.7501 9.08414C51.9926 9.04198 52.156 9.02616 52.2403 9.03671L52.2245 9.05252C52.1824 9.0736 52.0664 9.12104 51.8767 9.19483C51.6869 9.26862 51.4603 9.35822 51.1967 9.46364C50.9437 9.55851 50.6644 9.66393 50.3587 9.77988C50.0635 9.8853 49.7842 9.98544 49.5206 10.0803C49.2571 10.1752 49.0304 10.2595 48.8407 10.3333C48.6509 10.4071 48.535 10.4493 48.4928 10.4598C48.3347 10.5231 48.1713 10.56 48.0026 10.5705C47.834 10.5705 47.6601 10.5547 47.4808 10.5231C47.0592 10.4282 46.7324 10.2174 46.5005 9.89057C46.4794 9.8484 46.4583 9.80097 46.4372 9.74826C46.4162 9.69555 46.3951 9.64284 46.374 9.59014C46.3529 9.34768 46.4425 9.07887 46.6428 8.78371C46.8431 8.48855 47.0803 8.2092 47.3543 7.94566C47.6284 7.67158 47.9025 7.42386 48.1766 7.20248C48.4612 6.98111 48.6668 6.81772 48.7933 6.7123C48.8671 6.64906 48.983 6.58054 49.1411 6.50675C49.2993 6.42241 49.4732 6.34862 49.6629 6.28537C49.8632 6.22212 50.0741 6.17469 50.2954 6.14306C50.5273 6.1009 50.7487 6.09035 50.9595 6.11144C51.1177 6.13252 51.2125 6.20631 51.2442 6.33281C51.2863 6.44877 51.339 6.56472 51.4023 6.68068C51.4444 6.74393 51.5499 6.7861 51.7185 6.80718C51.8029 6.85989 51.8767 6.92313 51.9399 6.99693C52.0031 7.07072 52.0348 7.17086 52.0348 7.29736C51.9926 7.3079 51.961 7.35007 51.9399 7.42386C51.8767 7.51873 51.8239 7.59779 51.7818 7.66104C51.7501 7.72429 51.7185 7.78227 51.6869 7.83497C51.6553 7.87714 51.6131 7.92458 51.5604 7.97728C51.5182 8.02999 51.4603 8.09851 51.3865 8.18284C51.26 8.2988 51.0439 8.37786 50.7382 8.42003C50.443 8.45165 50.1426 8.47274 49.8369 8.48328C49.4785 8.49382 49.0832 8.48855 48.651 8.46746H48.6351C48.5403 8.56234 48.4348 8.67302 48.3189 8.79952C48.2135 8.91548 48.1133 9.03671 48.0185 9.1632C47.9341 9.27916 47.8551 9.38985 47.7813 9.49526C47.718 9.60068 47.6811 9.67974 47.6706 9.73245ZM49.6155 8.21447C50.2058 7.71902 50.5168 7.35006 50.5484 7.10761C50.3165 7.19194 50.0424 7.34479 49.7262 7.56617C49.4205 7.777 49.1306 8.00891 48.8565 8.26191C48.9514 8.28299 49.0621 8.28826 49.1886 8.27772C49.3256 8.25663 49.4679 8.23555 49.6155 8.21447Z" fill="#48198F"/>
<path d="M53.8554 13.3535C54.003 13.3218 54.1189 13.2375 54.2033 13.1005C54.2876 12.974 54.3719 12.858 54.4563 12.7526C54.6566 12.5312 54.841 12.2993 55.0097 12.0568C55.1784 11.8144 55.3523 11.5719 55.5315 11.3295C55.6475 11.1819 55.7687 11.0449 55.8952 10.9184C56.0217 10.8024 56.1429 10.6759 56.2589 10.5389C56.3116 10.4756 56.4065 10.3649 56.5435 10.2068C56.6805 10.0487 56.8387 9.86421 57.0179 9.65338C57.1971 9.44255 57.3815 9.22118 57.5713 8.98927C57.7716 8.74681 57.9613 8.52544 58.1405 8.32515C58.3197 8.11432 58.4726 7.92985 58.5991 7.77173C58.7361 7.6136 58.831 7.50292 58.8837 7.43967C58.9364 7.38696 58.9839 7.33952 59.026 7.29736C59.0682 7.25519 59.1156 7.20775 59.1683 7.15505C59.3264 6.99692 59.3106 6.90205 59.1209 6.87043C59.0366 6.84934 58.947 6.8388 58.8521 6.8388C58.7572 6.8388 58.6623 6.83353 58.5675 6.82299H58.267C58.2565 6.80191 58.2512 6.78082 58.2512 6.75974C58.2512 6.73866 58.2459 6.71758 58.2354 6.69649C58.3092 6.64378 58.3777 6.59108 58.441 6.53837C58.5042 6.47512 58.5727 6.43295 58.6465 6.41187C58.8784 6.32754 59.1051 6.24848 59.3264 6.17469C59.5584 6.1009 59.785 6.02184 60.0064 5.9375C60.0907 5.90588 60.175 5.85844 60.2594 5.79519C60.3437 5.7214 60.4228 5.64761 60.4966 5.57382C60.7496 5.32083 60.9867 5.05202 61.2081 4.7674C61.3241 4.63036 61.4348 4.49332 61.5402 4.35628C61.6561 4.2087 61.7826 4.0453 61.9197 3.8661C61.7932 3.88718 61.6667 3.90826 61.5402 3.92935C61.4242 3.95043 61.3083 3.97151 61.1923 3.9926C61.108 4.01368 61.0184 4.04003 60.9235 4.07166C60.8392 4.10328 60.7548 4.12963 60.6705 4.15072C60.428 4.18234 60.1803 4.21397 59.9273 4.24559C59.6849 4.26667 59.4424 4.29303 59.2 4.32465C59.1894 4.30357 59.1841 4.28249 59.1841 4.2614C59.1841 4.24032 59.1789 4.21924 59.1683 4.19815C59.2316 4.13491 59.2896 4.07166 59.3423 4.00841C59.4055 3.93462 59.4688 3.88191 59.532 3.85028C59.8799 3.67108 60.2277 3.49714 60.5756 3.32848C60.9235 3.14927 61.2766 2.98588 61.635 2.8383C61.9302 2.72234 62.2254 2.62747 62.5205 2.55368C62.8157 2.47989 63.1109 2.39556 63.406 2.30068C63.522 2.25852 63.6274 2.20581 63.7223 2.14256C63.8277 2.06877 63.9384 2.00025 64.0543 1.937C64.1386 1.88429 64.2177 1.83159 64.2915 1.77888C64.3758 1.72617 64.4602 1.67346 64.5445 1.62076C64.5656 1.69455 64.5761 1.75253 64.5761 1.79469C64.5867 1.83686 64.6025 1.88429 64.6236 1.937C64.9925 1.85267 65.3615 1.77361 65.7304 1.69982C66.0994 1.61549 66.4683 1.53115 66.8373 1.44682C67.1851 1.36249 67.533 1.2887 67.8809 1.22545C68.2288 1.15166 68.5713 1.06733 68.9087 0.972454C69.2776 0.867039 69.6413 0.756353 69.9997 0.640396C70.3687 0.513899 70.7376 0.392671 71.1066 0.276714C71.3069 0.224007 71.5019 0.17657 71.6916 0.134404C71.8814 0.0922384 72.0711 0.0500726 72.2609 0.0079065C72.4401 -0.0237182 72.5297 0.0500723 72.5297 0.229278C72.5402 0.292527 72.5613 0.355776 72.5929 0.419025C72.6246 0.471732 72.6562 0.52444 72.6878 0.577147C72.6667 0.59823 72.6456 0.608772 72.6246 0.608772C72.6773 0.629855 72.7247 0.645667 72.7669 0.656209C72.8196 0.666751 72.8723 0.682563 72.925 0.703645C72.925 0.851226 72.8617 1.01989 72.7352 1.20964C72.6087 1.38884 72.4822 1.49953 72.3557 1.5417C72.1238 1.61549 71.8919 1.68401 71.66 1.74726C71.4386 1.79996 71.2173 1.86321 70.9959 1.937C70.8483 1.98971 70.7007 2.03715 70.5532 2.07931C70.4056 2.12148 70.258 2.16891 70.1104 2.22162C69.8152 2.30595 69.5201 2.39029 69.2249 2.47462C68.9298 2.54841 68.6293 2.6222 68.3236 2.69599C67.9336 2.78032 67.5436 2.85411 67.1535 2.91736C66.774 2.98061 66.384 3.0544 65.9834 3.13873C65.8569 3.15982 65.7251 3.1809 65.5881 3.20198C65.4616 3.21252 65.3298 3.23361 65.1928 3.26523C65.0663 3.28631 64.9398 3.31794 64.8133 3.3601C64.6973 3.39173 64.5867 3.4866 64.4812 3.64473C64.3442 3.87664 64.1755 4.06639 63.9753 4.21397C63.775 4.36155 63.5905 4.53548 63.4218 4.73577C63.3691 4.79902 63.3059 4.86227 63.2321 4.92552C63.1688 4.98877 63.1056 5.05202 63.0423 5.11527C63.0634 5.15743 63.074 5.17851 63.074 5.17851C63.3586 5.11527 63.6432 5.05202 63.9278 4.98877C64.2124 4.91498 64.4918 4.84646 64.7659 4.78321C64.8924 4.75158 65.0189 4.72523 65.1454 4.70415C65.2719 4.67252 65.3931 4.64617 65.509 4.62509C65.6355 4.61454 65.7357 4.65671 65.8095 4.75158C65.8833 4.83592 65.9149 4.95187 65.9044 5.09945C65.9044 5.12054 65.8991 5.14689 65.8885 5.17851C65.8885 5.1996 65.8938 5.22068 65.9044 5.24176C65.9571 5.29447 65.9834 5.34718 65.9834 5.39989C65.994 5.44205 65.9834 5.48422 65.9518 5.52638C65.9307 5.56855 65.8991 5.61072 65.8569 5.65288C65.8253 5.68451 65.7937 5.71613 65.762 5.74776C65.6988 5.82155 65.6303 5.8848 65.5565 5.9375C65.4827 5.99021 65.4036 6.04292 65.3193 6.09563C65.3088 6.10617 65.2982 6.11671 65.2877 6.12725C65.2877 6.13779 65.2771 6.14833 65.256 6.15887C64.9503 6.23267 64.6394 6.30646 64.3231 6.38025C64.0069 6.45404 63.6906 6.51729 63.3744 6.56999C63.1636 6.60162 62.958 6.6227 62.7577 6.63324C62.5574 6.63324 62.3519 6.63851 62.141 6.64905C61.9091 6.64905 61.7141 6.72285 61.556 6.87043C61.3979 7.01801 61.2397 7.1814 61.0816 7.36061C60.9867 7.47656 60.8866 7.59252 60.7812 7.70848C60.6758 7.82443 60.5756 7.94039 60.4807 8.05635C60.4386 8.10905 60.3542 8.2092 60.2277 8.35678C60.1012 8.50436 59.9537 8.6783 59.785 8.87858C59.6269 9.07887 59.4529 9.2897 59.2632 9.51107C59.084 9.73245 58.9101 9.94328 58.7414 10.1436C58.5833 10.3439 58.441 10.5231 58.3145 10.6812C58.1985 10.8288 58.1194 10.9236 58.0773 10.9658C57.5818 11.5456 57.0864 12.1043 56.5909 12.6419C56.4433 12.8106 56.301 12.974 56.164 13.1321C56.0164 13.3007 55.8741 13.4747 55.7371 13.6539C55.6317 13.7804 55.521 13.87 55.405 13.9227C55.2891 13.9754 55.1678 14.0176 55.0413 14.0492C54.9992 14.0597 54.957 14.065 54.9148 14.065C54.8727 14.0755 54.8305 14.0914 54.7883 14.1124H54.5828C54.5828 14.0492 54.5775 14.0123 54.567 14.0018C54.5143 13.9596 54.4615 13.9174 54.4088 13.8753C54.3561 13.8436 54.2982 13.8173 54.2349 13.7962C54.1927 13.7857 54.1611 13.7593 54.14 13.7171C54.1189 13.675 54.0979 13.6328 54.0768 13.5906C54.0452 13.5485 54.0135 13.5116 53.9819 13.48C53.9503 13.4589 53.9028 13.4589 53.8396 13.48C53.8396 13.4589 53.8449 13.4378 53.8554 13.4167C53.8554 13.3956 53.8554 13.3745 53.8554 13.3535Z" fill="#48198F"/>
<path d="M66.5014 6.93368C66.5541 6.99692 66.6121 7.06017 66.6753 7.12342C66.7386 7.17613 66.8071 7.23938 66.8809 7.31317C66.7333 7.56617 66.5857 7.81916 66.4381 8.07216C66.2906 8.32515 66.1377 8.57815 65.9796 8.83115C65.9585 8.87331 65.9163 8.9471 65.8531 9.05252C65.7898 9.15793 65.716 9.27389 65.6317 9.40039C65.5474 9.52689 65.4525 9.66393 65.3471 9.81151C65.2522 9.94855 65.1521 10.075 65.0467 10.191C65.1626 10.1383 65.2786 10.0803 65.3945 10.0171C65.5105 9.95382 65.6264 9.8853 65.7424 9.81151C65.8373 9.74826 65.9321 9.68501 66.027 9.62176C66.1219 9.54797 66.222 9.47945 66.3274 9.4162L66.5646 9.22645C66.5963 9.20537 66.6226 9.18429 66.6437 9.1632C66.6753 9.14212 66.7017 9.12104 66.7228 9.09996C66.7228 9.08941 66.6859 9.12631 66.6121 9.21064C66.5488 9.28443 66.4645 9.37931 66.3591 9.49526C66.2642 9.60068 66.1641 9.70609 66.0586 9.81151C65.9638 9.90638 65.8952 9.9749 65.8531 10.0171C65.7687 10.0803 65.6897 10.1436 65.6159 10.2068C65.5421 10.2595 65.463 10.307 65.3787 10.3491C65.2522 10.4124 65.1152 10.4704 64.9676 10.5231C64.8306 10.5758 64.6882 10.6127 64.5407 10.6337C64.3931 10.6865 64.2508 10.6654 64.1137 10.5705C63.9767 10.4651 63.8924 10.3544 63.8607 10.2384C63.8502 10.1752 63.8555 10.0961 63.8765 10.0013C63.8976 9.89584 63.924 9.79042 63.9556 9.68501C63.9978 9.56905 64.0399 9.46364 64.0821 9.36876C64.1243 9.27389 64.1559 9.20537 64.177 9.1632C64.2402 9.06833 64.3351 8.92602 64.4616 8.73627C64.5881 8.53598 64.7199 8.3357 64.8569 8.13541C64.9939 7.92458 65.1204 7.72956 65.2364 7.55035C65.3524 7.37115 65.4314 7.24992 65.4736 7.18667C65.5263 7.11288 65.5737 7.04436 65.6159 6.98111C65.6686 6.90732 65.7318 6.84407 65.8056 6.79137C65.9216 6.70703 66.0428 6.68068 66.1693 6.7123C66.3064 6.74393 66.4171 6.81772 66.5014 6.93368ZM67.5924 6.07981C67.6135 6.18523 67.5819 6.28537 67.4976 6.38025C67.4238 6.47512 67.3342 6.5331 67.2287 6.55418C67.1022 6.57526 66.9705 6.59635 66.8334 6.61743C66.7069 6.63851 66.5857 6.63851 66.4698 6.61743C66.3643 6.59635 66.2273 6.52783 66.0586 6.41187C65.9005 6.28537 65.8056 6.1536 65.774 6.01656C65.7635 5.99548 65.774 5.96386 65.8056 5.92169C65.8373 5.87952 65.8636 5.85317 65.8847 5.84263C66.0639 5.81101 66.2431 5.77938 66.4223 5.74776C66.6015 5.71613 66.7807 5.68978 66.9599 5.66869C66.9916 5.65815 67.0443 5.65288 67.1181 5.65288C67.1181 5.64234 67.1708 5.65288 67.2762 5.68451C67.3816 5.70559 67.4607 5.74249 67.5134 5.79519C67.545 5.81628 67.5608 5.85844 67.5608 5.92169C67.5608 5.9744 67.5713 6.02711 67.5924 6.07981ZM66.8809 7.29736V7.31317V7.29736Z" fill="#48198F"/>
<path d="M72.24 6.87043C72.2611 6.88097 72.2927 6.90732 72.3349 6.94949C72.3876 6.99165 72.4403 7.03909 72.493 7.0918C72.5457 7.14451 72.5879 7.20248 72.6195 7.26573C72.6617 7.32898 72.6827 7.38696 72.6827 7.43967C72.63 7.92458 72.4719 8.37786 72.2084 8.79952C71.9448 9.22118 71.6549 9.63757 71.3387 10.0487C71.5074 9.9749 71.7129 9.85367 71.9554 9.68501C72.2084 9.51634 72.4508 9.34241 72.6827 9.1632C72.9147 8.984 73.1097 8.82588 73.2678 8.68884C73.4365 8.5518 73.5261 8.48328 73.5366 8.48328C73.4944 8.52544 73.3732 8.64667 73.1729 8.84696C72.9726 9.04725 72.7302 9.27389 72.4456 9.52689C72.1609 9.76934 71.85 10.0118 71.5126 10.2542C71.1858 10.4967 70.8749 10.6865 70.5797 10.8235C70.2845 10.9711 70.0316 11.0343 69.8207 11.0132C69.6099 11.0027 69.4781 10.8604 69.4254 10.5863C69.4043 10.5125 69.4149 10.444 69.457 10.3807C69.6046 10.1699 69.7522 9.95382 69.8998 9.73245C70.0579 9.51107 70.2108 9.29497 70.3583 9.08414C70.4005 9.02089 70.4585 8.93656 70.5323 8.83115C70.6166 8.71519 70.6957 8.6045 70.7695 8.49909C70.8433 8.39367 70.9065 8.2988 70.9592 8.21447C71.0225 8.1196 71.0594 8.06162 71.0699 8.04053C70.8591 8.05108 70.6324 8.08797 70.39 8.15122C70.1475 8.20393 69.8787 8.33043 69.5835 8.53071C69.4992 8.59396 69.3938 8.72046 69.2673 8.91021C69.1408 9.08941 69.009 9.2897 68.872 9.51107C68.735 9.7219 68.6032 9.92219 68.4767 10.1119C68.3502 10.3017 68.25 10.4282 68.1763 10.4914C68.0287 10.6074 67.8864 10.6759 67.7493 10.697C67.6228 10.7181 67.4858 10.6706 67.3382 10.5547C67.3171 10.5336 67.3171 10.5283 67.3382 10.5389C67.3593 10.5389 67.3593 10.5389 67.3382 10.5389C67.2433 10.4756 67.159 10.4071 67.0852 10.3333C67.022 10.2701 66.964 10.1963 66.9113 10.1119C66.8586 10.0276 66.8375 9.93273 66.848 9.82732C67.0061 9.63757 67.2012 9.36349 67.4331 9.00508C67.665 8.63613 67.8969 8.26191 68.1288 7.88241C68.3713 7.50292 68.5926 7.14978 68.7929 6.82299C68.9932 6.48566 69.1355 6.25375 69.2199 6.12725C69.3253 5.95859 69.4623 5.89534 69.631 5.9375C69.7575 5.99021 69.884 6.03765 70.0105 6.07981C70.1475 6.12198 70.274 6.16942 70.39 6.22212C70.4743 6.25375 70.5217 6.32227 70.5323 6.42768C70.5534 6.5331 70.5323 6.62797 70.469 6.7123C70.3531 6.88097 70.2424 7.0549 70.137 7.23411C70.0316 7.40277 69.9314 7.58198 69.8365 7.77173C69.9525 7.68739 70.0684 7.59779 70.1844 7.50292C70.3109 7.40804 70.4427 7.31844 70.5797 7.23411C70.7168 7.14978 70.8538 7.06544 70.9908 6.98111C71.1384 6.89678 71.286 6.81772 71.4336 6.74393C71.5812 6.68068 71.7182 6.67541 71.8447 6.72812C71.9712 6.78082 72.103 6.82826 72.24 6.87043Z" fill="#48198F"/>
<path d="M77.7155 9.63757C77.7155 9.65866 77.8156 9.62176 78.0159 9.52689C78.2267 9.43201 78.4587 9.31606 78.7117 9.17902C78.9963 9.03143 79.3283 8.85223 79.7078 8.6414V8.81533C79.381 9.05779 79.0701 9.26862 78.7749 9.44782C78.5219 9.59541 78.2689 9.73245 78.0159 9.85894C77.7629 9.9749 77.5732 10.0118 77.4467 9.96963C77.2569 9.91692 77.141 9.80097 77.0988 9.62176C77.0672 9.44255 77.0619 9.2897 77.083 9.1632C76.8195 9.39512 76.5717 9.59541 76.3398 9.76407C76.1184 9.93273 75.934 10.0592 75.7864 10.1436C75.6599 10.2068 75.5387 10.2806 75.4227 10.3649C75.3068 10.4387 75.1803 10.502 75.0432 10.5547C74.727 10.6812 74.3896 10.7023 74.0312 10.6179C73.6096 10.5336 73.2828 10.3228 73.0509 9.98544C73.0298 9.94328 73.0087 9.89584 72.9876 9.84313C72.9665 9.79042 72.9455 9.73772 72.9244 9.68501C72.9033 9.44255 72.9929 9.17902 73.1932 8.8944C73.3935 8.59923 73.6306 8.31461 73.9047 8.04053C74.1788 7.76645 74.4529 7.51873 74.727 7.29736C75.0116 7.07599 75.2171 6.91259 75.3436 6.80718C75.4174 6.75447 75.5334 6.69122 75.6915 6.61743C75.8496 6.5331 76.0236 6.45931 76.2133 6.39606C76.4136 6.33281 76.6244 6.2801 76.8458 6.23794C77.0777 6.19577 77.2991 6.18523 77.5099 6.20631C77.668 6.22739 77.7629 6.30119 77.7945 6.42768C77.8367 6.54364 77.8894 6.6596 77.9527 6.77555C77.9632 6.79664 77.979 6.81772 78.0001 6.8388C78.0528 6.89151 78.1108 6.99165 78.174 7.13923C78.2478 7.27627 78.2742 7.45021 78.2531 7.66104C78.2531 7.70321 78.2478 7.75064 78.2373 7.80335C78.2267 7.84552 78.2109 7.89295 78.1899 7.94566C78.1793 7.9562 78.174 7.96674 78.174 7.97728C78.174 7.97728 78.1688 7.98256 78.1582 7.9931C78.1161 8.13014 78.0686 8.28826 78.0159 8.46746C77.9738 8.64667 77.9263 8.82061 77.8736 8.98927C77.8314 9.15793 77.7945 9.30551 77.7629 9.43201C77.7313 9.54797 77.7155 9.61649 77.7155 9.63757ZM74.4107 9.5427C74.5583 9.53216 74.7744 9.43201 75.059 9.24227C75.3542 9.04198 75.6493 8.81533 75.9445 8.56234C76.2397 8.2988 76.4979 8.04053 76.7193 7.78754C76.9512 7.524 77.0777 7.32898 77.0988 7.20248C76.9828 7.17086 76.8669 7.15505 76.7509 7.15505C76.6455 7.15505 76.5296 7.17086 76.4031 7.20248C76.2766 7.22357 76.1553 7.271 76.0394 7.34479C75.9656 7.3975 75.8391 7.4871 75.6599 7.6136C75.4912 7.7401 75.3068 7.88241 75.1065 8.04053C74.9167 8.19866 74.727 8.36732 74.5372 8.54653C74.358 8.71519 74.221 8.87331 74.1261 9.02089C74.0312 9.16847 73.9996 9.2897 74.0312 9.38458C74.0629 9.47945 74.1893 9.53216 74.4107 9.5427Z" fill="#48198F"/>
<path d="M84.0522 6.87043C84.0733 6.88097 84.1049 6.90732 84.1471 6.94949C84.1998 6.99165 84.2525 7.03909 84.3052 7.0918C84.3579 7.14451 84.4001 7.20248 84.4317 7.26573C84.4739 7.32898 84.495 7.38696 84.495 7.43967C84.4423 7.92458 84.2842 8.37786 84.0206 8.79952C83.7571 9.22118 83.4672 9.63757 83.1509 10.0487C83.3196 9.9749 83.5252 9.85367 83.7676 9.68501C84.0206 9.51634 84.2631 9.34241 84.495 9.1632C84.7269 8.984 84.9219 8.82588 85.08 8.68884C85.2487 8.5518 85.3383 8.48328 85.3488 8.48328C85.3067 8.52544 85.1855 8.64667 84.9852 8.84696C84.7849 9.04725 84.5424 9.27389 84.2578 9.52689C83.9732 9.76934 83.6622 10.0118 83.3249 10.2542C82.9981 10.4967 82.6871 10.6865 82.392 10.8235C82.0968 10.9711 81.8438 11.0343 81.633 11.0132C81.4221 11.0027 81.2904 10.8604 81.2377 10.5863C81.2166 10.5125 81.2271 10.444 81.2693 10.3807C81.4169 10.1699 81.5644 9.95382 81.712 9.73245C81.8701 9.51107 82.023 9.29497 82.1706 9.08414C82.2127 9.02089 82.2707 8.93656 82.3445 8.83115C82.4288 8.71519 82.5079 8.6045 82.5817 8.49909C82.6555 8.39367 82.7187 8.2988 82.7714 8.21447C82.8347 8.1196 82.8716 8.06162 82.8821 8.04053C82.6713 8.05108 82.4447 8.08797 82.2022 8.15122C81.9598 8.20393 81.6909 8.33043 81.3958 8.53071C81.3115 8.59396 81.206 8.72046 81.0795 8.91021C80.953 9.08941 80.8213 9.2897 80.6842 9.51107C80.5472 9.7219 80.4154 9.92219 80.2889 10.1119C80.1624 10.3017 80.0623 10.4282 79.9885 10.4914C79.8409 10.6074 79.6986 10.6759 79.5616 10.697C79.4351 10.7181 79.298 10.6706 79.1504 10.5547C79.1294 10.5336 79.1294 10.5283 79.1504 10.5389C79.1715 10.5389 79.1715 10.5389 79.1504 10.5389C79.0556 10.4756 78.9712 10.4071 78.8974 10.3333C78.8342 10.2701 78.7762 10.1963 78.7235 10.1119C78.6708 10.0276 78.6497 9.93273 78.6603 9.82732C78.8184 9.63757 79.0134 9.36349 79.2453 9.00508C79.4772 8.63613 79.7091 8.26191 79.9411 7.88241C80.1835 7.50292 80.4049 7.14978 80.6052 6.82299C80.8055 6.48566 80.9478 6.25375 81.0321 6.12725C81.1375 5.95859 81.2746 5.89534 81.4432 5.9375C81.5697 5.99021 81.6962 6.03765 81.8227 6.07981C81.9598 6.12198 82.0862 6.16942 82.2022 6.22212C82.2865 6.25375 82.334 6.32227 82.3445 6.42768C82.3656 6.5331 82.3445 6.62797 82.2813 6.7123C82.1653 6.88097 82.0546 7.0549 81.9492 7.23411C81.8438 7.40277 81.7437 7.58198 81.6488 7.77173C81.7647 7.68739 81.8807 7.59779 81.9966 7.50292C82.1231 7.40804 82.2549 7.31844 82.392 7.23411C82.529 7.14978 82.666 7.06544 82.8031 6.98111C82.9507 6.89678 83.0982 6.81772 83.2458 6.74393C83.3934 6.68068 83.5304 6.67541 83.6569 6.72812C83.7834 6.78082 83.9152 6.82826 84.0522 6.87043Z" fill="#48198F"/>
<path d="M90.0812 6.82299C90.1233 6.84407 90.1497 6.90205 90.1602 6.99693C90.1813 7.08126 90.1866 7.1814 90.176 7.29736C90.176 7.41331 90.155 7.53454 90.1128 7.66104C90.0706 7.777 90.0126 7.87714 89.9389 7.96147C89.6015 8.05635 89.3116 8.1196 89.0692 8.15122C88.8267 8.18284 88.5843 8.17757 88.3418 8.13541C88.5421 7.88241 88.6791 7.68739 88.7529 7.55035C88.8373 7.41331 88.89 7.271 88.9111 7.12342C88.6581 7.2183 88.3524 7.3975 87.9939 7.66104C87.6355 7.92458 87.3087 8.19866 87.0136 8.48328C87.003 8.48328 86.9978 8.48855 86.9978 8.49909C86.9029 8.59396 86.7975 8.70465 86.6815 8.83115C86.5761 8.9471 86.476 9.06833 86.3811 9.19483C86.2968 9.31079 86.2177 9.42147 86.1439 9.52689C86.0807 9.62176 86.0438 9.69555 86.0332 9.74826C86.0965 9.80097 86.2441 9.82205 86.476 9.81151C86.7079 9.79042 86.9767 9.75353 87.2824 9.70082C87.5986 9.64811 87.9307 9.57959 88.2786 9.49526C88.637 9.41093 88.9743 9.33714 89.2906 9.27389C89.6068 9.2001 89.8809 9.14212 90.1128 9.09996C90.3552 9.05779 90.5186 9.04198 90.603 9.05252C90.603 9.06306 90.5977 9.06833 90.5872 9.06833C90.545 9.08941 90.429 9.13685 90.2393 9.21064C90.0495 9.28443 89.8229 9.37403 89.5594 9.47945C89.3064 9.57432 89.027 9.67974 88.7213 9.79569C88.4261 9.90111 88.1468 10.0013 87.8833 10.0961C87.6197 10.191 87.3931 10.2753 87.2033 10.3491C87.0136 10.4229 86.8976 10.4651 86.8555 10.4756C86.5392 10.6021 86.2019 10.6232 85.8435 10.5389C85.4218 10.4545 85.095 10.2437 84.8631 9.90638C84.842 9.86421 84.821 9.81678 84.7999 9.76407C84.7788 9.71136 84.7577 9.65866 84.7366 9.60595C84.7155 9.36349 84.8051 9.09995 85.0054 8.81533C85.2057 8.52017 85.4429 8.23555 85.717 7.96147C85.9911 7.68739 86.2651 7.43967 86.5392 7.2183C86.8238 6.99692 87.0294 6.83353 87.1559 6.72812C87.2297 6.67541 87.3456 6.61216 87.5038 6.53837C87.6619 6.45404 87.8358 6.38025 88.0256 6.317C88.2259 6.25375 88.4367 6.20104 88.6581 6.15887C88.89 6.11671 89.1113 6.10617 89.3222 6.12725C89.4803 6.14833 89.5752 6.22212 89.6068 6.34862C89.649 6.46458 89.7017 6.58054 89.7649 6.69649C89.8176 6.78082 89.923 6.82299 90.0812 6.82299Z" fill="#48198F"/>
<path d="M91.4298 9.73245C91.493 9.78515 91.6406 9.80624 91.8725 9.79569C92.1044 9.77461 92.3732 9.73772 92.6789 9.68501C92.9952 9.62176 93.3272 9.55324 93.6751 9.47945C94.0335 9.39512 94.3709 9.32133 94.6871 9.25808C95.0033 9.18429 95.2774 9.12631 95.5093 9.08414C95.7518 9.04198 95.9152 9.02616 95.9995 9.03671L95.9837 9.05252C95.9415 9.0736 95.8256 9.12104 95.6358 9.19483C95.4461 9.26862 95.2194 9.35822 94.9559 9.46364C94.7029 9.55851 94.4236 9.66393 94.1179 9.77988C93.8227 9.8853 93.5433 9.98544 93.2798 10.0803C93.0163 10.1752 92.7896 10.2595 92.5999 10.3333C92.4101 10.4071 92.2942 10.4493 92.252 10.4598C92.0939 10.5231 91.9305 10.56 91.7618 10.5705C91.5932 10.5705 91.4192 10.5547 91.24 10.5231C90.8184 10.4282 90.4916 10.2174 90.2597 9.89057C90.2386 9.8484 90.2175 9.80097 90.1964 9.74826C90.1753 9.69555 90.1543 9.64284 90.1332 9.59014C90.1121 9.34768 90.2017 9.07887 90.402 8.78371C90.6023 8.48855 90.8394 8.2092 91.1135 7.94566C91.3876 7.67158 91.6617 7.42386 91.9358 7.20248C92.2204 6.98111 92.4259 6.81772 92.5524 6.7123C92.6262 6.64906 92.7422 6.58054 92.9003 6.50675C93.0584 6.42241 93.2324 6.34862 93.4221 6.28537C93.6224 6.22212 93.8332 6.17469 94.0546 6.14306C94.2865 6.1009 94.5079 6.09035 94.7187 6.11144C94.8768 6.13252 94.9717 6.20631 95.0033 6.33281C95.0455 6.44877 95.0982 6.56472 95.1615 6.68068C95.2036 6.74393 95.309 6.7861 95.4777 6.80718C95.562 6.85989 95.6358 6.92313 95.6991 6.99693C95.7623 7.07072 95.794 7.17086 95.794 7.29736C95.7518 7.3079 95.7202 7.35007 95.6991 7.42386C95.6358 7.51873 95.5831 7.59779 95.541 7.66104C95.5093 7.72429 95.4777 7.78227 95.4461 7.83497C95.4145 7.87714 95.3723 7.92458 95.3196 7.97728C95.2774 8.02999 95.2194 8.09851 95.1456 8.18284C95.0192 8.2988 94.8031 8.37786 94.4974 8.42003C94.2022 8.45165 93.9018 8.47274 93.596 8.48328C93.2376 8.49382 92.8423 8.48855 92.4101 8.46746H92.3943C92.2994 8.56234 92.194 8.67302 92.0781 8.79952C91.9727 8.91548 91.8725 9.03671 91.7776 9.1632C91.6933 9.27916 91.6142 9.38985 91.5405 9.49526C91.4772 9.60068 91.4403 9.67974 91.4298 9.73245ZM93.3747 8.21447C93.965 7.71902 94.276 7.35006 94.3076 7.10761C94.0757 7.19194 93.8016 7.34479 93.4854 7.56617C93.1797 7.777 92.8898 8.00891 92.6157 8.26191C92.7106 8.28299 92.8212 8.28826 92.9477 8.27772C93.0848 8.25663 93.2271 8.23555 93.3747 8.21447Z" fill="#48198F"/>
<path d="M0.0158122 13.6618C0.0368953 13.5775 0.0579782 13.4932 0.0790612 13.4088C0.0896027 13.3245 0.105415 13.2402 0.126498 13.1558C0.179206 12.9345 0.226642 12.7184 0.268808 12.5075C0.310974 12.2967 0.358411 12.0859 0.411119 11.875C0.453285 11.7169 0.500721 11.5588 0.553429 11.4007C0.606136 11.2531 0.637761 11.1055 0.648303 10.9579C0.679927 10.5573 0.774801 10.1884 0.932923 9.85107C1.0805 9.5032 1.23863 9.15533 1.40729 8.80746C1.71299 8.14334 2.01343 7.48977 2.30859 6.84674C2.60375 6.2037 2.90418 5.55013 3.20989 4.88602C3.45234 4.36948 3.68953 3.85822 3.92144 3.35223C4.16389 2.84624 4.40635 2.34024 4.6488 1.83425C4.71205 1.68667 4.78057 1.53382 4.85436 1.37569C4.92815 1.21757 5.00721 1.06999 5.09155 0.932952C5.13371 0.880244 5.18115 0.827537 5.23386 0.774829C5.29711 0.722122 5.35508 0.669414 5.40779 0.616707C5.44996 0.648331 5.48685 0.685227 5.51848 0.727392C5.5501 0.759017 5.587 0.801183 5.62916 0.85389C5.65025 0.832808 5.66606 0.822266 5.6766 0.822266C5.72931 0.906598 5.77674 0.99093 5.81891 1.07526C5.87162 1.14905 5.92433 1.22284 5.97703 1.29663C6.04028 1.38097 6.06664 1.50219 6.05609 1.66032C6.04555 1.8079 6.00866 1.93967 5.94541 2.05562C5.80837 2.26645 5.69768 2.48782 5.61335 2.71974C5.53956 2.95165 5.51321 3.18883 5.53429 3.43129C5.53429 3.47345 5.52375 3.51035 5.50267 3.54197C5.49212 3.5736 5.48158 3.60522 5.47104 3.63685C5.32346 3.97418 5.18115 4.3115 5.04411 4.64883C4.90707 4.98616 4.7753 5.32876 4.6488 5.67663C4.56447 5.898 4.48014 6.11937 4.39581 6.34074C4.32202 6.56212 4.2166 6.78349 4.07956 7.00486C3.94252 7.24731 3.82657 7.50031 3.73169 7.76385C3.63682 8.01684 3.5314 8.26984 3.41545 8.52284C3.39436 8.54392 3.38382 8.57027 3.38382 8.6019C3.38382 8.63352 3.38382 8.66515 3.38382 8.69677C3.39436 8.70731 3.39964 8.71258 3.39964 8.71258C3.41018 8.71258 3.42072 8.71785 3.43126 8.7284C3.70534 8.3489 3.97415 7.96414 4.23769 7.5741C4.51176 7.18406 4.78584 6.7993 5.05992 6.41981C5.22859 6.17735 5.40252 5.94017 5.58173 5.70825C5.76093 5.47634 5.94014 5.23916 6.11934 4.9967C6.17205 4.91237 6.26165 4.78587 6.38815 4.61721C6.52519 4.44854 6.67277 4.26407 6.8309 4.06378C6.99956 3.85295 7.17349 3.63685 7.3527 3.41548C7.54245 3.18356 7.71638 2.97273 7.8745 2.78299C8.03263 2.5827 8.16967 2.40876 8.28562 2.26118C8.41212 2.1136 8.50172 2.01346 8.55443 1.96075C8.73364 1.74992 8.91284 1.54436 9.09205 1.34407C9.28179 1.13324 9.46627 0.927681 9.64548 0.727392C9.69818 0.674685 9.75089 0.637789 9.8036 0.616707C9.86685 0.585082 9.9301 0.548187 9.99335 0.50602C10.0039 0.421689 10.0619 0.321545 10.1673 0.205588C10.2727 0.0896313 10.3676 0.0263824 10.4519 0.0158411C10.5046 0.00529907 10.5468 0.00529907 10.5784 0.0158411C10.6206 0.0263824 10.6311 0.0421945 10.61 0.0632772C10.6627 0.158151 10.7049 0.253024 10.7365 0.347898C10.7787 0.43223 10.8156 0.527104 10.8472 0.632519C10.8683 0.653602 10.8736 0.685227 10.863 0.727392C10.8525 0.759017 10.8419 0.795912 10.8314 0.838078C10.7471 1.05945 10.6416 1.26501 10.5152 1.45476C10.3887 1.6445 10.2622 1.83425 10.1357 2.024C10.0092 2.2032 9.8932 2.38768 9.78779 2.57743C9.68237 2.76717 9.56642 2.95165 9.43992 3.13086C9.12367 3.54197 8.79688 3.94255 8.45956 4.33259C8.13277 4.72262 7.81653 5.11793 7.51082 5.51851C7.46866 5.57121 7.41068 5.65555 7.33689 5.7715C7.2631 5.87692 7.18931 5.99287 7.11552 6.11937C7.04172 6.24587 6.96793 6.3671 6.89414 6.48306C6.82035 6.58847 6.76238 6.66753 6.72021 6.72024C6.60425 6.84674 6.4883 6.97324 6.37234 7.09973C6.25638 7.22623 6.14043 7.36327 6.02447 7.51085C5.91905 7.63735 5.82418 7.76912 5.73985 7.90616C5.66606 8.03266 5.587 8.15388 5.50267 8.26984C5.41833 8.37525 5.32873 8.48067 5.23386 8.58609C5.14953 8.68096 5.06519 8.7811 4.98086 8.88652C4.51703 9.48738 4.05848 10.1041 3.60519 10.7366C3.28895 11.1793 2.9727 11.6168 2.65646 12.049C2.34021 12.4917 2.02924 12.9503 1.72354 13.4246C1.54433 13.7093 1.34931 13.9148 1.13848 14.0413C0.927652 14.1784 0.70101 14.2574 0.458555 14.2785C0.384765 14.289 0.316245 14.2574 0.252996 14.1836C0.189747 14.1098 0.131769 14.0466 0.0790612 13.9939C0.0579782 13.9728 0.0474367 13.9464 0.0474367 13.9148C0.0368952 13.8937 0.021083 13.8726 0 13.8516C0 13.8305 0.00527076 13.7989 0.0158122 13.7567C0.0158122 13.7251 0.0158122 13.6934 0.0158122 13.6618Z" fill="#FFFEFA"/>
<path d="M10.3805 9.64551C10.3805 9.66659 10.4806 9.62969 10.6809 9.53482C10.8918 9.43995 11.1237 9.32399 11.3767 9.18695C11.6613 9.03937 11.9933 8.86016 12.3728 8.64933V8.82327C12.0461 9.06572 11.7351 9.27655 11.4399 9.45576C11.1869 9.60334 10.9339 9.74038 10.6809 9.86688C10.4279 9.98283 10.2382 10.0197 10.1117 9.97756C9.92194 9.92486 9.80599 9.8089 9.76382 9.62969C9.7322 9.45049 9.72693 9.29764 9.74801 9.17114C9.48447 9.40305 9.23675 9.60334 9.00483 9.772C8.78346 9.94067 8.59899 10.0672 8.4514 10.1515C8.32491 10.2147 8.20368 10.2885 8.08772 10.3729C7.97177 10.4467 7.84527 10.5099 7.70823 10.5626C7.39198 10.6891 7.05465 10.7102 6.69624 10.6259C6.27458 10.5415 5.9478 10.3307 5.71588 9.99338C5.6948 9.95121 5.67372 9.90377 5.65263 9.85107C5.63155 9.79836 5.61047 9.74565 5.58939 9.69294C5.5683 9.45049 5.65791 9.18695 5.85819 8.90233C6.05848 8.60717 6.29567 8.32255 6.56975 8.04847C6.84382 7.77439 7.1179 7.52666 7.39198 7.30529C7.6766 7.08392 7.88216 6.92053 8.00866 6.81511C8.08245 6.76241 8.19841 6.69916 8.35653 6.62537C8.51465 6.54103 8.68859 6.46724 8.87834 6.40399C9.07862 6.34074 9.28945 6.28804 9.51083 6.24587C9.74274 6.2037 9.96411 6.19316 10.1749 6.21425C10.3331 6.23533 10.4279 6.30912 10.4596 6.43562C10.5017 6.55157 10.5544 6.66753 10.6177 6.78349C10.6282 6.80457 10.644 6.82565 10.6651 6.84674C10.7178 6.89944 10.7758 6.99959 10.8391 7.14717C10.9128 7.28421 10.9392 7.45814 10.9181 7.66897C10.9181 7.71114 10.9128 7.75858 10.9023 7.81128C10.8918 7.85345 10.876 7.90089 10.8549 7.95359C10.8443 7.96414 10.8391 7.97468 10.8391 7.98522C10.8391 7.98522 10.8338 7.99049 10.8232 8.00103C10.7811 8.13807 10.7336 8.29619 10.6809 8.4754C10.6388 8.6546 10.5913 8.82854 10.5386 8.9972C10.4965 9.16587 10.4596 9.31345 10.4279 9.43995C10.3963 9.5559 10.3805 9.62442 10.3805 9.64551ZM7.07574 9.55063C7.22332 9.54009 7.43942 9.43995 7.72404 9.2502C8.0192 9.04991 8.31436 8.82327 8.60953 8.57027C8.90469 8.30674 9.16296 8.04847 9.38433 7.79547C9.61624 7.53193 9.74274 7.33692 9.76382 7.21042C9.64786 7.17879 9.53191 7.16298 9.41595 7.16298C9.31054 7.16298 9.19458 7.17879 9.06808 7.21042C8.94158 7.2315 8.82036 7.27894 8.7044 7.35273C8.63061 7.40544 8.50411 7.49504 8.32491 7.62154C8.15624 7.74804 7.97177 7.89035 7.77148 8.04847C7.58173 8.20659 7.39198 8.37526 7.20224 8.55446C7.02303 8.72312 6.88599 8.88125 6.79112 9.02883C6.69624 9.17641 6.66462 9.29764 6.69624 9.39251C6.72787 9.48738 6.85437 9.54009 7.07574 9.55063Z" fill="#FFFEFA"/>
<path d="M19.4053 7.38435C19.0891 7.62681 18.7939 7.84818 18.5199 8.04847C18.2774 8.22767 18.0349 8.39634 17.7925 8.55446C17.5606 8.70204 17.3708 8.80219 17.2233 8.85489C17.1916 8.87598 17.1547 8.89179 17.1126 8.90233C17.0809 8.90233 17.0493 8.91287 17.0177 8.93395C16.8701 9.10262 16.7173 9.25547 16.5591 9.39251C16.401 9.51901 16.264 9.61388 16.148 9.67713C16.0637 9.7193 15.9214 9.772 15.7211 9.83525C15.5313 9.8985 15.31 9.96175 15.057 10.025C14.8145 10.0882 14.5615 10.141 14.298 10.1831C14.045 10.2253 13.8183 10.2464 13.6181 10.2464C13.5337 10.2464 13.4494 10.2411 13.3651 10.2306C13.2807 10.22 13.2122 10.2042 13.1595 10.1831H13.0963C13.0435 10.1831 12.9592 10.2147 12.8433 10.278C12.7273 10.3412 12.5797 10.4941 12.4005 10.7366C12.3478 10.7998 12.2582 10.9105 12.1317 11.0686C12.0158 11.2267 11.8787 11.4112 11.7206 11.622C11.5835 11.8012 11.4412 11.9857 11.2937 12.1755C11.1461 12.3758 11.009 12.5602 10.8825 12.7289C10.756 12.8976 10.6454 13.0451 10.5505 13.1716C10.4451 13.3087 10.3765 13.4036 10.3449 13.4563C10.3449 13.4563 10.3344 13.4668 10.3133 13.4879C10.2922 13.5406 10.2606 13.5828 10.2184 13.6144L10.1868 13.646C10.1446 13.6776 10.1025 13.7093 10.0603 13.7409C10.0076 13.7725 9.95489 13.7883 9.90218 13.7883H9.88637C9.80203 13.7778 9.72824 13.762 9.66499 13.7409C9.5912 13.7303 9.49633 13.704 9.38037 13.6618C9.31712 13.6407 9.25388 13.6091 9.19063 13.5669C9.12738 13.5248 9.0694 13.4773 9.01669 13.4246C8.83749 13.2243 8.82694 13.0241 8.98507 12.8238C9.04832 12.7394 9.21698 12.5233 9.49106 12.1755C9.7546 11.8381 10.0603 11.4376 10.4082 10.9737C10.6506 10.6575 10.8931 10.3412 11.1355 10.025C11.378 9.70876 11.5994 9.41886 11.7996 9.15533C12.0105 8.89179 12.1844 8.67042 12.3215 8.49121C12.469 8.30146 12.5639 8.18551 12.6061 8.14334C12.6904 8.03793 12.7747 7.93251 12.8591 7.8271C12.9434 7.72168 13.033 7.611 13.1279 7.49504C13.17 7.44233 13.2069 7.38962 13.2386 7.33692C13.2807 7.28421 13.3229 7.2315 13.3651 7.17879L13.8552 6.40399L13.9027 6.38818C13.9554 6.3671 14.0134 6.35129 14.0766 6.34074C14.1504 6.3302 14.2189 6.3302 14.2822 6.34074C14.4614 6.34074 14.6353 6.38291 14.804 6.46724C14.8461 6.49887 14.8989 6.51468 14.9621 6.51468C15.0148 6.51468 15.0939 6.4936 15.1993 6.45143C15.2415 6.44089 15.2783 6.43035 15.31 6.41981C15.3416 6.40926 15.3785 6.40399 15.4207 6.40399C15.505 6.38291 15.584 6.37237 15.6578 6.37237C15.7316 6.37237 15.8054 6.37237 15.8792 6.37237C16.2692 6.37237 16.6329 6.45143 16.9703 6.60955C17.1178 6.69389 17.2338 6.79403 17.3181 6.90999C17.413 7.02594 17.4815 7.13663 17.5237 7.24204C17.5764 7.358 17.6133 7.46869 17.6344 7.5741C17.6555 7.67952 17.6607 7.75858 17.6502 7.81128V7.8271V7.84291C17.6291 7.93778 17.5922 8.03266 17.5395 8.12753C17.4973 8.2224 17.4499 8.31201 17.3972 8.39634C17.6607 8.29092 17.9295 8.16443 18.2036 8.01684C18.2458 7.99576 18.3301 7.95359 18.4566 7.89035C18.5831 7.81656 18.7201 7.74276 18.8677 7.66897C19.0364 7.58464 19.2156 7.48977 19.4053 7.38435ZM15.1044 7.28948C15.0095 7.36327 14.883 7.50558 14.7249 7.71641C14.5773 7.9167 14.4298 8.12753 14.2822 8.3489C14.1346 8.55973 14.0028 8.74948 13.8869 8.91814C13.7815 9.08681 13.7287 9.17114 13.7287 9.17114C13.929 9.1606 14.1768 9.11316 14.4719 9.02883C14.7671 8.93395 15.0412 8.79692 15.2942 8.61771C15.389 8.54392 15.505 8.43323 15.642 8.28565C15.7896 8.12753 15.9056 7.96941 15.9899 7.81128C16.0848 7.65316 16.1217 7.51085 16.1006 7.38435C16.09 7.24731 15.9741 7.16298 15.7527 7.13136C15.6051 7.11027 15.4839 7.11027 15.389 7.13136C15.2942 7.15244 15.1993 7.20515 15.1044 7.28948Z" fill="#FFFEFA"/>
<path d="M19.0026 10.6101C18.581 10.5257 18.2542 10.3149 18.0223 9.97756C18.0012 9.9354 17.9801 9.88796 17.959 9.83525C17.9379 9.78255 17.9169 9.72984 17.8958 9.67713C17.8747 9.43468 17.9643 9.17114 18.1646 8.88652C18.3649 8.59136 18.602 8.30673 18.8761 8.03266C19.1502 7.75858 19.4243 7.51085 19.6984 7.28948C19.983 7.06811 20.1885 6.90999 20.315 6.81511C20.3888 6.75186 20.5048 6.68334 20.6629 6.60955C20.821 6.52522 20.995 6.45143 21.1847 6.38818C21.385 6.32493 21.5958 6.27222 21.8172 6.23006C22.0491 6.18789 22.2705 6.17735 22.4813 6.19843C22.6394 6.23006 22.7343 6.30912 22.7659 6.43562C22.8081 6.55157 22.8608 6.66753 22.9241 6.78349C22.9873 6.8889 23.1402 6.95742 23.3826 6.98905C23.6251 7.01013 23.8833 7.02067 24.1574 7.02067C24.4315 7.01013 24.6792 6.99432 24.9006 6.97323C25.1325 6.94161 25.2643 6.9258 25.2959 6.9258C25.0324 6.99959 24.7846 7.06811 24.5527 7.13136C24.3524 7.18406 24.1574 7.23677 23.9677 7.28948C23.7779 7.34219 23.6409 7.37908 23.5566 7.40017C23.5355 7.40017 23.5144 7.41598 23.4933 7.4476C23.4828 7.47923 23.4722 7.50558 23.4617 7.52666C23.2614 7.83237 23.0348 8.12753 22.7818 8.41215C22.5288 8.69677 22.2758 8.95504 22.0228 9.18695C21.7698 9.40832 21.5273 9.60334 21.2954 9.772C21.074 9.94067 20.8948 10.0619 20.7578 10.1357C20.6313 10.2095 20.5101 10.2885 20.3941 10.3729C20.2781 10.4467 20.1517 10.5099 20.0146 10.5626C19.8565 10.6259 19.6931 10.6628 19.5244 10.6733C19.3558 10.6733 19.1818 10.6522 19.0026 10.6101ZM22.0702 7.19461C21.9648 7.09973 21.8067 7.08392 21.5958 7.14717C21.3955 7.19988 21.1742 7.30002 20.9317 7.4476C20.6893 7.59518 20.4468 7.77439 20.2044 7.98522C19.9619 8.19605 19.7511 8.40688 19.5719 8.61771C19.4032 8.82854 19.282 9.02356 19.2082 9.20276C19.1344 9.37143 19.1502 9.49793 19.2556 9.58226C19.3083 9.62442 19.4296 9.61388 19.6193 9.55063C19.8196 9.47684 20.041 9.37143 20.2834 9.23439C20.5364 9.08681 20.7894 8.91814 21.0424 8.7284C21.3059 8.53865 21.5326 8.3489 21.7223 8.15915C21.9121 7.96941 22.0439 7.7902 22.1176 7.62154C22.202 7.44233 22.1862 7.30002 22.0702 7.19461Z" fill="#FFFEFA"/>
<path d="M29.1529 8.12753C29.1739 8.12753 29.2003 8.12753 29.2319 8.12753C29.2741 8.11699 29.3215 8.10118 29.3742 8.08009C28.7839 8.47013 28.2358 8.83381 27.7298 9.17114C27.5189 9.31872 27.3028 9.46103 27.0815 9.59807C26.8706 9.73511 26.6756 9.86688 26.4964 9.99338C26.3172 10.1093 26.1591 10.2147 26.022 10.3096C25.885 10.394 25.7901 10.4519 25.7374 10.4836C25.6004 10.5679 25.4581 10.6311 25.3105 10.6733C25.1734 10.7049 25.0311 10.7049 24.8836 10.6733C24.736 10.6417 24.6253 10.5521 24.5515 10.4045C24.4777 10.2464 24.4777 10.0882 24.5515 9.93013C24.6885 9.61388 24.8572 9.31872 25.0575 9.04464C25.2683 8.76002 25.4897 8.48067 25.7216 8.20659C25.8165 8.08009 25.9377 7.90616 26.0853 7.68479C26.2434 7.46341 26.3752 7.28421 26.4806 7.14717C26.3646 7.12609 26.2381 7.12609 26.1011 7.14717C25.9746 7.16825 25.8639 7.23677 25.769 7.35273C25.6742 7.50031 25.5371 7.69533 25.3579 7.93778C25.1893 8.1697 25.0048 8.41742 24.8045 8.68096C24.6147 8.93395 24.425 9.17641 24.2352 9.40832C24.056 9.64024 23.9085 9.82471 23.7925 9.96175L23.5553 10.2464C23.4077 10.394 23.2443 10.4994 23.0651 10.5626C22.8965 10.6153 22.7384 10.6522 22.5908 10.6733C22.4116 10.6944 22.2376 10.6891 22.069 10.6575C22.0373 10.6575 22.011 10.6628 21.9899 10.6733C22.0742 10.5573 22.1586 10.4467 22.2429 10.3412C22.3272 10.2358 22.4116 10.1304 22.4959 10.025C22.6013 9.86688 22.7436 9.65605 22.9228 9.39251C23.1126 9.12897 23.3076 8.86016 23.5079 8.58609C23.7187 8.30146 23.919 8.03266 24.1087 7.77966C24.2985 7.51612 24.4513 7.30002 24.5673 7.13136C24.4303 7.07865 24.3038 7.02067 24.1878 6.95742C24.0824 6.88363 24.0033 6.77295 23.9506 6.62537C23.9295 6.5832 23.9137 6.54103 23.9032 6.49887C23.8926 6.44616 23.8979 6.39345 23.919 6.34074C23.9295 6.30912 23.9612 6.27749 24.0139 6.24587C24.0666 6.2037 24.1088 6.18262 24.1404 6.18262C24.7518 6.2037 25.3632 6.2037 25.9746 6.18262C26.586 6.16154 27.208 6.09302 27.8404 5.97706C28.3254 5.88219 28.6996 6.01923 28.9631 6.38818C28.9209 6.43035 28.8788 6.47251 28.8366 6.51468C28.805 6.55685 28.7681 6.58847 28.7259 6.60955C28.5362 6.71497 28.3781 6.83619 28.2516 6.97323C28.1251 7.09973 28.0038 7.24731 27.8879 7.41598C27.8035 7.53193 27.6981 7.66897 27.5716 7.8271C27.4557 7.98522 27.3292 8.14861 27.1921 8.31728C27.0656 8.4754 26.9391 8.63352 26.8126 8.79164C26.6967 8.93923 26.5965 9.06572 26.5122 9.17114C26.4911 9.19222 26.4648 9.21858 26.4332 9.2502C26.4121 9.28182 26.4121 9.30818 26.4332 9.32926C26.4437 9.35034 26.5491 9.31872 26.7494 9.23439C26.9602 9.15006 27.2027 9.04464 27.4768 8.91814C27.7508 8.79164 28.0355 8.65988 28.3306 8.52284C28.6258 8.37526 28.8735 8.24349 29.0738 8.12753H29.1529Z" fill="#FFFEFA"/>
<path d="M40.1157 0.790641C40.1157 0.811725 40.1104 0.869703 40.0999 0.964577C40.0999 1.05945 40.0893 1.13324 40.0683 1.18595C40.0788 1.21757 40.0735 1.2492 40.0524 1.28082C40.0419 1.31245 40.0261 1.3388 40.005 1.35988C39.9945 1.34934 39.9734 1.37042 39.9418 1.42313C39.9101 1.47584 39.8732 1.53909 39.8311 1.61288C39.7889 1.68667 39.7467 1.76573 39.7046 1.85006C39.673 1.92385 39.6519 1.97656 39.6413 2.00819C39.6202 2.05035 39.5886 2.08725 39.5465 2.11887C39.5148 2.1505 39.4832 2.18739 39.4516 2.22956C39.2408 2.45093 39.0405 2.69865 38.8507 2.97273C38.7558 3.07815 38.6504 3.22573 38.5345 3.41548C38.4185 3.59468 38.3184 3.74226 38.234 3.85822C38.1181 4.03743 37.9969 4.21663 37.8704 4.39584C37.7439 4.57504 37.6121 4.75425 37.475 4.93345C37.4118 5.01779 37.3538 5.10212 37.3011 5.18645C37.2484 5.26024 37.1957 5.3393 37.143 5.42363C36.9954 5.61338 36.8584 5.8084 36.7319 6.00869C36.6054 6.19843 36.4789 6.39345 36.3524 6.59374C36.3418 6.61482 36.2786 6.7097 36.1626 6.87836C36.0572 7.03648 35.9254 7.23677 35.7673 7.47923C35.6092 7.71114 35.4353 7.96941 35.2455 8.25403C35.0558 8.52811 34.8766 8.79691 34.7079 9.06045C34.5392 9.31345 34.3864 9.54009 34.2493 9.74038C34.1229 9.93013 34.0385 10.0619 33.9964 10.1357C33.8488 10.3676 33.6906 10.589 33.522 10.7998C33.3639 11.0212 33.211 11.2478 33.0634 11.4797C32.9791 11.5957 32.8842 11.738 32.7788 11.9067C32.6839 12.0753 32.5838 12.244 32.4784 12.4127C32.373 12.5919 32.2728 12.7605 32.1779 12.9186C32.0831 13.0873 31.9935 13.2349 31.9091 13.3614C31.8248 13.4773 31.7563 13.5933 31.7036 13.7093C31.6509 13.8358 31.5823 13.957 31.498 14.0729C31.4769 14.1256 31.44 14.1678 31.3873 14.1994C31.3452 14.2311 31.303 14.268 31.2608 14.3101H30.5809C30.5282 14.289 30.4702 14.268 30.407 14.2469C30.3543 14.2258 30.3016 14.21 30.2488 14.1994C30.1645 14.1784 30.0749 14.1678 29.98 14.1678C29.8957 14.1678 29.8008 14.1625 29.6954 14.152C29.727 13.9833 29.7481 13.8252 29.7587 13.6776C29.7798 13.5301 29.8061 13.3825 29.8377 13.2349C29.8483 13.14 29.8746 13.0188 29.9168 12.8712C29.959 12.7236 29.9959 12.576 30.0275 12.4285C30.0696 12.2809 30.1065 12.1333 30.1382 11.9857C30.1803 11.8381 30.212 11.7169 30.233 11.622C30.2752 11.348 30.3279 11.0844 30.3912 10.8314C30.4649 10.5784 30.5493 10.3254 30.6442 10.0724C30.7707 9.78782 30.8813 9.49793 30.9762 9.20276C31.0816 8.9076 31.187 8.61244 31.2925 8.31728C31.3135 8.25403 31.3346 8.19078 31.3557 8.12753C31.3768 8.06428 31.3979 8.00103 31.419 7.93778L30.5493 9.1237C30.5177 9.19749 30.4649 9.28182 30.3912 9.3767L28.13 12.8238C28.0878 12.8765 28.0457 12.9186 28.0035 12.9503C27.9508 12.9924 27.8823 13.003 27.7979 12.9819C27.6293 12.9397 27.4922 12.8554 27.3868 12.7289C27.2814 12.6129 27.1918 12.4706 27.118 12.302V12.2545C27.2656 11.8856 27.4132 11.5114 27.5608 11.1319C27.6978 10.7629 27.8401 10.394 27.9877 10.025C28.0299 9.94067 28.072 9.86161 28.1142 9.78782C28.1458 9.71403 28.188 9.63496 28.2407 9.55063C28.3672 9.37143 28.4673 9.18695 28.5411 8.9972C28.6149 8.80746 28.694 8.60717 28.7783 8.39634C28.8521 8.22767 28.9364 8.06955 29.0313 7.92197C29.1262 7.76385 29.2211 7.60572 29.3159 7.4476C29.3686 7.36327 29.4213 7.27894 29.474 7.19461C29.5268 7.09973 29.5795 7.01013 29.6322 6.9258C29.843 6.55685 30.0433 6.19316 30.233 5.83475C30.4333 5.47634 30.6389 5.11793 30.8497 4.75952C31.0078 4.4749 31.1765 4.20082 31.3557 3.93728C31.5349 3.6632 31.7036 3.38912 31.8617 3.11504C32.0198 2.87259 32.1832 2.5827 32.3519 2.24537C32.5311 1.90804 32.6892 1.61288 32.8262 1.35988C32.9 1.23338 32.9844 1.15959 33.0792 1.13851C33.1741 1.11743 33.2637 1.10689 33.348 1.10689C33.4535 1.10689 33.5273 1.14905 33.5694 1.23338C33.6116 1.31772 33.6432 1.41786 33.6643 1.53382C33.7065 1.71302 33.7065 1.89223 33.6643 2.07143C33.6327 2.2401 33.58 2.41403 33.5062 2.59324C33.4429 2.7619 33.3639 2.93057 33.269 3.09923C33.1847 3.25735 33.1056 3.40493 33.0318 3.54197C32.9053 3.78443 32.7683 4.02161 32.6207 4.25353C32.4836 4.48544 32.3466 4.72262 32.2096 4.96508C32.1252 5.11266 32.0304 5.26024 31.9249 5.40782C31.8301 5.5554 31.7405 5.70298 31.6561 5.85056C31.5402 6.02977 31.4348 6.20898 31.3399 6.38818C31.2556 6.56739 31.1554 6.74659 31.0395 6.9258C30.9657 7.04175 30.8971 7.14717 30.8339 7.24204C30.7707 7.33692 30.7074 7.44233 30.6442 7.55829C30.5809 7.6637 30.5229 7.76912 30.4702 7.87453C30.4281 7.97995 30.3806 8.09063 30.3279 8.20659L31.8775 6.26168C31.9197 6.15627 31.9618 6.05612 32.004 5.96125C32.0462 5.86638 32.0883 5.7715 32.1305 5.67663C32.3308 5.3393 32.5311 4.9967 32.7314 4.64883C32.9317 4.30096 33.1372 3.95836 33.348 3.62104C33.4008 3.5367 33.4482 3.4471 33.4904 3.35223C33.5431 3.24681 33.6432 3.19938 33.7908 3.20992C33.8224 3.20992 33.854 3.22046 33.8857 3.24154C33.9173 3.25208 33.9489 3.2679 33.9805 3.28898C34.0332 3.31006 34.0807 3.33114 34.1229 3.35223C34.1756 3.37331 34.223 3.39966 34.2652 3.43129C34.3917 3.51562 34.4391 3.61576 34.4075 3.73172C34.3864 3.84768 34.3758 3.97418 34.3758 4.11122C34.3548 4.3115 34.3126 4.49598 34.2493 4.66464C34.1966 4.83331 34.1281 5.00197 34.0438 5.17064C33.9595 5.41309 33.8593 5.65028 33.7434 5.88219C33.6274 6.1141 33.5273 6.35129 33.4429 6.59374C33.3586 6.77295 33.2901 6.95742 33.2374 7.14717C33.1952 7.32637 33.1425 7.50558 33.0792 7.68479C33.0582 7.73749 33.0476 7.78493 33.0476 7.8271C33.0476 7.85872 33.0371 7.89562 33.016 7.93778C32.9211 8.18024 32.8315 8.42796 32.7472 8.68096C32.6629 8.92341 32.5785 9.16587 32.4942 9.40832C32.4626 9.52428 32.4257 9.64024 32.3835 9.75619C32.3519 9.86161 32.3255 9.97229 32.3044 10.0882C32.3782 10.0039 32.4415 9.91959 32.4942 9.83525C32.5469 9.74038 32.6101 9.65078 32.6839 9.56645C32.7261 9.5032 32.7735 9.43995 32.8262 9.3767C32.8895 9.31345 32.9475 9.2502 33.0002 9.18695C33.2426 8.79691 33.4956 8.40688 33.7592 8.01684C34.0227 7.62681 34.2915 7.23677 34.5656 6.84674C34.6815 6.64645 34.8028 6.45143 34.9293 6.26168C35.0663 6.06139 35.1981 5.86111 35.3246 5.66082C35.3351 5.65028 35.3878 5.58176 35.4827 5.45526C35.5776 5.31822 35.683 5.16537 35.799 4.9967C35.9254 4.82804 36.0467 4.66464 36.1626 4.50652C36.2786 4.33786 36.3682 4.21136 36.4314 4.12703C36.4736 4.08486 36.5369 4.0058 36.6212 3.88984C36.7161 3.77389 36.8109 3.65793 36.9058 3.54197C37.0112 3.41548 37.1008 3.30479 37.1746 3.20992C37.2589 3.1045 37.3117 3.04125 37.3327 3.02017C37.3644 2.98855 37.4276 2.91475 37.5225 2.7988C37.6279 2.68284 37.7386 2.56161 37.8545 2.43512C37.9705 2.30862 38.0759 2.19266 38.1708 2.08725C38.2657 1.98183 38.3236 1.91858 38.3447 1.8975C38.408 1.82371 38.4712 1.75519 38.5345 1.69194C38.6083 1.61815 38.6768 1.54436 38.74 1.47057C38.7611 1.44949 38.8138 1.38624 38.8982 1.28082C38.9825 1.16487 39.0774 1.04364 39.1828 0.917139C39.2882 0.790641 39.3936 0.679955 39.499 0.585082C39.6044 0.479667 39.6888 0.421688 39.752 0.411147C39.7942 0.400606 39.8363 0.368981 39.8785 0.316274C39.9207 0.263566 39.9576 0.21613 39.9892 0.173963C40.0103 0.15288 40.0366 0.131797 40.0683 0.110714C40.0999 0.0896316 40.1421 0.0580072 40.1948 0.0158411C40.1631 0.100173 40.1368 0.189775 40.1157 0.284649C40.1052 0.368981 40.0946 0.453313 40.0841 0.537645C40.0841 0.611436 40.0841 0.674685 40.0841 0.727392C40.0841 0.769558 40.0946 0.790641 40.1157 0.790641Z" fill="#FFFEFA"/>
<path d="M40.1119 9.64551C40.1119 9.66659 40.212 9.62969 40.4123 9.53482C40.6231 9.43995 40.855 9.32399 41.108 9.18695C41.3927 9.03937 41.7247 8.86016 42.1042 8.64933V8.82327C41.7774 9.06572 41.4665 9.27655 41.1713 9.45576C40.9183 9.60334 40.6653 9.74038 40.4123 9.86688C40.1593 9.98283 39.9696 10.0197 39.8431 9.97756C39.6533 9.92486 39.5374 9.8089 39.4952 9.62969C39.4636 9.45049 39.4583 9.29764 39.4794 9.17114C39.2158 9.40305 38.9681 9.60334 38.7362 9.772C38.5148 9.94067 38.3304 10.0672 38.1828 10.1515C38.0563 10.2147 37.935 10.2885 37.8191 10.3729C37.7031 10.4467 37.5766 10.5099 37.4396 10.5626C37.1234 10.6891 36.786 10.7102 36.4276 10.6259C36.006 10.5415 35.6792 10.3307 35.4473 9.99338C35.4262 9.95121 35.4051 9.90377 35.384 9.85107C35.3629 9.79836 35.3418 9.74565 35.3208 9.69294C35.2997 9.45049 35.3893 9.18695 35.5896 8.90233C35.7899 8.60717 36.027 8.32255 36.3011 8.04847C36.5752 7.77439 36.8493 7.52666 37.1233 7.30529C37.408 7.08392 37.6135 6.92053 37.74 6.81511C37.8138 6.76241 37.9298 6.69916 38.0879 6.62537C38.246 6.54103 38.42 6.46724 38.6097 6.40399C38.81 6.34074 39.0208 6.28804 39.2422 6.24587C39.4741 6.2037 39.6955 6.19316 39.9063 6.21425C40.0644 6.23533 40.1593 6.30912 40.1909 6.43562C40.2331 6.55157 40.2858 6.66753 40.3491 6.78349C40.3596 6.80457 40.3754 6.82565 40.3965 6.84674C40.4492 6.89944 40.5072 6.99959 40.5704 7.14717C40.6442 7.28421 40.6706 7.45814 40.6495 7.66897C40.6495 7.71114 40.6442 7.75858 40.6337 7.81128C40.6231 7.85345 40.6073 7.90089 40.5862 7.95359C40.5757 7.96414 40.5704 7.97468 40.5704 7.98522C40.5704 7.98522 40.5652 7.99049 40.5546 8.00103C40.5124 8.13807 40.465 8.29619 40.4123 8.4754C40.3701 8.6546 40.3227 8.82854 40.27 8.9972C40.2278 9.16587 40.1909 9.31345 40.1593 9.43995C40.1277 9.5559 40.1119 9.62442 40.1119 9.64551ZM36.8071 9.55063C36.9547 9.54009 37.1708 9.43995 37.4554 9.2502C37.7506 9.04991 38.0457 8.82327 38.3409 8.57027C38.6361 8.30674 38.8943 8.04847 39.1157 7.79547C39.3476 7.53193 39.4741 7.33692 39.4952 7.21042C39.3792 7.17879 39.2633 7.16298 39.1473 7.16298C39.0419 7.16298 38.9259 7.17879 38.7995 7.21042C38.673 7.2315 38.5517 7.27894 38.4358 7.35273C38.362 7.40544 38.2355 7.49504 38.0563 7.62154C37.8876 7.74804 37.7031 7.89035 37.5028 8.04847C37.3131 8.20659 37.1234 8.37526 36.9336 8.55446C36.7544 8.72312 36.6174 8.88125 36.5225 9.02883C36.4276 9.17641 36.396 9.29764 36.4276 9.39251C36.4592 9.48738 36.5857 9.54009 36.8071 9.55063Z" fill="#FFFEFA"/>
<path d="M48.2828 7.06811C48.3145 7.07865 48.325 7.09973 48.3145 7.13136C48.3145 7.15244 48.2987 7.16298 48.267 7.16298L47.7769 7.21042C47.6925 7.22096 47.6082 7.2315 47.5239 7.24204C47.4395 7.24204 47.3552 7.25259 47.2709 7.27367C47.1022 7.29475 46.9335 7.32638 46.7649 7.36854C46.6068 7.41071 46.4486 7.45814 46.2905 7.51085C46.1218 7.56356 45.969 7.61627 45.8319 7.66897C45.5052 7.97468 45.1678 8.29092 44.82 8.61771C44.4721 8.9445 44.1506 9.24493 43.8554 9.51901C43.5603 9.79309 43.3073 10.0303 43.0964 10.2306C42.8856 10.4203 42.7591 10.531 42.7169 10.5626C42.5588 10.6891 42.3849 10.7998 42.1951 10.8947C42.1213 10.9263 42.0423 10.921 41.9579 10.8789C41.8736 10.8578 41.7946 10.8209 41.7208 10.7682C41.647 10.726 41.5679 10.6944 41.4836 10.6733C41.2306 10.589 41.1094 10.4256 41.1199 10.1831C41.1199 10.0566 41.1041 9.91431 41.0725 9.75619C41.0935 9.67186 41.141 9.53482 41.2148 9.34507C41.2886 9.15533 41.3729 8.9445 41.4678 8.71258C41.5626 8.48067 41.6628 8.23822 41.7682 7.98522C41.8842 7.73222 41.9896 7.50031 42.0844 7.28948C42.1793 7.06811 42.2636 6.88363 42.3374 6.73605C42.4112 6.57793 42.4587 6.48305 42.4797 6.45143C42.5219 6.39872 42.5641 6.35656 42.6062 6.32493C42.659 6.29331 42.7275 6.29858 42.8118 6.34074C42.8961 6.39345 42.991 6.42508 43.0964 6.43562C43.2018 6.44616 43.302 6.46197 43.3969 6.48306C43.5234 6.51468 43.6077 6.5832 43.6499 6.68861C43.7026 6.78349 43.7026 6.8889 43.6499 7.00486C43.6182 7.08919 43.5603 7.20515 43.4759 7.35273C43.4021 7.48977 43.3231 7.64262 43.2387 7.81128C43.1544 7.96941 43.0701 8.12753 42.9857 8.28565C42.9014 8.44377 42.8329 8.57554 42.7802 8.68096L42.8276 8.7284L43.2229 8.36471L44.9781 6.62537L45.7529 5.92963C45.7951 5.88746 45.8425 5.87165 45.8952 5.88219C46.0533 5.92435 46.2062 5.97179 46.3538 6.0245C46.5119 6.07721 46.6384 6.17735 46.7332 6.32493C46.7754 6.37764 46.786 6.44616 46.7649 6.53049C46.7438 6.61482 46.7227 6.69388 46.7016 6.76768C46.67 6.85201 46.612 6.93634 46.5277 7.02067L46.3379 7.21042C46.4961 7.16825 46.6542 7.13663 46.8123 7.11554C46.9704 7.08392 47.1338 7.05757 47.3025 7.03648C47.3868 7.02594 47.4712 7.02067 47.5555 7.02067C47.6398 7.01013 47.7241 7.01013 47.8085 7.02067C47.8928 7.02067 47.9719 7.02594 48.0457 7.03648C48.1195 7.04703 48.1985 7.05757 48.2828 7.06811Z" fill="#FFFEFA"/>
<path d="M47.3796 9.74038C47.4428 9.79309 47.5904 9.81417 47.8223 9.80363C48.0542 9.78255 48.323 9.74565 48.6287 9.69294C48.945 9.62969 49.277 9.56117 49.6249 9.48738C49.9833 9.40305 50.3207 9.32926 50.6369 9.26601C50.9531 9.19222 51.2272 9.13424 51.4591 9.09208C51.7016 9.04991 51.865 9.0341 51.9493 9.04464L51.9335 9.06045C51.8913 9.08154 51.7754 9.12897 51.5856 9.20276C51.3959 9.27655 51.1692 9.36616 50.9057 9.47157C50.6527 9.56645 50.3734 9.67186 50.0677 9.78782C49.7725 9.89323 49.4931 9.99338 49.2296 10.0882C48.9661 10.1831 48.7394 10.2675 48.5497 10.3412C48.3599 10.415 48.244 10.4572 48.2018 10.4677C48.0437 10.531 47.8803 10.5679 47.7116 10.5784C47.543 10.5784 47.369 10.5626 47.1898 10.531C46.7682 10.4361 46.4414 10.2253 46.2095 9.8985C46.1884 9.85634 46.1673 9.8089 46.1462 9.75619C46.1251 9.70348 46.1041 9.65078 46.083 9.59807C46.0619 9.35561 46.1515 9.08681 46.3518 8.79164C46.5521 8.49648 46.7893 8.21713 47.0633 7.95359C47.3374 7.67952 47.6115 7.43179 47.8856 7.21042C48.1702 6.98905 48.3757 6.82565 48.5022 6.72024C48.576 6.65699 48.692 6.58847 48.8501 6.51468C49.0082 6.43035 49.1822 6.35656 49.3719 6.29331C49.5722 6.23006 49.783 6.18262 50.0044 6.151C50.2363 6.10883 50.4577 6.09829 50.6685 6.11937C50.8266 6.14046 50.9215 6.21425 50.9531 6.34074C50.9953 6.4567 51.048 6.57266 51.1113 6.68861C51.1534 6.75186 51.2589 6.79403 51.4275 6.81511C51.5118 6.86782 51.5856 6.93107 51.6489 7.00486C51.7121 7.07865 51.7438 7.17879 51.7438 7.30529C51.7016 7.31583 51.67 7.358 51.6489 7.43179C51.5856 7.52666 51.5329 7.60572 51.4908 7.66897C51.4591 7.73222 51.4275 7.7902 51.3959 7.84291C51.3643 7.88507 51.3221 7.93251 51.2694 7.98522C51.2272 8.03793 51.1692 8.10645 51.0955 8.19078C50.969 8.30674 50.7529 8.3858 50.4472 8.42796C50.152 8.45959 49.8516 8.48067 49.5459 8.49121C49.1874 8.50175 48.7921 8.49648 48.3599 8.4754H48.3441C48.2492 8.57027 48.1438 8.68096 48.0279 8.80746C47.9225 8.92341 47.8223 9.04464 47.7274 9.17114C47.6431 9.2871 47.5641 9.39778 47.4903 9.5032C47.427 9.60861 47.3901 9.68767 47.3796 9.74038ZM49.3245 8.2224C49.9148 7.72695 50.2258 7.358 50.2574 7.11554C50.0255 7.19988 49.7514 7.35273 49.4352 7.5741C49.1295 7.78493 48.8396 8.01684 48.5655 8.26984C48.6604 8.29092 48.7711 8.29619 48.8976 8.28565C49.0346 8.26457 49.1769 8.24349 49.3245 8.2224Z" fill="#FFFEFA"/>
<path d="M53.5644 13.3614C53.712 13.3298 53.8279 13.2454 53.9123 13.1084C53.9966 12.9819 54.0809 12.8659 54.1653 12.7605C54.3655 12.5391 54.55 12.3072 54.7187 12.0648C54.8874 11.8223 55.0613 11.5799 55.2405 11.3374C55.3565 11.1898 55.4777 11.0528 55.6042 10.9263C55.7307 10.8103 55.8519 10.6838 55.9679 10.5468C56.0206 10.4836 56.1154 10.3729 56.2525 10.2147C56.3895 10.0566 56.5476 9.87215 56.7268 9.66132C56.906 9.45049 57.0905 9.22912 57.2803 8.9972C57.4806 8.75475 57.6703 8.53338 57.8495 8.33309C58.0287 8.12226 58.1816 7.93778 58.3081 7.77966C58.4451 7.62154 58.54 7.51085 58.5927 7.4476C58.6454 7.39489 58.6928 7.34746 58.735 7.30529C58.7772 7.26313 58.8246 7.21569 58.8773 7.16298C59.0354 7.00486 59.0196 6.90999 58.8299 6.87836C58.7455 6.85728 58.6559 6.84674 58.5611 6.84674C58.4662 6.84674 58.3713 6.84147 58.2764 6.83092H57.976C57.9655 6.80984 57.9602 6.78876 57.9602 6.76768C57.9602 6.74659 57.9549 6.72551 57.9444 6.70443C58.0182 6.65172 58.0867 6.59901 58.1499 6.5463C58.2132 6.48305 58.2817 6.44089 58.3555 6.41981C58.5874 6.33547 58.8141 6.25641 59.0354 6.18262C59.2673 6.10883 59.494 6.02977 59.7154 5.94544C59.7997 5.91381 59.884 5.86638 59.9684 5.80313C60.0527 5.72934 60.1318 5.65555 60.2055 5.58176C60.4585 5.32876 60.6957 5.05995 60.9171 4.77533C61.0331 4.63829 61.1437 4.50125 61.2491 4.36421C61.3651 4.21663 61.4916 4.05324 61.6286 3.87403C61.5021 3.89511 61.3756 3.9162 61.2491 3.93728C61.1332 3.95836 61.0172 3.97945 60.9013 4.00053C60.8169 4.02161 60.7273 4.04797 60.6325 4.07959C60.5481 4.11122 60.4638 4.13757 60.3795 4.15865C60.137 4.19028 59.8893 4.2219 59.6363 4.25353C59.3938 4.27461 59.1514 4.30096 58.9089 4.33259C58.8984 4.3115 58.8931 4.29042 58.8931 4.26934C58.8931 4.24826 58.8879 4.22717 58.8773 4.20609C58.9406 4.14284 58.9985 4.07959 59.0512 4.01634C59.1145 3.94255 59.1777 3.88984 59.241 3.85822C59.5889 3.67901 59.9367 3.50508 60.2846 3.33641C60.6325 3.15721 60.9856 2.99382 61.344 2.84623C61.6392 2.73028 61.9343 2.6354 62.2295 2.56161C62.5247 2.48782 62.8198 2.40349 63.115 2.30862C63.231 2.26645 63.3364 2.21374 63.4312 2.1505C63.5367 2.0767 63.6473 2.00819 63.7633 1.94494C63.8476 1.89223 63.9267 1.83952 64.0005 1.78681C64.0848 1.73411 64.1691 1.6814 64.2535 1.62869C64.2746 1.70248 64.2851 1.76046 64.2851 1.80263C64.2956 1.84479 64.3115 1.89223 64.3325 1.94494C64.7015 1.8606 65.0704 1.78154 65.4394 1.70775C65.8084 1.62342 66.1773 1.53909 66.5463 1.45476C66.8941 1.37042 67.242 1.29663 67.5899 1.23338C67.9377 1.15959 68.2803 1.07526 68.6177 0.980389C68.9866 0.874974 69.3503 0.764288 69.7087 0.648331C70.0777 0.521833 70.4466 0.400606 70.8156 0.284649C71.0159 0.231941 71.2109 0.184505 71.4006 0.142338C71.5904 0.100173 71.7801 0.0580072 71.9699 0.0158411C72.1491 -0.0157837 72.2387 0.0580069 72.2387 0.237213C72.2492 0.300461 72.2703 0.36371 72.3019 0.426959C72.3335 0.479667 72.3652 0.532374 72.3968 0.585082C72.3757 0.606165 72.3546 0.616707 72.3335 0.616707C72.3863 0.637789 72.4337 0.653602 72.4758 0.664144C72.5286 0.674685 72.5813 0.690497 72.634 0.71158C72.634 0.859161 72.5707 1.02783 72.4442 1.21757C72.3177 1.39678 72.1912 1.50746 72.0647 1.54963C71.8328 1.62342 71.6009 1.69194 71.369 1.75519C71.1476 1.8079 70.9262 1.87115 70.7049 1.94494C70.5573 1.99764 70.4097 2.04508 70.2621 2.08725C70.1146 2.12941 69.967 2.17685 69.8194 2.22956C69.5242 2.31389 69.2291 2.39822 68.9339 2.48255C68.6387 2.55634 68.3383 2.63013 68.0326 2.70393C67.6426 2.78826 67.2525 2.86205 66.8625 2.9253C66.483 2.98855 66.093 3.06234 65.6924 3.14667C65.5659 3.16775 65.4341 3.18883 65.2971 3.20992C65.1706 3.22046 65.0388 3.24154 64.9018 3.27317C64.7753 3.29425 64.6488 3.32587 64.5223 3.36804C64.4063 3.39966 64.2956 3.49454 64.1902 3.65266C64.0532 3.88457 63.8845 4.07432 63.6842 4.2219C63.484 4.36948 63.2995 4.54342 63.1308 4.74371C63.0781 4.80696 63.0149 4.8702 62.9411 4.93345C62.8778 4.9967 62.8146 5.05995 62.7513 5.1232C62.7724 5.16537 62.7829 5.18645 62.7829 5.18645C63.0676 5.1232 63.3522 5.05995 63.6368 4.9967C63.9214 4.92291 64.2008 4.85439 64.4749 4.79114C64.6013 4.75952 64.7278 4.73316 64.8543 4.71208C64.9808 4.68046 65.1021 4.6541 65.218 4.63302C65.3445 4.62248 65.4447 4.66464 65.5185 4.75952C65.5923 4.84385 65.6239 4.95981 65.6133 5.10739C65.6133 5.12847 65.6081 5.15482 65.5975 5.18645C65.5975 5.20753 65.6028 5.22862 65.6133 5.2497C65.666 5.30241 65.6924 5.35511 65.6924 5.40782C65.7029 5.44999 65.6924 5.49215 65.6608 5.53432C65.6397 5.57648 65.6081 5.61865 65.5659 5.66082C65.5343 5.69244 65.5027 5.72407 65.471 5.75569C65.4078 5.82948 65.3393 5.89273 65.2655 5.94544C65.1917 5.99815 65.1126 6.05085 65.0283 6.10356C65.0177 6.1141 65.0072 6.12464 64.9967 6.13518C64.9967 6.14573 64.9861 6.15627 64.965 6.16681C64.6593 6.2406 64.3483 6.31439 64.0321 6.38818C63.7159 6.46197 63.3996 6.52522 63.0834 6.57793C62.8725 6.60955 62.667 6.63064 62.4667 6.64118C62.2664 6.64118 62.0608 6.64645 61.85 6.65699C61.6181 6.65699 61.4231 6.73078 61.265 6.87836C61.1068 7.02594 60.9487 7.18934 60.7906 7.36854C60.6957 7.4845 60.5956 7.60045 60.4902 7.71641C60.3847 7.83237 60.2846 7.94832 60.1897 8.06428C60.1476 8.11699 60.0632 8.21713 59.9367 8.36471C59.8102 8.51229 59.6627 8.68623 59.494 8.88652C59.3359 9.08681 59.1619 9.29764 58.9722 9.51901C58.793 9.74038 58.619 9.95121 58.4504 10.1515C58.2923 10.3518 58.1499 10.531 58.0234 10.6891C57.9075 10.8367 57.8284 10.9316 57.7863 10.9737C57.2908 11.5535 56.7954 12.1122 56.2999 12.6498C56.1523 12.8185 56.01 12.9819 55.873 13.14C55.7254 13.3087 55.5831 13.4826 55.4461 13.6618C55.3406 13.7883 55.2299 13.8779 55.114 13.9306C54.998 13.9833 54.8768 14.0255 54.7503 14.0571C54.7081 14.0677 54.666 14.0729 54.6238 14.0729C54.5817 14.0835 54.5395 14.0993 54.4973 14.1204H54.2918C54.2918 14.0571 54.2865 14.0202 54.2759 14.0097C54.2232 13.9675 54.1705 13.9254 54.1178 13.8832C54.0651 13.8516 54.0071 13.8252 53.9439 13.8041C53.9017 13.7936 53.8701 13.7672 53.849 13.7251C53.8279 13.6829 53.8068 13.6407 53.7858 13.5986C53.7541 13.5564 53.7225 13.5195 53.6909 13.4879C53.6593 13.4668 53.6118 13.4668 53.5486 13.4879C53.5486 13.4668 53.5539 13.4457 53.5644 13.4246C53.5644 13.4036 53.5644 13.3825 53.5644 13.3614Z" fill="#FFFEFA"/>
<path d="M66.2104 6.94161C66.2631 7.00486 66.321 7.06811 66.3843 7.13136C66.4475 7.18406 66.5161 7.24731 66.5899 7.3211C66.4423 7.5741 66.2947 7.8271 66.1471 8.08009C65.9995 8.33309 65.8467 8.58609 65.6886 8.83908C65.6675 8.88125 65.6253 8.95504 65.5621 9.06045C65.4988 9.16587 65.425 9.28182 65.3407 9.40832C65.2564 9.53482 65.1615 9.67186 65.0561 9.81944C64.9612 9.95648 64.8611 10.083 64.7556 10.1989C64.8716 10.1462 64.9876 10.0882 65.1035 10.025C65.2195 9.96175 65.3354 9.89323 65.4514 9.81944C65.5462 9.75619 65.6411 9.69294 65.736 9.62969C65.8309 9.5559 65.931 9.48738 66.0364 9.42413L66.2736 9.23439C66.3052 9.2133 66.3316 9.19222 66.3527 9.17114C66.3843 9.15006 66.4107 9.12897 66.4317 9.10789C66.4317 9.09735 66.3948 9.13424 66.3211 9.21858C66.2578 9.29237 66.1735 9.38724 66.0681 9.5032C65.9732 9.60861 65.873 9.71403 65.7676 9.81944C65.6727 9.91431 65.6042 9.98283 65.5621 10.025C65.4777 10.0882 65.3987 10.1515 65.3249 10.2147C65.2511 10.2675 65.172 10.3149 65.0877 10.3571C64.9612 10.4203 64.8242 10.4783 64.6766 10.531C64.5395 10.5837 64.3972 10.6206 64.2496 10.6417C64.1021 10.6944 63.9598 10.6733 63.8227 10.5784C63.6857 10.473 63.6013 10.3623 63.5697 10.2464C63.5592 10.1831 63.5644 10.1041 63.5855 10.0092C63.6066 9.90377 63.633 9.79836 63.6646 9.69294C63.7068 9.57699 63.7489 9.47157 63.7911 9.3767C63.8333 9.28182 63.8649 9.2133 63.886 9.17114C63.9492 9.07627 64.0441 8.93395 64.1706 8.74421C64.2971 8.54392 64.4289 8.34363 64.5659 8.14334C64.7029 7.93251 64.8294 7.73749 64.9454 7.55829C65.0613 7.37908 65.1404 7.25786 65.1826 7.19461C65.2353 7.12082 65.2827 7.0523 65.3249 6.98905C65.3776 6.91526 65.4408 6.85201 65.5146 6.7993C65.6306 6.71497 65.7518 6.68861 65.8783 6.72024C66.0153 6.75186 66.126 6.82565 66.2104 6.94161ZM67.3014 6.08775C67.3225 6.19316 67.2909 6.29331 67.2065 6.38818C67.1327 6.48305 67.0431 6.54103 66.9377 6.56212C66.8112 6.5832 66.6795 6.60428 66.5424 6.62537C66.4159 6.64645 66.2947 6.64645 66.1787 6.62537C66.0733 6.60428 65.9363 6.53576 65.7676 6.41981C65.6095 6.29331 65.5146 6.16154 65.483 6.0245C65.4725 6.00342 65.483 5.97179 65.5146 5.92963C65.5462 5.88746 65.5726 5.86111 65.5937 5.85056C65.7729 5.81894 65.9521 5.78731 66.1313 5.75569C66.3105 5.72407 66.4897 5.69771 66.6689 5.67663C66.7005 5.66609 66.7533 5.66082 66.827 5.66082C66.827 5.65028 66.8797 5.66082 66.9852 5.69244C67.0906 5.71352 67.1696 5.75042 67.2224 5.80313C67.254 5.82421 67.2698 5.86638 67.2698 5.92963C67.2698 5.98233 67.2803 6.03504 67.3014 6.08775ZM66.5899 7.30529V7.3211V7.30529Z" fill="#FFFEFA"/>
<path d="M71.949 6.87836C71.9701 6.8889 72.0017 6.91526 72.0439 6.95742C72.0966 6.99959 72.1493 7.04703 72.202 7.09973C72.2547 7.15244 72.2969 7.21042 72.3285 7.27367C72.3706 7.33692 72.3917 7.39489 72.3917 7.4476C72.339 7.93251 72.1809 8.3858 71.9174 8.80746C71.6538 9.22912 71.3639 9.64551 71.0477 10.0566C71.2164 9.98283 71.4219 9.86161 71.6644 9.69294C71.9174 9.52428 72.1598 9.35034 72.3917 9.17114C72.6236 8.99193 72.8187 8.83381 72.9768 8.69677C73.1454 8.55973 73.2351 8.49121 73.2456 8.49121C73.2034 8.53338 73.0822 8.65461 72.8819 8.85489C72.6816 9.05518 72.4392 9.28182 72.1545 9.53482C71.8699 9.77728 71.5589 10.0197 71.2216 10.2622C70.8948 10.5046 70.5839 10.6944 70.2887 10.8314C69.9935 10.979 69.7405 11.0423 69.5297 11.0212C69.3189 11.0106 69.1871 10.8683 69.1344 10.5942C69.1133 10.5205 69.1239 10.4519 69.166 10.3887C69.3136 10.1779 69.4612 9.96175 69.6088 9.74038C69.7669 9.51901 69.9197 9.30291 70.0673 9.09208C70.1095 9.02883 70.1675 8.9445 70.2413 8.83908C70.3256 8.72312 70.4047 8.61244 70.4784 8.50702C70.5522 8.40161 70.6155 8.30674 70.6682 8.2224C70.7314 8.12753 70.7683 8.06955 70.7789 8.04847C70.568 8.05901 70.3414 8.09591 70.099 8.15915C69.8565 8.21186 69.5877 8.33836 69.2925 8.53865C69.2082 8.6019 69.1028 8.7284 68.9763 8.91814C68.8498 9.09735 68.718 9.29764 68.581 9.51901C68.4439 9.72984 68.3122 9.93013 68.1857 10.1199C68.0592 10.3096 67.959 10.4361 67.8852 10.4994C67.7377 10.6153 67.5953 10.6838 67.4583 10.7049C67.3318 10.726 67.1948 10.6786 67.0472 10.5626C67.0261 10.5415 67.0261 10.5363 67.0472 10.5468C67.0683 10.5468 67.0683 10.5468 67.0472 10.5468C66.9523 10.4836 66.868 10.415 66.7942 10.3412C66.7309 10.278 66.673 10.2042 66.6203 10.1199C66.5675 10.0355 66.5465 9.94067 66.557 9.83525C66.7151 9.64551 66.9101 9.37143 67.1421 9.01302C67.374 8.64406 67.6059 8.26984 67.8378 7.89035C68.0803 7.51085 68.3016 7.15771 68.5019 6.83092C68.7022 6.4936 68.8445 6.26168 68.9288 6.13518C69.0343 5.96652 69.1713 5.90327 69.34 5.94544C69.4665 5.99815 69.593 6.04558 69.7195 6.08775C69.8565 6.12991 69.983 6.17735 70.099 6.23006C70.1833 6.26168 70.2307 6.3302 70.2413 6.43562C70.2623 6.54103 70.2413 6.63591 70.178 6.72024C70.0621 6.8889 69.9514 7.06284 69.846 7.24204C69.7405 7.41071 69.6404 7.58991 69.5455 7.77966C69.6615 7.69533 69.7774 7.60572 69.8934 7.51085C70.0199 7.41598 70.1517 7.32637 70.2887 7.24204C70.4257 7.15771 70.5628 7.07338 70.6998 6.98905C70.8474 6.90471 70.995 6.82565 71.1426 6.75186C71.2901 6.68861 71.4272 6.68334 71.5537 6.73605C71.6802 6.78876 71.8119 6.83619 71.949 6.87836Z" fill="#FFFEFA"/>
<path d="M77.4245 9.64551C77.4245 9.66659 77.5246 9.62969 77.7249 9.53482C77.9357 9.43995 78.1676 9.32399 78.4206 9.18695C78.7053 9.03937 79.0373 8.86016 79.4168 8.64933V8.82327C79.09 9.06572 78.7791 9.27655 78.4839 9.45576C78.2309 9.60334 77.9779 9.74038 77.7249 9.86688C77.4719 9.98283 77.2822 10.0197 77.1557 9.97756C76.9659 9.92486 76.85 9.8089 76.8078 9.62969C76.7762 9.45049 76.7709 9.29764 76.792 9.17114C76.5284 9.40305 76.2807 9.60334 76.0488 9.772C75.8274 9.94067 75.643 10.0672 75.4954 10.1515C75.3689 10.2147 75.2477 10.2885 75.1317 10.3729C75.0157 10.4467 74.8892 10.5099 74.7522 10.5626C74.436 10.6891 74.0986 10.7102 73.7402 10.6259C73.3186 10.5415 72.9918 10.3307 72.7599 9.99338C72.7388 9.95121 72.7177 9.90377 72.6966 9.85107C72.6755 9.79836 72.6544 9.74565 72.6334 9.69294C72.6123 9.45049 72.7019 9.18695 72.9022 8.90233C73.1024 8.60717 73.3396 8.32255 73.6137 8.04847C73.8878 7.77439 74.1619 7.52666 74.436 7.30529C74.7206 7.08392 74.9261 6.92053 75.0526 6.81511C75.1264 6.76241 75.2424 6.69916 75.4005 6.62537C75.5586 6.54103 75.7326 6.46724 75.9223 6.40399C76.1226 6.34074 76.3334 6.28804 76.5548 6.24587C76.7867 6.2037 77.0081 6.19316 77.2189 6.21425C77.377 6.23533 77.4719 6.30912 77.5035 6.43562C77.5457 6.55157 77.5984 6.66753 77.6617 6.78349C77.6722 6.80457 77.688 6.82565 77.7091 6.84674C77.7618 6.89944 77.8198 6.99959 77.883 7.14717C77.9568 7.28421 77.9832 7.45814 77.9621 7.66897C77.9621 7.71114 77.9568 7.75858 77.9463 7.81128C77.9357 7.85345 77.9199 7.90089 77.8988 7.95359C77.8883 7.96414 77.883 7.97468 77.883 7.98522C77.883 7.98522 77.8778 7.99049 77.8672 8.00103C77.825 8.13807 77.7776 8.29619 77.7249 8.4754C77.6827 8.6546 77.6353 8.82854 77.5826 8.9972C77.5404 9.16587 77.5035 9.31345 77.4719 9.43995C77.4403 9.5559 77.4245 9.62442 77.4245 9.64551ZM74.1197 9.55063C74.2673 9.54009 74.4834 9.43995 74.768 9.2502C75.0632 9.04991 75.3583 8.82327 75.6535 8.57027C75.9487 8.30674 76.2069 8.04847 76.4283 7.79547C76.6602 7.53193 76.7867 7.33692 76.8078 7.21042C76.6918 7.17879 76.5759 7.16298 76.4599 7.16298C76.3545 7.16298 76.2385 7.17879 76.1121 7.21042C75.9856 7.2315 75.8643 7.27894 75.7484 7.35273C75.6746 7.40544 75.5481 7.49504 75.3689 7.62154C75.2002 7.74804 75.0157 7.89035 74.8154 8.04847C74.6257 8.20659 74.436 8.37526 74.2462 8.55446C74.067 8.72312 73.93 8.88125 73.8351 9.02883C73.7402 9.17641 73.7086 9.29764 73.7402 9.39251C73.7718 9.48738 73.8983 9.54009 74.1197 9.55063Z" fill="#FFFEFA"/>
<path d="M83.7612 6.87836C83.7823 6.8889 83.8139 6.91526 83.8561 6.95742C83.9088 6.99959 83.9615 7.04703 84.0142 7.09973C84.0669 7.15244 84.1091 7.21042 84.1407 7.27367C84.1829 7.33692 84.204 7.39489 84.204 7.4476C84.1513 7.93251 83.9931 8.3858 83.7296 8.80746C83.4661 9.22912 83.1762 9.64551 82.8599 10.0566C83.0286 9.98283 83.2342 9.86161 83.4766 9.69294C83.7296 9.52428 83.9721 9.35034 84.204 9.17114C84.4359 8.99193 84.6309 8.83381 84.789 8.69677C84.9577 8.55973 85.0473 8.49121 85.0578 8.49121C85.0157 8.53338 84.8944 8.65461 84.6942 8.85489C84.4939 9.05518 84.2514 9.28182 83.9668 9.53482C83.6822 9.77728 83.3712 10.0197 83.0339 10.2622C82.7071 10.5046 82.3961 10.6944 82.1009 10.8314C81.8058 10.979 81.5528 11.0423 81.3419 11.0212C81.1311 11.0106 80.9993 10.8683 80.9466 10.5942C80.9256 10.5205 80.9361 10.4519 80.9783 10.3887C81.1258 10.1779 81.2734 9.96175 81.421 9.74038C81.5791 9.51901 81.732 9.30291 81.8796 9.09208C81.9217 9.02883 81.9797 8.9445 82.0535 8.83908C82.1378 8.72312 82.2169 8.61244 82.2907 8.50702C82.3645 8.40161 82.4277 8.30674 82.4804 8.2224C82.5437 8.12753 82.5806 8.06955 82.5911 8.04847C82.3803 8.05901 82.1536 8.09591 81.9112 8.15915C81.6687 8.21186 81.3999 8.33836 81.1048 8.53865C81.0204 8.6019 80.915 8.7284 80.7885 8.91814C80.662 9.09735 80.5303 9.29764 80.3932 9.51901C80.2562 9.72984 80.1244 9.93013 79.9979 10.1199C79.8714 10.3096 79.7713 10.4361 79.6975 10.4994C79.5499 10.6153 79.4076 10.6838 79.2705 10.7049C79.144 10.726 79.007 10.6786 78.8594 10.5626C78.8383 10.5415 78.8383 10.5363 78.8594 10.5468C78.8805 10.5468 78.8805 10.5468 78.8594 10.5468C78.7646 10.4836 78.6802 10.415 78.6064 10.3412C78.5432 10.278 78.4852 10.2042 78.4325 10.1199C78.3798 10.0355 78.3587 9.94067 78.3692 9.83525C78.5274 9.64551 78.7224 9.37143 78.9543 9.01302C79.1862 8.64406 79.4181 8.26984 79.65 7.89035C79.8925 7.51085 80.1139 7.15771 80.3142 6.83092C80.5144 6.4936 80.6568 6.26168 80.7411 6.13518C80.8465 5.96652 80.9835 5.90327 81.1522 5.94544C81.2787 5.99815 81.4052 6.04558 81.5317 6.08775C81.6687 6.12991 81.7952 6.17735 81.9112 6.23006C81.9955 6.26168 82.043 6.3302 82.0535 6.43562C82.0746 6.54103 82.0535 6.63591 81.9903 6.72024C81.8743 6.8889 81.7636 7.06284 81.6582 7.24204C81.5528 7.41071 81.4526 7.58991 81.3578 7.77966C81.4737 7.69533 81.5897 7.60572 81.7056 7.51085C81.8321 7.41598 81.9639 7.32637 82.1009 7.24204C82.238 7.15771 82.375 7.07338 82.5121 6.98905C82.6596 6.90471 82.8072 6.82565 82.9548 6.75186C83.1024 6.68861 83.2394 6.68334 83.3659 6.73605C83.4924 6.78876 83.6242 6.83619 83.7612 6.87836Z" fill="#FFFEFA"/>
<path d="M89.7902 6.83092C89.8323 6.85201 89.8587 6.90999 89.8692 7.00486C89.8903 7.08919 89.8956 7.18934 89.885 7.30529C89.885 7.42125 89.8639 7.54248 89.8218 7.66897C89.7796 7.78493 89.7216 7.88507 89.6478 7.96941C89.3105 8.06428 89.0206 8.12753 88.7782 8.15915C88.5357 8.19078 88.2933 8.18551 88.0508 8.14334C88.2511 7.89035 88.3881 7.69533 88.4619 7.55829C88.5463 7.42125 88.599 7.27894 88.62 7.13136C88.367 7.22623 88.0613 7.40544 87.7029 7.66897C87.3445 7.93251 87.0177 8.20659 86.7226 8.49121C86.712 8.49121 86.7068 8.49648 86.7068 8.50702C86.6119 8.6019 86.5065 8.71258 86.3905 8.83908C86.2851 8.95504 86.185 9.07627 86.0901 9.20276C86.0058 9.31872 85.9267 9.42941 85.8529 9.53482C85.7896 9.62969 85.7528 9.70348 85.7422 9.75619C85.8055 9.8089 85.953 9.82998 86.185 9.81944C86.4169 9.79836 86.6857 9.76146 86.9914 9.70876C87.3076 9.65605 87.6397 9.58753 87.9876 9.5032C88.346 9.41886 88.6833 9.34507 88.9995 9.28182C89.3158 9.20803 89.5899 9.15006 89.8218 9.10789C90.0642 9.06572 90.2276 9.04991 90.312 9.06045C90.312 9.07099 90.3067 9.07627 90.2961 9.07627C90.254 9.09735 90.138 9.14479 89.9483 9.21858C89.7585 9.29237 89.5319 9.38197 89.2683 9.48738C89.0153 9.58226 88.736 9.68767 88.4303 9.80363C88.1351 9.90904 87.8558 10.0092 87.5922 10.1041C87.3287 10.1989 87.1021 10.2833 86.9123 10.3571C86.7226 10.4308 86.6066 10.473 86.5644 10.4836C86.2482 10.6101 85.9109 10.6311 85.5525 10.5468C85.1308 10.4625 84.804 10.2516 84.5721 9.91431C84.551 9.87215 84.5299 9.82471 84.5089 9.772C84.4878 9.7193 84.4667 9.66659 84.4456 9.61388C84.4245 9.37143 84.5141 9.10789 84.7144 8.82327C84.9147 8.52811 85.1519 8.24349 85.426 7.96941C85.7 7.69533 85.9741 7.4476 86.2482 7.22623C86.5328 7.00486 86.7384 6.84147 86.8649 6.73605C86.9387 6.68334 87.0546 6.62009 87.2128 6.5463C87.3709 6.46197 87.5448 6.38818 87.7346 6.32493C87.9348 6.26168 88.1457 6.20898 88.367 6.16681C88.599 6.12464 88.8203 6.1141 89.0312 6.13518C89.1893 6.15627 89.2842 6.23006 89.3158 6.35656C89.358 6.47251 89.4107 6.58847 89.4739 6.70443C89.5266 6.78876 89.632 6.83092 89.7902 6.83092Z" fill="#FFFEFA"/>
<path d="M91.1388 9.74038C91.202 9.79309 91.3496 9.81417 91.5815 9.80363C91.8134 9.78255 92.0822 9.74565 92.3879 9.69294C92.7042 9.62969 93.0362 9.56117 93.3841 9.48738C93.7425 9.40305 94.0798 9.32926 94.3961 9.26601C94.7123 9.19222 94.9864 9.13424 95.2183 9.09208C95.4608 9.04991 95.6242 9.0341 95.7085 9.04464L95.6927 9.06045C95.6505 9.08154 95.5346 9.12897 95.3448 9.20276C95.1551 9.27655 94.9284 9.36616 94.6649 9.47157C94.4119 9.56645 94.1325 9.67186 93.8268 9.78782C93.5317 9.89323 93.2523 9.99338 92.9888 10.0882C92.7253 10.1831 92.4986 10.2675 92.3089 10.3412C92.1191 10.415 92.0032 10.4572 91.961 10.4677C91.8029 10.531 91.6395 10.5679 91.4708 10.5784C91.3021 10.5784 91.1282 10.5626 90.949 10.531C90.5274 10.4361 90.2006 10.2253 89.9687 9.8985C89.9476 9.85634 89.9265 9.8089 89.9054 9.75619C89.8843 9.70348 89.8632 9.65078 89.8422 9.59807C89.8211 9.35561 89.9107 9.08681 90.111 8.79164C90.3112 8.49648 90.5484 8.21713 90.8225 7.95359C91.0966 7.67952 91.3707 7.43179 91.6447 7.21042C91.9294 6.98905 92.1349 6.82565 92.2614 6.72024C92.3352 6.65699 92.4512 6.58847 92.6093 6.51468C92.7674 6.43035 92.9414 6.35656 93.1311 6.29331C93.3314 6.23006 93.5422 6.18262 93.7636 6.151C93.9955 6.10883 94.2169 6.09829 94.4277 6.11937C94.5858 6.14046 94.6807 6.21425 94.7123 6.34074C94.7545 6.4567 94.8072 6.57266 94.8704 6.68861C94.9126 6.75186 95.018 6.79403 95.1867 6.81511C95.271 6.86782 95.3448 6.93107 95.4081 7.00486C95.4713 7.07865 95.5029 7.17879 95.5029 7.30529C95.4608 7.31583 95.4291 7.358 95.4081 7.43179C95.3448 7.52666 95.2921 7.60572 95.2499 7.66897C95.2183 7.73222 95.1867 7.7902 95.1551 7.84291C95.1234 7.88507 95.0813 7.93251 95.0286 7.98522C94.9864 8.03793 94.9284 8.10645 94.8546 8.19078C94.7281 8.30674 94.512 8.3858 94.2063 8.42796C93.9112 8.45959 93.6107 8.48067 93.305 8.49121C92.9466 8.50175 92.5513 8.49648 92.1191 8.4754H92.1033C92.0084 8.57027 91.903 8.68096 91.7871 8.80746C91.6816 8.92341 91.5815 9.04464 91.4866 9.17114C91.4023 9.2871 91.3232 9.39778 91.2494 9.5032C91.1862 9.60861 91.1493 9.68767 91.1388 9.74038ZM93.0837 8.2224C93.674 7.72695 93.985 7.358 94.0166 7.11554C93.7847 7.19988 93.5106 7.35273 93.1943 7.5741C92.8886 7.78493 92.5988 8.01684 92.3247 8.26984C92.4195 8.29092 92.5302 8.29619 92.6567 8.28565C92.7938 8.26457 92.9361 8.24349 93.0837 8.2224Z" fill="#FFFEFA"/>
<defs>
<linearGradient id="paint0_linear_80_135247" x1="5.39912" y1="16.8333" x2="95.6009" y2="16.8333" gradientUnits="userSpaceOnUse">
<stop stop-color="#FFFF57"/>
<stop offset="0.223958" stop-color="#57FF57"/>
<stop offset="0.432292" stop-color="#57FFFF"/>
<stop offset="0.635417" stop-color="#5757FF"/>
<stop offset="0.807292" stop-color="#FF57FF"/>
<stop offset="1" stop-color="#FF5757"/>
</linearGradient>
</defs>
</svg>
