<svg width="176" height="27" viewBox="0 0 176 27" fill="none" xmlns="http://www.w3.org/2000/svg">
<path d="M9 21H175V23H9V21Z" fill="url(#paint0_linear_15_290)"/>
<path d="M0.563169 25.0321C0.601821 24.8775 0.640473 24.7229 0.679125 24.5683C0.698451 24.4137 0.727441 24.2591 0.766093 24.1045C0.862723 23.6986 0.949691 23.3024 1.027 22.9159C1.1043 22.5294 1.19127 22.1429 1.2879 21.7564C1.3652 21.4665 1.45217 21.1766 1.5488 20.8867C1.64543 20.6161 1.70341 20.3456 1.72273 20.075C1.78071 19.3406 1.95465 18.6642 2.24454 18.0457C2.51511 17.408 2.805 16.7702 3.11421 16.1325C3.67467 14.9149 4.22546 13.7167 4.7666 12.5378C5.30773 11.3589 5.85852 10.1607 6.41898 8.94315C6.86348 7.99617 7.29831 7.05886 7.72349 6.13121C8.16799 5.20355 8.61249 4.2759 9.05699 3.34825C9.17295 3.07768 9.29857 2.79745 9.43385 2.50756C9.56913 2.21767 9.71408 1.9471 9.86869 1.69587C9.94599 1.59923 10.033 1.5026 10.1296 1.40597C10.2455 1.30934 10.3518 1.21271 10.4485 1.11608C10.5258 1.17406 10.5934 1.2417 10.6514 1.31901C10.7094 1.37698 10.777 1.45429 10.8543 1.55092C10.893 1.51227 10.922 1.49294 10.9413 1.49294C11.0379 1.64755 11.1249 1.80216 11.2022 1.95677C11.2988 2.09205 11.3954 2.22733 11.4921 2.36262C11.608 2.51722 11.6564 2.73947 11.637 3.02937C11.6177 3.29993 11.5501 3.54151 11.4341 3.7541C11.1829 4.14062 10.9799 4.54647 10.8253 4.97164C10.69 5.39681 10.6417 5.83165 10.6804 6.27615C10.6804 6.35346 10.6611 6.4211 10.6224 6.47908C10.6031 6.53705 10.5838 6.59503 10.5644 6.65301C10.2939 7.27145 10.033 7.88988 9.78172 8.50832C9.53048 9.12675 9.2889 9.75485 9.05699 10.3926C8.90238 10.7985 8.74777 11.2043 8.59316 11.6102C8.45788 12.016 8.26462 12.4219 8.01338 12.8277C7.76214 13.2722 7.54955 13.736 7.37562 14.2192C7.20168 14.683 7.00842 15.1468 6.79584 15.6107C6.75718 15.6493 6.73786 15.6976 6.73786 15.7556C6.73786 15.8136 6.73786 15.8716 6.73786 15.9295C6.75718 15.9489 6.76685 15.9585 6.76685 15.9585C6.78617 15.9585 6.8055 15.9682 6.82483 15.9875C7.3273 15.2918 7.82012 14.5864 8.30327 13.8713C8.80575 13.1562 9.30823 12.4508 9.81071 11.7551C10.1199 11.3106 10.4388 10.8758 10.7674 10.4506C11.0959 10.0254 11.4244 9.59058 11.753 9.14608C11.8496 8.99147 12.0139 8.75956 12.2458 8.45034C12.497 8.14112 12.7676 7.80291 13.0575 7.43572C13.3667 7.0492 13.6856 6.65301 14.0141 6.24716C14.362 5.82199 14.6809 5.43547 14.9708 5.0876C15.2607 4.7204 15.5119 4.40152 15.7245 4.13095C15.9564 3.86039 16.1207 3.67679 16.2173 3.58016C16.5459 3.19364 16.8744 2.81678 17.2029 2.44958C17.5508 2.06306 17.889 1.6862 18.2176 1.31901C18.3142 1.22238 18.4108 1.15473 18.5075 1.11608C18.6234 1.0581 18.7394 0.990462 18.8553 0.913158C18.8747 0.75855 18.9809 0.574952 19.1742 0.362364C19.3675 0.149777 19.5414 0.0338211 19.696 0.0144953C19.7926 -0.00483175 19.8699 -0.00483175 19.9279 0.0144953C20.0052 0.0338211 20.0246 0.0628099 19.9859 0.101462C20.0825 0.275397 20.1598 0.449332 20.2178 0.623266C20.2951 0.777876 20.3628 0.951811 20.4207 1.14507C20.4594 1.18372 20.4691 1.2417 20.4497 1.31901C20.4304 1.37698 20.4111 1.44463 20.3917 1.52193C20.2371 1.92778 20.0439 2.30464 19.812 2.65251C19.5801 3.00038 19.3481 3.34825 19.1162 3.69612C18.8843 4.02466 18.6717 4.36287 18.4785 4.71074C18.2852 5.05861 18.0726 5.39681 17.8407 5.72536C17.2609 6.47908 16.6618 7.21347 16.0434 7.92853C15.4443 8.6436 14.8645 9.36833 14.304 10.1027C14.2267 10.1993 14.1204 10.354 13.9851 10.5665C13.8499 10.7598 13.7146 10.9724 13.5793 11.2043C13.444 11.4362 13.3087 11.6585 13.1734 11.8711C13.0382 12.0643 12.9319 12.2093 12.8546 12.3059C12.642 12.5378 12.4294 12.7697 12.2168 13.0016C12.0042 13.2335 11.7916 13.4848 11.579 13.7554C11.3858 13.9873 11.2119 14.2288 11.0572 14.4801C10.922 14.712 10.777 14.9342 10.6224 15.1468C10.4678 15.3401 10.3035 15.5334 10.1296 15.7266C9.97498 15.9006 9.82037 16.0841 9.66576 16.2774C8.81541 17.379 7.97473 18.5096 7.14371 19.6691C6.56392 20.4808 5.98414 21.2829 5.40436 22.0752C4.82457 22.8869 4.25445 23.7276 3.694 24.5973C3.36545 25.1191 3.00792 25.496 2.6214 25.7279C2.23488 25.9791 1.81937 26.1241 1.37487 26.1627C1.23958 26.182 1.11396 26.1241 0.998006 25.9888C0.882049 25.8535 0.775756 25.7375 0.679125 25.6409C0.640473 25.6023 0.621147 25.5539 0.621147 25.496C0.601821 25.4573 0.572832 25.4187 0.53418 25.38C0.53418 25.3413 0.543843 25.2834 0.563169 25.2061C0.563169 25.1481 0.563169 25.0901 0.563169 25.0321Z" fill="#48198F"/>
<path d="M19.5651 17.6689C19.5651 17.7075 19.7487 17.6399 20.1159 17.466C20.5024 17.292 20.9276 17.0794 21.3914 16.8282C21.9132 16.5576 22.522 16.2291 23.2177 15.8426V16.1615C22.6186 16.606 22.0485 16.9925 21.5074 17.321C21.0436 17.5916 20.5797 17.8428 20.1159 18.0747C19.6521 18.2873 19.3042 18.355 19.0723 18.2777C18.7244 18.181 18.5118 17.9684 18.4345 17.6399C18.3765 17.3114 18.3669 17.0311 18.4055 16.7992C17.9224 17.2244 17.4682 17.5916 17.043 17.9008C16.6372 18.21 16.299 18.4419 16.0284 18.5965C15.7965 18.7125 15.5743 18.8478 15.3617 19.0024C15.1491 19.1377 14.9172 19.2536 14.6659 19.3503C14.0862 19.5822 13.4677 19.6208 12.8106 19.4662C12.0376 19.3116 11.4385 18.9251 11.0133 18.3067C10.9747 18.2293 10.936 18.1424 10.8973 18.0457C10.8587 17.9491 10.82 17.8525 10.7814 17.7559C10.7427 17.3114 10.907 16.8282 11.2742 16.3064C11.6414 15.7653 12.0762 15.2435 12.5787 14.741C13.0812 14.2385 13.5837 13.7843 14.0862 13.3785C14.608 12.9726 14.9848 12.6731 15.2167 12.4798C15.352 12.3832 15.5646 12.2672 15.8545 12.132C16.1444 11.9774 16.4633 11.8421 16.8111 11.7261C17.1783 11.6102 17.5649 11.5135 17.9707 11.4362C18.3959 11.3589 18.8017 11.3396 19.1882 11.3782C19.4781 11.4169 19.6521 11.5522 19.7101 11.7841C19.7874 11.9967 19.884 12.2093 19.9999 12.4219C20.0193 12.4605 20.0483 12.4992 20.0869 12.5378C20.1835 12.6344 20.2898 12.818 20.4058 13.0886C20.5411 13.3398 20.5894 13.6587 20.5507 14.0452C20.5507 14.1225 20.5411 14.2095 20.5217 14.3061C20.5024 14.3835 20.4734 14.4704 20.4348 14.567C20.4155 14.5864 20.4058 14.6057 20.4058 14.625C20.4058 14.625 20.3961 14.6347 20.3768 14.654C20.2995 14.9053 20.2125 15.1951 20.1159 15.5237C20.0386 15.8522 19.9516 16.1711 19.855 16.4803C19.7777 16.7896 19.71 17.0601 19.6521 17.292C19.5941 17.5046 19.5651 17.6302 19.5651 17.6689ZM13.5064 17.495C13.7769 17.4756 14.1731 17.292 14.6949 16.9442C15.2361 16.577 15.7772 16.1615 16.3183 15.6976C16.8595 15.2145 17.3329 14.741 17.7388 14.2772C18.164 13.794 18.3959 13.4365 18.4345 13.2046C18.2219 13.1466 18.0094 13.1176 17.7968 13.1176C17.6035 13.1176 17.3909 13.1466 17.159 13.2046C16.9271 13.2432 16.7048 13.3302 16.4923 13.4655C16.357 13.5621 16.1251 13.7264 15.7965 13.9583C15.4873 14.1902 15.1491 14.4511 14.7819 14.741C14.434 15.0309 14.0862 15.3401 13.7383 15.6686C13.4097 15.9779 13.1585 16.2677 12.9846 16.5383C12.8106 16.8089 12.7527 17.0311 12.8106 17.2051C12.8686 17.379 13.1005 17.4756 13.5064 17.495Z" fill="#48198F"/>
<path d="M36.1107 13.5234C35.5309 13.9679 34.9897 14.3738 34.4873 14.741C34.0428 15.0695 33.5983 15.3787 33.1538 15.6686C32.7286 15.9392 32.3807 16.1228 32.1102 16.2194C32.0522 16.2581 31.9845 16.2871 31.9072 16.3064C31.8493 16.3064 31.7913 16.3257 31.7333 16.3644C31.4627 16.6736 31.1825 16.9538 30.8926 17.2051C30.6027 17.437 30.3515 17.6109 30.1389 17.7269C29.9843 17.8042 29.7234 17.9008 29.3562 18.0168C29.0083 18.1327 28.6025 18.2487 28.1386 18.3646C27.6941 18.4806 27.2303 18.5772 26.7472 18.6545C26.2833 18.7318 25.8678 18.7705 25.5006 18.7705C25.346 18.7705 25.1914 18.7608 25.0368 18.7415C24.8822 18.7222 24.7566 18.6932 24.6599 18.6545H24.544C24.4474 18.6545 24.2928 18.7125 24.0802 18.8285C23.8676 18.9444 23.597 19.2246 23.2685 19.6691C23.1718 19.7851 23.0076 19.988 22.7757 20.2779C22.5631 20.5678 22.3118 20.906 22.0219 21.2925C21.7707 21.6211 21.5098 21.9593 21.2392 22.3072C20.9687 22.6743 20.7174 23.0126 20.4855 23.3218C20.2536 23.631 20.0507 23.9016 19.8767 24.1335C19.6835 24.3847 19.5579 24.5586 19.4999 24.6553C19.4999 24.6553 19.4806 24.6746 19.4419 24.7133C19.4032 24.8099 19.3453 24.8872 19.268 24.9452L19.21 25.0031C19.1327 25.0611 19.0554 25.1191 18.9781 25.1771C18.8814 25.2351 18.7848 25.264 18.6882 25.264H18.6592C18.5046 25.2447 18.3693 25.2157 18.2533 25.1771C18.1181 25.1578 17.9441 25.1094 17.7315 25.0321C17.6156 24.9935 17.4996 24.9355 17.3837 24.8582C17.2677 24.7809 17.1614 24.6939 17.0648 24.5973C16.7362 24.2301 16.7169 23.8629 17.0068 23.4957C17.1228 23.3411 17.432 22.9449 17.9345 22.3072C18.4176 21.6887 18.9781 20.9543 19.6158 20.104C20.0603 19.5242 20.5048 18.9444 20.9493 18.3646C21.3938 17.7848 21.7997 17.2534 22.1669 16.7702C22.5534 16.2871 22.8723 15.8812 23.1235 15.5527C23.3941 15.2048 23.568 14.9922 23.6453 14.9149C23.7999 14.7217 23.9545 14.5284 24.1092 14.3351C24.2638 14.1419 24.428 13.939 24.602 13.7264C24.6793 13.6297 24.7469 13.5331 24.8049 13.4365C24.8822 13.3398 24.9595 13.2432 25.0368 13.1466L25.9355 11.7261L26.0224 11.6971C26.1191 11.6585 26.2254 11.6295 26.3413 11.6102C26.4766 11.5908 26.6022 11.5908 26.7182 11.6102C27.0467 11.6102 27.3656 11.6875 27.6748 11.8421C27.7521 11.9 27.8488 11.929 27.9647 11.929C28.0613 11.929 28.2063 11.8904 28.3995 11.8131C28.4769 11.7938 28.5445 11.7744 28.6025 11.7551C28.6604 11.7358 28.7281 11.7261 28.8054 11.7261C28.96 11.6875 29.105 11.6681 29.2402 11.6681C29.3755 11.6681 29.5108 11.6681 29.6461 11.6681C30.3611 11.6681 31.0279 11.8131 31.6463 12.103C31.9169 12.2576 32.1295 12.4412 32.2841 12.6538C32.458 12.8664 32.5836 13.0693 32.661 13.2625C32.7576 13.4751 32.8252 13.678 32.8639 13.8713C32.9025 14.0646 32.9122 14.2095 32.8929 14.3061V14.3351V14.3641C32.8542 14.5381 32.7866 14.712 32.6899 14.8859C32.6126 15.0599 32.5257 15.2241 32.429 15.3787C32.9122 15.1855 33.405 14.9536 33.9075 14.683C33.9848 14.6444 34.1394 14.567 34.3713 14.4511C34.6032 14.3158 34.8545 14.1805 35.125 14.0452C35.4342 13.8906 35.7628 13.7167 36.1107 13.5234ZM28.2256 13.3495C28.0517 13.4848 27.8198 13.7457 27.5299 14.1322C27.2593 14.4994 26.9887 14.8859 26.7182 15.2918C26.4476 15.6783 26.206 16.0262 25.9934 16.3354C25.8002 16.6446 25.7036 16.7992 25.7036 16.7992C26.0708 16.7799 26.5249 16.6929 27.066 16.5383C27.6072 16.3644 28.1097 16.1131 28.5735 15.7846C28.7474 15.6493 28.96 15.4464 29.2112 15.1758C29.4818 14.8859 29.6944 14.596 29.849 14.3061C30.0229 14.0163 30.0906 13.7554 30.0519 13.5234C30.0326 13.2722 29.82 13.1176 29.4142 13.0596C29.1436 13.021 28.9214 13.021 28.7474 13.0596C28.5735 13.0983 28.3995 13.1949 28.2256 13.3495Z" fill="#48198F"/>
<path d="M35.3723 19.4372C34.5993 19.2826 34.0002 18.8961 33.575 18.2777C33.5364 18.2004 33.4977 18.1134 33.4591 18.0168C33.4204 17.9201 33.3818 17.8235 33.3431 17.7269C33.3045 17.2824 33.4687 16.7992 33.8359 16.2774C34.2031 15.7363 34.638 15.2145 35.1404 14.712C35.6429 14.2095 36.1454 13.7554 36.6479 13.3495C37.1697 12.9437 37.5465 12.6538 37.7784 12.4798C37.9137 12.3639 38.1263 12.2383 38.4162 12.103C38.7061 11.9484 39.025 11.8131 39.3728 11.6971C39.74 11.5812 40.1266 11.4845 40.5324 11.4072C40.9576 11.3299 41.3634 11.3106 41.75 11.3493C42.0399 11.4072 42.2138 11.5522 42.2718 11.7841C42.3491 11.9967 42.4457 12.2093 42.5617 12.4219C42.6776 12.6151 42.9578 12.7407 43.4023 12.7987C43.8468 12.8374 44.3203 12.8567 44.8228 12.8567C45.3253 12.8374 45.7795 12.8084 46.1853 12.7697C46.6105 12.7117 46.852 12.6828 46.91 12.6828C46.4269 12.818 45.9727 12.9437 45.5475 13.0596C45.1803 13.1562 44.8228 13.2529 44.4749 13.3495C44.1271 13.4461 43.8758 13.5138 43.7212 13.5524C43.6826 13.5524 43.6439 13.5814 43.6053 13.6394C43.5859 13.6974 43.5666 13.7457 43.5473 13.7843C43.1801 14.3448 42.7646 14.8859 42.3008 15.4077C41.8369 15.9295 41.3731 16.403 40.9093 16.8282C40.4454 17.2341 40.0009 17.5916 39.5758 17.9008C39.1699 18.21 38.8414 18.4323 38.5901 18.5676C38.3582 18.7028 38.136 18.8478 37.9234 19.0024C37.7108 19.1377 37.4789 19.2536 37.2277 19.3503C36.9378 19.4662 36.6382 19.5339 36.329 19.5532C36.0198 19.5532 35.7009 19.5145 35.3723 19.4372ZM40.9962 13.1756C40.803 13.0016 40.5131 12.9726 40.1266 13.0886C39.7594 13.1852 39.3535 13.3688 38.909 13.6394C38.4645 13.91 38.02 14.2385 37.5755 14.625C37.131 15.0115 36.7445 15.3981 36.416 15.7846C36.1067 16.1711 35.8845 16.5286 35.7492 16.8572C35.6139 17.1664 35.6429 17.3983 35.8362 17.5529C35.9328 17.6302 36.1551 17.6109 36.5029 17.495C36.8701 17.3597 37.276 17.1664 37.7205 16.9152C38.1843 16.6446 38.6481 16.3354 39.1119 15.9875C39.5951 15.6396 40.0106 15.2918 40.3585 14.9439C40.7063 14.596 40.9479 14.2675 41.0832 13.9583C41.2378 13.6297 41.2088 13.3688 40.9962 13.1756Z" fill="#48198F"/>
<path d="M53.9811 14.8859C54.0198 14.8859 54.0681 14.8859 54.1261 14.8859C54.2034 14.8666 54.2903 14.8376 54.387 14.799C53.3047 15.514 52.2997 16.1808 51.3721 16.7992C50.9856 17.0698 50.5894 17.3307 50.1835 17.5819C49.797 17.8332 49.4395 18.0747 49.1109 18.3067C48.7824 18.5192 48.4925 18.7125 48.2413 18.8864C47.99 19.041 47.8161 19.1473 47.7195 19.2053C47.4682 19.3599 47.2073 19.4759 46.9368 19.5532C46.6855 19.6112 46.4246 19.6112 46.154 19.5532C45.8835 19.4952 45.6806 19.3309 45.5453 19.0604C45.41 18.7705 45.41 18.4806 45.5453 18.1907C45.7965 17.6109 46.1057 17.0698 46.4729 16.5673C46.8594 16.0455 47.2653 15.5334 47.6905 15.0309C47.8644 14.799 48.0867 14.4801 48.3572 14.0742C48.6471 13.6684 48.8887 13.3398 49.0819 13.0886C48.8694 13.05 48.6375 13.05 48.3862 13.0886C48.1543 13.1273 47.9514 13.2529 47.7774 13.4655C47.6035 13.736 47.3523 14.0936 47.0237 14.5381C46.7145 14.9632 46.3763 15.4174 46.0091 15.9006C45.6612 16.3644 45.3134 16.8089 44.9655 17.2341C44.6369 17.6592 44.3664 17.9974 44.1538 18.2487L43.719 18.7705C43.4484 19.041 43.1488 19.2343 42.8203 19.3503C42.5111 19.4469 42.2212 19.5145 41.9506 19.5532C41.6221 19.5918 41.3032 19.5822 40.994 19.5242C40.936 19.5242 40.8877 19.5339 40.849 19.5532C41.0036 19.3406 41.1582 19.1377 41.3129 18.9444C41.4675 18.7512 41.6221 18.5579 41.7767 18.3646C41.9699 18.0747 42.2308 17.6882 42.5594 17.2051C42.9073 16.7219 43.2648 16.2291 43.632 15.7266C44.0185 15.2048 44.3857 14.712 44.7336 14.2482C45.0814 13.765 45.3617 13.3688 45.5743 13.0596C45.323 12.963 45.0911 12.8567 44.8785 12.7407C44.6853 12.6055 44.5403 12.4025 44.4437 12.132C44.405 12.0547 44.376 11.9774 44.3567 11.9C44.3374 11.8034 44.3471 11.7068 44.3857 11.6102C44.405 11.5522 44.463 11.4942 44.5596 11.4362C44.6563 11.3589 44.7336 11.3203 44.7916 11.3203C45.9125 11.3589 47.0334 11.3589 48.1543 11.3203C49.2752 11.2816 50.4155 11.156 51.575 10.9434C52.464 10.7695 53.1501 11.0207 53.6332 11.6971C53.5559 11.7744 53.4786 11.8517 53.4013 11.929C53.3434 12.0063 53.2757 12.0643 53.1984 12.103C52.8505 12.2962 52.5607 12.5185 52.3287 12.7697C52.0968 13.0016 51.8746 13.2722 51.662 13.5814C51.5074 13.794 51.3141 14.0452 51.0822 14.3351C50.8696 14.625 50.6377 14.9246 50.3865 15.2338C50.1546 15.5237 49.9226 15.8136 49.6907 16.1035C49.4781 16.374 49.2945 16.606 49.1399 16.7992C49.1013 16.8379 49.053 16.8862 48.995 16.9442C48.9563 17.0021 48.9563 17.0505 48.995 17.0891C49.0143 17.1278 49.2076 17.0698 49.5748 16.9152C49.9613 16.7606 50.4058 16.5673 50.9083 16.3354C51.4107 16.1035 51.9325 15.8619 52.4737 15.6107C53.0148 15.3401 53.469 15.0985 53.8362 14.8859H53.9811Z" fill="#48198F"/>
<path d="M74.0797 1.43496C74.0797 1.47362 74.07 1.57991 74.0507 1.75384C74.0507 1.92778 74.0313 2.06306 73.9927 2.15969C74.012 2.21767 74.0024 2.27565 73.9637 2.33363C73.9444 2.39161 73.9154 2.43992 73.8767 2.47857C73.8574 2.45925 73.8188 2.4979 73.7608 2.59453C73.7028 2.69116 73.6352 2.80712 73.5579 2.9424C73.4805 3.07768 73.4032 3.22263 73.3259 3.37724C73.268 3.51252 73.2293 3.60915 73.21 3.66713C73.1713 3.74443 73.1134 3.81207 73.0361 3.87005C72.9781 3.92803 72.9201 3.99567 72.8621 4.07298C72.4756 4.47882 72.1084 4.93299 71.7605 5.43547C71.5866 5.62873 71.3933 5.89929 71.1807 6.24716C70.9682 6.57571 70.7846 6.84627 70.6299 7.05886C70.4174 7.3874 70.1951 7.71595 69.9632 8.04449C69.7313 8.37303 69.4897 8.70158 69.2385 9.03012C69.1225 9.18473 69.0162 9.33934 68.9196 9.49395C68.823 9.62923 68.7263 9.77418 68.6297 9.92879C68.3591 10.2767 68.1079 10.6342 67.876 11.0014C67.6441 11.3493 67.4122 11.7068 67.1802 12.074C67.1609 12.1126 67.045 12.2866 66.8324 12.5958C66.6391 12.8857 66.3975 13.2529 66.1076 13.6974C65.8177 14.1225 65.4989 14.596 65.151 15.1178C64.8031 15.6203 64.4746 16.1131 64.1654 16.5963C63.8561 17.0601 63.5759 17.4756 63.3247 17.8428C63.0928 18.1907 62.9382 18.4323 62.8609 18.5676C62.5903 18.9927 62.3004 19.3986 61.9912 19.7851C61.7013 20.1909 61.4211 20.6065 61.1505 21.0316C60.9959 21.2442 60.822 21.5051 60.6287 21.8143C60.4548 22.1236 60.2712 22.4328 60.0779 22.742C59.8846 23.0705 59.701 23.3797 59.5271 23.6696C59.3532 23.9789 59.1889 24.2494 59.0343 24.4813C58.8797 24.6939 58.7541 24.9065 58.6574 25.1191C58.5608 25.351 58.4352 25.5733 58.2806 25.7859C58.2419 25.8825 58.1743 25.9598 58.0776 26.0178C58.0003 26.0757 57.923 26.1434 57.8457 26.2207H56.5992C56.5026 26.182 56.3963 26.1434 56.2803 26.1047C56.1837 26.0661 56.0871 26.0371 55.9904 26.0178C55.8358 25.9791 55.6715 25.9598 55.4976 25.9598C55.343 25.9598 55.1691 25.9501 54.9758 25.9308C55.0338 25.6216 55.0724 25.3317 55.0918 25.0611C55.1304 24.7906 55.1787 24.52 55.2367 24.2494C55.256 24.0755 55.3043 23.8532 55.3817 23.5827C55.459 23.3121 55.5266 23.0415 55.5846 22.771C55.6619 22.5004 55.7295 22.2298 55.7875 21.9593C55.8648 21.6887 55.9228 21.4665 55.9614 21.2925C56.0387 20.7901 56.1354 20.3069 56.2513 19.8431C56.3866 19.3792 56.5412 18.9154 56.7152 18.4516C56.9471 17.9298 57.15 17.3983 57.3239 16.8572C57.5172 16.3161 57.7105 15.7749 57.9037 15.2338C57.9424 15.1178 57.981 15.0019 58.0197 14.8859C58.0583 14.77 58.097 14.654 58.1356 14.5381L56.5412 16.7122C56.4832 16.8475 56.3866 17.0021 56.2513 17.1761L52.1059 23.4957C52.0286 23.5923 51.9513 23.6696 51.874 23.7276C51.7773 23.8049 51.6517 23.8242 51.4971 23.7856C51.1879 23.7083 50.9367 23.5537 50.7434 23.3218C50.5501 23.1092 50.3859 22.8483 50.2506 22.5391V22.4521C50.5211 21.7757 50.7917 21.0896 51.0623 20.3939C51.3135 19.7175 51.5744 19.041 51.845 18.3646C51.9223 18.21 51.9996 18.0651 52.0769 17.9298C52.1349 17.7945 52.2122 17.6496 52.3088 17.495C52.5407 17.1664 52.7243 16.8282 52.8596 16.4803C52.9949 16.1325 53.1398 15.7653 53.2944 15.3787C53.4297 15.0695 53.5843 14.7796 53.7583 14.5091C53.9322 14.2192 54.1061 13.9293 54.2801 13.6394C54.3767 13.4848 54.4733 13.3302 54.57 13.1756C54.6666 13.0016 54.7632 12.8374 54.8599 12.6828C55.2464 12.0063 55.6136 11.3396 55.9614 10.6825C56.3286 10.0254 56.7055 9.36833 57.092 8.71124C57.3819 8.18944 57.6911 7.68696 58.0197 7.2038C58.3482 6.70133 58.6574 6.19885 58.9473 5.69637C59.2372 5.25187 59.5368 4.7204 59.846 4.10196C60.1745 3.48353 60.4644 2.9424 60.7157 2.47857C60.8509 2.24666 61.0055 2.11138 61.1795 2.07272C61.3534 2.03407 61.5177 2.01475 61.6723 2.01475C61.8656 2.01475 62.0008 2.09205 62.0782 2.24666C62.1555 2.40127 62.2134 2.58487 62.2521 2.79745C62.3294 3.126 62.3294 3.45454 62.2521 3.78308C62.1941 4.0923 62.0975 4.41118 61.9622 4.73973C61.8462 5.04894 61.7013 5.35816 61.5274 5.66738C61.3727 5.95727 61.2278 6.22784 61.0925 6.47908C60.8606 6.92358 60.6094 7.35841 60.3388 7.78359C60.0876 8.20876 59.8363 8.6436 59.5851 9.0881C59.4305 9.35866 59.2565 9.62923 59.0633 9.8998C58.8893 10.1704 58.7251 10.4409 58.5705 10.7115C58.3579 11.04 58.1646 11.3686 57.9907 11.6971C57.8361 12.0257 57.6525 12.3542 57.4399 12.6828C57.3046 12.8953 57.179 13.0886 57.063 13.2625C56.9471 13.4365 56.8311 13.6297 56.7152 13.8423C56.5992 14.0356 56.4929 14.2288 56.3963 14.4221C56.319 14.6154 56.232 14.8183 56.1354 15.0309L58.9763 11.4652C59.0536 11.2719 59.1309 11.0884 59.2082 10.9144C59.2855 10.7405 59.3628 10.5665 59.4401 10.3926C59.8073 9.77418 60.1745 9.14608 60.5417 8.50832C60.9089 7.87056 61.2858 7.24246 61.6723 6.62402C61.7689 6.46941 61.8559 6.30514 61.9332 6.13121C62.0298 5.93794 62.2134 5.85098 62.484 5.8703C62.542 5.8703 62.6 5.88963 62.6579 5.92828C62.7159 5.94761 62.7739 5.9766 62.8319 6.01525C62.9285 6.0539 63.0155 6.09255 63.0928 6.13121C63.1894 6.16986 63.2764 6.21817 63.3537 6.27615C63.5856 6.43076 63.6726 6.61436 63.6146 6.82695C63.5759 7.03953 63.5566 7.27145 63.5566 7.52269C63.5179 7.88988 63.4406 8.22809 63.3247 8.53731C63.2281 8.84652 63.1024 9.15574 62.9478 9.46496C62.7932 9.90946 62.6096 10.3443 62.397 10.7695C62.1844 11.1946 62.0008 11.6295 61.8462 12.074C61.6916 12.4025 61.566 12.7407 61.4694 13.0886C61.3921 13.4171 61.2954 13.7457 61.1795 14.0742C61.1408 14.1709 61.1215 14.2578 61.1215 14.3351C61.1215 14.3931 61.1022 14.4608 61.0635 14.5381C60.8896 14.9826 60.7253 15.4367 60.5707 15.9006C60.4161 16.3451 60.2615 16.7896 60.1069 17.2341C60.0489 17.4466 59.9813 17.6592 59.904 17.8718C59.846 18.0651 59.7977 18.268 59.759 18.4806C59.8943 18.326 60.0103 18.1714 60.1069 18.0168C60.2035 17.8428 60.3195 17.6786 60.4548 17.5239C60.5321 17.408 60.619 17.292 60.7157 17.1761C60.8316 17.0601 60.9379 16.9442 61.0345 16.8282C61.479 16.1131 61.9429 15.3981 62.426 14.683C62.9092 13.9679 63.402 13.2529 63.9045 12.5378C64.1171 12.1706 64.3393 11.8131 64.5712 11.4652C64.8225 11.098 65.064 10.7308 65.2959 10.3636C65.3153 10.3443 65.4119 10.2187 65.5858 9.98676C65.7598 9.73552 65.953 9.4553 66.1656 9.14608C66.3975 8.83686 66.6198 8.53731 66.8324 8.24741C67.045 7.9382 67.2092 7.70628 67.3252 7.55167C67.4025 7.47437 67.5184 7.32942 67.6731 7.11684C67.847 6.90425 68.0209 6.69166 68.1949 6.47908C68.3881 6.24716 68.5524 6.04424 68.6877 5.8703C68.8423 5.67704 68.9389 5.56109 68.9776 5.52243C69.0355 5.46446 69.1515 5.32917 69.3254 5.11659C69.5187 4.904 69.7216 4.68175 69.9342 4.44984C70.1468 4.21792 70.3401 4.00533 70.514 3.81207C70.6879 3.61881 70.7942 3.50286 70.8329 3.4642C70.9488 3.32892 71.0648 3.2033 71.1807 3.08735C71.316 2.95206 71.4416 2.81678 71.5576 2.6815C71.5963 2.64284 71.6929 2.52689 71.8475 2.33363C72.0021 2.12104 72.176 1.89879 72.3693 1.66688C72.5626 1.43496 72.7558 1.23204 72.9491 1.0581C73.1423 0.864843 73.297 0.758549 73.4129 0.739223C73.4902 0.719897 73.5675 0.661919 73.6448 0.565289C73.7221 0.468659 73.7898 0.381691 73.8477 0.304386C73.8864 0.265734 73.9347 0.227081 73.9927 0.18843C74.0507 0.149778 74.128 0.0917998 74.2246 0.0144953C74.1666 0.169103 74.1183 0.333375 74.0797 0.50731C74.0603 0.661919 74.041 0.816528 74.0217 0.971137C74.0217 1.10642 74.0217 1.22238 74.0217 1.31901C74.0217 1.39631 74.041 1.43496 74.0797 1.43496Z" fill="#48198F"/>
<path d="M74.0726 17.6689C74.0726 17.7075 74.2562 17.6399 74.6234 17.466C75.01 17.292 75.4351 17.0794 75.899 16.8282C76.4208 16.5576 77.0295 16.2291 77.7253 15.8426V16.1615C77.1262 16.606 76.556 16.9925 76.0149 17.321C75.5511 17.5916 75.0873 17.8428 74.6234 18.0747C74.1596 18.2873 73.8117 18.355 73.5798 18.2777C73.232 18.181 73.0194 17.9684 72.9421 17.6399C72.8841 17.3114 72.8744 17.0311 72.9131 16.7992C72.4299 17.2244 71.9758 17.5916 71.5506 17.9008C71.1447 18.21 70.8065 18.4419 70.536 18.5965C70.304 18.7125 70.0818 18.8478 69.8692 19.0024C69.6566 19.1377 69.4247 19.2536 69.1735 19.3503C68.5937 19.5822 67.9753 19.6208 67.3182 19.4662C66.5451 19.3116 65.946 18.9251 65.5208 18.3067C65.4822 18.2293 65.4435 18.1424 65.4049 18.0457C65.3662 17.9491 65.3276 17.8525 65.2889 17.7559C65.2503 17.3114 65.4145 16.8282 65.7817 16.3064C66.1489 15.7653 66.5838 15.2435 67.0863 14.741C67.5887 14.2385 68.0912 13.7843 68.5937 13.3785C69.1155 12.9726 69.4924 12.6731 69.7243 12.4798C69.8596 12.3832 70.0721 12.2672 70.362 12.132C70.6519 11.9774 70.9708 11.8421 71.3187 11.7261C71.6859 11.6102 72.0724 11.5135 72.4782 11.4362C72.9034 11.3589 73.3093 11.3396 73.6958 11.3782C73.9857 11.4169 74.1596 11.5522 74.2176 11.7841C74.2949 11.9967 74.3915 12.2093 74.5075 12.4219C74.5268 12.4605 74.5558 12.4992 74.5944 12.5378C74.6911 12.6344 74.7974 12.818 74.9133 13.0886C75.0486 13.3398 75.0969 13.6587 75.0583 14.0452C75.0583 14.1225 75.0486 14.2095 75.0293 14.3061C75.01 14.3835 74.981 14.4704 74.9423 14.567C74.923 14.5864 74.9133 14.6057 74.9133 14.625C74.9133 14.625 74.9037 14.6347 74.8843 14.654C74.807 14.9053 74.7201 15.1951 74.6234 15.5237C74.5461 15.8522 74.4592 16.1711 74.3625 16.4803C74.2852 16.7896 74.2176 17.0601 74.1596 17.292C74.1016 17.5046 74.0726 17.6302 74.0726 17.6689ZM68.0139 17.495C68.2845 17.4756 68.6807 17.292 69.2025 16.9442C69.7436 16.577 70.2847 16.1615 70.8259 15.6976C71.367 15.2145 71.8405 14.741 72.2463 14.2772C72.6715 13.794 72.9034 13.4365 72.9421 13.2046C72.7295 13.1466 72.5169 13.1176 72.3043 13.1176C72.111 13.1176 71.8985 13.1466 71.6665 13.2046C71.4346 13.2432 71.2124 13.3302 70.9998 13.4655C70.8645 13.5621 70.6326 13.7264 70.304 13.9583C69.9948 14.1902 69.6566 14.4511 69.2894 14.741C68.9416 15.0309 68.5937 15.3401 68.2458 15.6686C67.9173 15.9779 67.666 16.2677 67.4921 16.5383C67.3182 16.8089 67.2602 17.0311 67.3182 17.2051C67.3761 17.379 67.6081 17.4756 68.0139 17.495Z" fill="#48198F"/>
<path d="M89.0528 12.9437C89.1108 12.963 89.1301 13.0016 89.1108 13.0596C89.1108 13.0983 89.0818 13.1176 89.0238 13.1176L88.1251 13.2046C87.9705 13.2239 87.8159 13.2432 87.6613 13.2625C87.5067 13.2625 87.3521 13.2819 87.1975 13.3205C86.8883 13.3592 86.579 13.4171 86.2698 13.4945C85.9799 13.5718 85.69 13.6587 85.4001 13.7554C85.0909 13.852 84.8107 13.9486 84.5595 14.0452C83.9604 14.6057 83.3419 15.1855 82.7042 15.7846C82.0664 16.3837 81.4769 16.9345 80.9358 17.437C80.3947 17.9395 79.9309 18.3743 79.5443 18.7415C79.1578 19.0894 78.9259 19.2923 78.8486 19.3503C78.5587 19.5822 78.2398 19.7851 77.892 19.959C77.7567 20.017 77.6117 20.0073 77.4571 19.93C77.3025 19.8914 77.1576 19.8237 77.0223 19.7271C76.887 19.6498 76.7421 19.5918 76.5874 19.5532C76.1236 19.3986 75.9014 19.099 75.9207 18.6545C75.9207 18.4226 75.8917 18.1617 75.8337 17.8718C75.8724 17.7172 75.9593 17.466 76.0946 17.1181C76.2299 16.7702 76.3845 16.3837 76.5585 15.9585C76.7324 15.5334 76.916 15.0889 77.1093 14.625C77.3218 14.1612 77.5151 13.736 77.689 13.3495C77.863 12.9437 78.0176 12.6055 78.1529 12.3349C78.2881 12.045 78.3751 11.8711 78.4138 11.8131C78.4911 11.7164 78.5684 11.6391 78.6457 11.5812C78.7423 11.5232 78.8679 11.5329 79.0225 11.6102C79.1771 11.7068 79.3511 11.7648 79.5443 11.7841C79.7376 11.8034 79.9212 11.8324 80.0951 11.8711C80.327 11.929 80.4817 12.0547 80.559 12.2479C80.6556 12.4219 80.6556 12.6151 80.559 12.8277C80.501 12.9823 80.3947 13.1949 80.2401 13.4655C80.1048 13.7167 79.9599 13.9969 79.8052 14.3061C79.6506 14.596 79.496 14.8859 79.3414 15.1758C79.1868 15.4657 79.0612 15.7073 78.9646 15.9006L79.0515 15.9875L79.7763 15.3208L82.994 12.132L84.4145 10.8564C84.4918 10.7791 84.5788 10.7501 84.6754 10.7695C84.9653 10.8468 85.2455 10.9337 85.5161 11.0304C85.806 11.127 86.0379 11.3106 86.2118 11.5812C86.2891 11.6778 86.3085 11.8034 86.2698 11.958C86.2312 12.1126 86.1925 12.2576 86.1539 12.3929C86.0959 12.5475 85.9896 12.7021 85.835 12.8567L85.4871 13.2046C85.777 13.1273 86.0669 13.0693 86.3568 13.0306C86.6467 12.9726 86.9462 12.9243 87.2555 12.8857C87.4101 12.8664 87.5647 12.8567 87.7193 12.8567C87.8739 12.8374 88.0285 12.8374 88.1831 12.8567C88.3377 12.8567 88.4827 12.8664 88.6179 12.8857C88.7532 12.905 88.8982 12.9243 89.0528 12.9437Z" fill="#48198F"/>
<path d="M87.3968 17.8428C87.5127 17.9395 87.7833 17.9781 88.2085 17.9588C88.6336 17.9201 89.1265 17.8525 89.6869 17.7559C90.2667 17.6399 90.8755 17.5143 91.5132 17.379C92.1703 17.2244 92.7888 17.0891 93.3685 16.9731C93.9483 16.8379 94.4508 16.7316 94.876 16.6543C95.3205 16.577 95.62 16.548 95.7746 16.5673L95.7457 16.5963C95.6683 16.6349 95.4558 16.7219 95.1079 16.8572C94.76 16.9925 94.3445 17.1567 93.8614 17.35C93.3975 17.5239 92.8854 17.7172 92.3249 17.9298C91.7838 18.1231 91.2717 18.3066 90.7885 18.4806C90.3054 18.6545 89.8898 18.8091 89.542 18.9444C89.1941 19.0797 88.9815 19.157 88.9042 19.1763C88.6143 19.2923 88.3148 19.3599 88.0055 19.3792C87.6963 19.3792 87.3775 19.3503 87.0489 19.2923C86.2759 19.1183 85.6768 18.7318 85.2516 18.1327C85.2129 18.0554 85.1743 17.9684 85.1356 17.8718C85.097 17.7752 85.0583 17.6786 85.0197 17.5819C84.981 17.1374 85.1453 16.6446 85.5125 16.1035C85.8797 15.5623 86.3145 15.0502 86.817 14.567C87.3195 14.0646 87.8219 13.6104 88.3244 13.2046C88.8462 12.7987 89.2231 12.4992 89.455 12.3059C89.5903 12.1899 89.8029 12.0643 90.0928 11.929C90.3827 11.7744 90.7015 11.6391 91.0494 11.5232C91.4166 11.4072 91.8031 11.3203 92.209 11.2623C92.6341 11.185 93.04 11.1657 93.4265 11.2043C93.7164 11.243 93.8903 11.3782 93.9483 11.6102C94.0256 11.8227 94.1223 12.0353 94.2382 12.2479C94.3155 12.3639 94.5088 12.4412 94.818 12.4798C94.9726 12.5765 95.1079 12.6924 95.2238 12.8277C95.3398 12.963 95.3978 13.1466 95.3978 13.3785C95.3205 13.3978 95.2625 13.4751 95.2238 13.6104C95.1079 13.7843 95.0113 13.9293 94.9339 14.0452C94.876 14.1612 94.818 14.2675 94.76 14.3641C94.702 14.4414 94.6247 14.5284 94.5281 14.625C94.4508 14.7217 94.3445 14.8473 94.2092 15.0019C93.9773 15.2145 93.5811 15.3594 93.0207 15.4367C92.4795 15.4947 91.9287 15.5334 91.3683 15.5527C90.7112 15.572 89.9865 15.5623 89.1941 15.5237H89.1651C88.9912 15.6976 88.7979 15.9006 88.5853 16.1325C88.3921 16.3451 88.2085 16.5673 88.0345 16.7992C87.8799 17.0118 87.735 17.2147 87.5997 17.408C87.4837 17.6012 87.4161 17.7462 87.3968 17.8428ZM90.9624 15.0599C92.0447 14.1515 92.6148 13.4751 92.6728 13.0306C92.2476 13.1852 91.7452 13.4655 91.1654 13.8713C90.6049 14.2578 90.0734 14.683 89.571 15.1468C89.7449 15.1855 89.9478 15.1951 90.1797 15.1758C90.431 15.1372 90.6919 15.0985 90.9624 15.0599Z" fill="#48198F"/>
<path d="M98.7356 24.4813C99.0062 24.4234 99.2188 24.2688 99.3734 24.0175C99.528 23.7856 99.6826 23.573 99.8372 23.3798C100.204 22.9739 100.543 22.5487 100.852 22.1042C101.161 21.6597 101.48 21.2152 101.808 20.7707C102.021 20.5002 102.243 20.2489 102.475 20.017C102.707 19.8044 102.929 19.5725 103.142 19.3213C103.239 19.2053 103.413 19.0024 103.664 18.7125C103.915 18.4226 104.205 18.0844 104.533 17.6979C104.862 17.3114 105.2 16.9055 105.548 16.4803C105.915 16.0358 106.263 15.63 106.592 15.2628C106.92 14.8763 107.2 14.5381 107.432 14.2482C107.684 13.9583 107.858 13.7554 107.954 13.6394C108.051 13.5428 108.138 13.4558 108.215 13.3785C108.292 13.3012 108.379 13.2142 108.476 13.1176C108.766 12.8277 108.737 12.6538 108.389 12.5958C108.234 12.5571 108.07 12.5378 107.896 12.5378C107.722 12.5378 107.548 12.5281 107.374 12.5088H106.824C106.804 12.4702 106.795 12.4315 106.795 12.3929C106.795 12.3542 106.785 12.3156 106.766 12.2769C106.901 12.1803 107.027 12.0836 107.142 11.987C107.258 11.8711 107.384 11.7938 107.519 11.7551C107.944 11.6005 108.36 11.4555 108.766 11.3203C109.191 11.185 109.607 11.04 110.012 10.8854C110.167 10.8274 110.322 10.7405 110.476 10.6245C110.631 10.4892 110.776 10.354 110.911 10.2187C111.375 9.75485 111.81 9.26203 112.216 8.74023C112.428 8.48899 112.631 8.23775 112.824 7.98651C113.037 7.71595 113.269 7.41639 113.52 7.08785C113.288 7.1265 113.056 7.16515 112.824 7.2038C112.612 7.24246 112.399 7.28111 112.187 7.31976C112.032 7.35841 111.868 7.40673 111.694 7.46471C111.539 7.52269 111.385 7.571 111.23 7.60965C110.785 7.66763 110.331 7.72561 109.867 7.78359C109.423 7.82224 108.978 7.87056 108.534 7.92853C108.515 7.88988 108.505 7.85123 108.505 7.81258C108.505 7.77392 108.495 7.73527 108.476 7.69662C108.592 7.58066 108.698 7.46471 108.795 7.34875C108.911 7.21347 109.027 7.11684 109.143 7.05886C109.78 6.73031 110.418 6.41143 111.056 6.10222C111.694 5.77367 112.341 5.47412 112.998 5.20355C113.539 4.99097 114.081 4.81703 114.622 4.68175C115.163 4.54647 115.704 4.39186 116.245 4.21792C116.458 4.14062 116.651 4.04399 116.825 3.92803C117.018 3.79275 117.221 3.66713 117.434 3.55117C117.588 3.45454 117.733 3.35791 117.868 3.26128C118.023 3.16465 118.178 3.06802 118.332 2.97139C118.371 3.10667 118.39 3.21296 118.39 3.29027C118.41 3.36757 118.439 3.45454 118.477 3.55117C119.154 3.39656 119.83 3.25162 120.506 3.11633C121.183 2.96173 121.859 2.80712 122.536 2.65251C123.173 2.4979 123.811 2.36262 124.449 2.24666C125.087 2.11138 125.715 1.95677 126.333 1.78283C127.01 1.58957 127.676 1.38665 128.334 1.17406C129.01 0.942148 129.686 0.719897 130.363 0.50731C130.73 0.410679 131.088 0.323712 131.435 0.246407C131.783 0.169104 132.131 0.0917998 132.479 0.0144953C132.808 -0.0434835 132.972 0.0917992 132.972 0.420343C132.991 0.5363 133.03 0.652256 133.088 0.768212C133.146 0.864843 133.204 0.961473 133.262 1.0581C133.223 1.09676 133.184 1.11608 133.146 1.11608C133.242 1.15473 133.329 1.18372 133.407 1.20305C133.503 1.22238 133.6 1.25137 133.697 1.29002C133.697 1.56058 133.581 1.8698 133.349 2.21767C133.117 2.54621 132.885 2.74914 132.653 2.82644C132.228 2.96173 131.803 3.08734 131.377 3.2033C130.972 3.29993 130.566 3.41589 130.16 3.55117C129.889 3.6478 129.619 3.73477 129.348 3.81207C129.078 3.88938 128.807 3.97635 128.536 4.07298C127.995 4.22759 127.454 4.38219 126.913 4.5368C126.372 4.67208 125.821 4.80737 125.261 4.94265C124.546 5.09726 123.831 5.23254 123.115 5.3485C122.42 5.46446 121.705 5.59974 120.97 5.75435C120.738 5.793 120.497 5.83165 120.246 5.8703C120.014 5.88963 119.772 5.92828 119.521 5.98626C119.289 6.02491 119.057 6.08289 118.825 6.16019C118.613 6.21817 118.41 6.39211 118.216 6.682C117.965 7.10717 117.656 7.45504 117.289 7.72561C116.921 7.99617 116.583 8.31506 116.274 8.68225C116.177 8.79821 116.061 8.91416 115.926 9.03012C115.81 9.14608 115.694 9.26203 115.578 9.37799C115.617 9.4553 115.636 9.49395 115.636 9.49395C116.158 9.37799 116.68 9.26203 117.202 9.14608C117.724 9.01079 118.236 8.88518 118.738 8.76922C118.97 8.71124 119.202 8.66292 119.434 8.62427C119.666 8.56629 119.888 8.51798 120.101 8.47933C120.333 8.46 120.516 8.53731 120.651 8.71124C120.787 8.86585 120.845 9.07844 120.825 9.349C120.825 9.38765 120.816 9.43597 120.796 9.49395C120.796 9.5326 120.806 9.57125 120.825 9.6099C120.922 9.70653 120.97 9.80317 120.97 9.8998C120.99 9.9771 120.97 10.0544 120.912 10.1317C120.874 10.209 120.816 10.2863 120.738 10.3636C120.68 10.4216 120.622 10.4796 120.564 10.5376C120.448 10.6728 120.323 10.7888 120.188 10.8854C120.052 10.9821 119.907 11.0787 119.753 11.1753C119.733 11.1946 119.714 11.214 119.695 11.2333C119.695 11.2526 119.675 11.2719 119.637 11.2913C119.076 11.4266 118.506 11.5618 117.926 11.6971C117.347 11.8324 116.767 11.9484 116.187 12.045C115.801 12.103 115.424 12.1416 115.057 12.161C114.689 12.161 114.312 12.1706 113.926 12.1899C113.501 12.1899 113.143 12.3252 112.853 12.5958C112.563 12.8664 112.274 13.1659 111.984 13.4945C111.81 13.707 111.626 13.9196 111.433 14.1322C111.24 14.3448 111.056 14.5574 110.882 14.77C110.805 14.8666 110.65 15.0502 110.418 15.3208C110.186 15.5913 109.916 15.9102 109.607 16.2774C109.317 16.6446 108.998 17.0311 108.65 17.437C108.321 17.8428 108.002 18.2293 107.693 18.5965C107.403 18.9637 107.142 19.2923 106.911 19.5822C106.698 19.8527 106.553 20.0267 106.476 20.104C105.567 21.1669 104.659 22.1912 103.751 23.1768C103.48 23.486 103.219 23.7856 102.968 24.0755C102.697 24.3847 102.437 24.7036 102.185 25.0321C101.992 25.264 101.789 25.4283 101.577 25.5249C101.364 25.6216 101.142 25.6989 100.91 25.7569C100.832 25.7762 100.755 25.7859 100.678 25.7859C100.601 25.8052 100.523 25.8342 100.446 25.8728H100.069C100.069 25.7569 100.059 25.6892 100.04 25.6699C99.9435 25.5926 99.8469 25.5153 99.7502 25.438C99.6536 25.38 99.5473 25.3317 99.4314 25.293C99.3541 25.2737 99.2961 25.2254 99.2574 25.1481C99.2188 25.0708 99.1801 24.9935 99.1415 24.9162C99.0835 24.8389 99.0255 24.7712 98.9675 24.7133C98.9096 24.6746 98.8226 24.6746 98.7066 24.7133C98.7066 24.6746 98.7163 24.6359 98.7356 24.5973C98.7356 24.5586 98.7356 24.52 98.7356 24.4813Z" fill="#48198F"/>
<path d="M121.92 12.7117C122.017 12.8277 122.123 12.9437 122.239 13.0596C122.355 13.1562 122.48 13.2722 122.616 13.4075C122.345 13.8713 122.075 14.3351 121.804 14.799C121.533 15.2628 121.253 15.7266 120.963 16.1904C120.925 16.2677 120.847 16.403 120.731 16.5963C120.615 16.7896 120.48 17.0021 120.325 17.2341C120.171 17.466 119.997 17.7172 119.804 17.9878C119.63 18.239 119.446 18.4709 119.253 18.6835C119.465 18.5869 119.678 18.4806 119.891 18.3646C120.103 18.2487 120.316 18.1231 120.528 17.9878C120.702 17.8718 120.876 17.7559 121.05 17.6399C121.224 17.5046 121.408 17.379 121.601 17.263L122.036 16.9152C122.094 16.8765 122.142 16.8379 122.181 16.7992C122.239 16.7606 122.287 16.7219 122.326 16.6833C122.326 16.6639 122.258 16.7316 122.123 16.8862C122.007 17.0215 121.852 17.1954 121.659 17.408C121.485 17.6012 121.301 17.7945 121.108 17.9878C120.934 18.1617 120.809 18.2873 120.731 18.3646C120.577 18.4806 120.432 18.5965 120.297 18.7125C120.161 18.8091 120.016 18.8961 119.862 18.9734C119.63 19.0894 119.379 19.1957 119.108 19.2923C118.857 19.3889 118.596 19.4566 118.325 19.4952C118.055 19.5918 117.794 19.5532 117.543 19.3792C117.291 19.186 117.137 18.9831 117.079 18.7705C117.059 18.6545 117.069 18.5096 117.108 18.3356C117.146 18.1424 117.195 17.9491 117.253 17.7559C117.33 17.5433 117.407 17.35 117.485 17.1761C117.562 17.0021 117.62 16.8765 117.659 16.7992C117.774 16.6253 117.948 16.3644 118.18 16.0165C118.412 15.6493 118.654 15.2821 118.905 14.9149C119.156 14.5284 119.388 14.1709 119.601 13.8423C119.813 13.5138 119.958 13.2915 120.036 13.1756C120.132 13.0403 120.219 12.9147 120.297 12.7987C120.393 12.6634 120.509 12.5475 120.644 12.4508C120.857 12.2962 121.079 12.2479 121.311 12.3059C121.562 12.3639 121.765 12.4992 121.92 12.7117ZM123.92 11.1463C123.959 11.3396 123.901 11.5232 123.746 11.6971C123.611 11.8711 123.447 11.9774 123.253 12.016C123.021 12.0547 122.78 12.0933 122.529 12.132C122.297 12.1706 122.075 12.1706 121.862 12.132C121.669 12.0933 121.417 11.9677 121.108 11.7551C120.818 11.5232 120.644 11.2816 120.586 11.0304C120.567 10.9917 120.586 10.9337 120.644 10.8564C120.702 10.7791 120.751 10.7308 120.789 10.7115C121.118 10.6535 121.446 10.5955 121.775 10.5376C122.104 10.4796 122.432 10.4313 122.761 10.3926C122.819 10.3733 122.915 10.3636 123.05 10.3636C123.05 10.3443 123.147 10.3636 123.34 10.4216C123.534 10.4603 123.679 10.5279 123.775 10.6245C123.833 10.6632 123.862 10.7405 123.862 10.8564C123.862 10.9531 123.882 11.0497 123.92 11.1463ZM122.616 13.3785V13.4075V13.3785Z" fill="#48198F"/>
<path d="M132.441 12.5958C132.479 12.6151 132.537 12.6634 132.615 12.7407C132.711 12.818 132.808 12.905 132.905 13.0016C133.001 13.0983 133.078 13.2046 133.136 13.3205C133.214 13.4365 133.252 13.5428 133.252 13.6394C133.156 14.5284 132.866 15.3594 132.383 16.1325C131.9 16.9055 131.368 17.6689 130.788 18.4226C131.098 18.2873 131.474 18.0651 131.919 17.7559C132.383 17.4466 132.827 17.1278 133.252 16.7992C133.678 16.4707 134.035 16.1808 134.325 15.9295C134.634 15.6783 134.799 15.5527 134.818 15.5527C134.741 15.63 134.518 15.8522 134.151 16.2194C133.784 16.5866 133.339 17.0021 132.818 17.466C132.296 17.9105 131.726 18.355 131.107 18.7995C130.508 19.244 129.938 19.5918 129.397 19.8431C128.856 20.1136 128.392 20.2296 128.005 20.1909C127.619 20.1716 127.377 19.9107 127.281 19.4082C127.242 19.273 127.261 19.1473 127.339 19.0314C127.609 18.6449 127.88 18.2487 128.15 17.8428C128.44 17.437 128.72 17.0408 128.991 16.6543C129.068 16.5383 129.175 16.3837 129.31 16.1904C129.464 15.9779 129.609 15.7749 129.745 15.5817C129.88 15.3884 129.996 15.2145 130.093 15.0599C130.209 14.8859 130.276 14.7796 130.296 14.741C129.909 14.7603 129.493 14.828 129.049 14.9439C128.604 15.0405 128.112 15.2725 127.571 15.6396C127.416 15.7556 127.223 15.9875 126.991 16.3354C126.759 16.6639 126.517 17.0311 126.266 17.437C126.015 17.8235 125.773 18.1907 125.541 18.5386C125.309 18.8864 125.126 19.1183 124.991 19.2343C124.72 19.4469 124.459 19.5725 124.208 19.6112C123.976 19.6498 123.725 19.5628 123.454 19.3503C123.415 19.3116 123.415 19.3019 123.454 19.3213C123.493 19.3213 123.493 19.3213 123.454 19.3213C123.28 19.2053 123.126 19.0797 122.99 18.9444C122.874 18.8285 122.768 18.6932 122.671 18.5386C122.575 18.384 122.536 18.21 122.555 18.0168C122.845 17.6689 123.203 17.1664 123.628 16.5093C124.053 15.8329 124.478 15.1468 124.904 14.4511C125.348 13.7554 125.754 13.1079 126.121 12.5088C126.488 11.8904 126.749 11.4652 126.904 11.2333C127.097 10.9241 127.348 10.8081 127.658 10.8854C127.889 10.9821 128.121 11.069 128.353 11.1463C128.604 11.2236 128.836 11.3106 129.049 11.4072C129.204 11.4652 129.291 11.5908 129.31 11.7841C129.349 11.9774 129.31 12.1513 129.194 12.3059C128.981 12.6151 128.778 12.934 128.585 13.2625C128.392 13.5718 128.208 13.9003 128.034 14.2482C128.247 14.0936 128.46 13.9293 128.672 13.7554C128.904 13.5814 129.146 13.4171 129.397 13.2625C129.648 13.1079 129.899 12.9533 130.151 12.7987C130.421 12.6441 130.692 12.4992 130.962 12.3639C131.233 12.2479 131.484 12.2383 131.716 12.3349C131.948 12.4315 132.189 12.5185 132.441 12.5958Z" fill="#48198F"/>
<path d="M142.479 17.6689C142.479 17.7075 142.663 17.6399 143.03 17.466C143.416 17.292 143.842 17.0794 144.305 16.8282C144.827 16.5576 145.436 16.2291 146.132 15.8426V16.1615C145.533 16.606 144.963 16.9925 144.421 17.321C143.958 17.5916 143.494 17.8428 143.03 18.0747C142.566 18.2873 142.218 18.355 141.986 18.2777C141.638 18.181 141.426 17.9684 141.349 17.6399C141.291 17.3114 141.281 17.0311 141.32 16.7992C140.836 17.2244 140.382 17.5916 139.957 17.9008C139.551 18.21 139.213 18.4419 138.942 18.5965C138.711 18.7125 138.488 18.8478 138.276 19.0024C138.063 19.1377 137.831 19.2536 137.58 19.3503C137 19.5822 136.382 19.6208 135.725 19.4662C134.952 19.3116 134.352 18.9251 133.927 18.3067C133.889 18.2293 133.85 18.1424 133.811 18.0457C133.773 17.9491 133.734 17.8525 133.695 17.7559C133.657 17.3114 133.821 16.8282 134.188 16.3064C134.555 15.7653 134.99 15.2435 135.493 14.741C135.995 14.2385 136.498 13.7843 137 13.3785C137.522 12.9726 137.899 12.6731 138.131 12.4798C138.266 12.3832 138.479 12.2672 138.768 12.132C139.058 11.9774 139.377 11.8421 139.725 11.7261C140.092 11.6102 140.479 11.5135 140.885 11.4362C141.31 11.3589 141.716 11.3396 142.102 11.3782C142.392 11.4169 142.566 11.5522 142.624 11.7841C142.701 11.9967 142.798 12.2093 142.914 12.4219C142.933 12.4605 142.962 12.4992 143.001 12.5378C143.098 12.6344 143.204 12.818 143.32 13.0886C143.455 13.3398 143.503 13.6587 143.465 14.0452C143.465 14.1225 143.455 14.2095 143.436 14.3061C143.416 14.3835 143.387 14.4704 143.349 14.567C143.329 14.5864 143.32 14.6057 143.32 14.625C143.32 14.625 143.31 14.6347 143.291 14.654C143.214 14.9053 143.127 15.1951 143.03 15.5237C142.953 15.8522 142.866 16.1711 142.769 16.4803C142.692 16.7896 142.624 17.0601 142.566 17.292C142.508 17.5046 142.479 17.6302 142.479 17.6689ZM136.42 17.495C136.691 17.4756 137.087 17.292 137.609 16.9442C138.15 16.577 138.691 16.1615 139.232 15.6976C139.773 15.2145 140.247 14.741 140.653 14.2772C141.078 13.794 141.31 13.4365 141.349 13.2046C141.136 13.1466 140.923 13.1176 140.711 13.1176C140.518 13.1176 140.305 13.1466 140.073 13.2046C139.841 13.2432 139.619 13.3302 139.406 13.4655C139.271 13.5621 139.039 13.7264 138.711 13.9583C138.401 14.1902 138.063 14.4511 137.696 14.741C137.348 15.0309 137 15.3401 136.652 15.6686C136.324 15.9779 136.072 16.2677 135.899 16.5383C135.725 16.8089 135.667 17.0311 135.725 17.2051C135.783 17.379 136.015 17.4756 136.42 17.495Z" fill="#48198F"/>
<path d="M154.097 12.5958C154.135 12.6151 154.193 12.6634 154.27 12.7407C154.367 12.818 154.464 12.905 154.56 13.0016C154.657 13.0983 154.734 13.2046 154.792 13.3205C154.87 13.4365 154.908 13.5428 154.908 13.6394C154.812 14.5284 154.522 15.3594 154.039 16.1325C153.555 16.9055 153.024 17.6689 152.444 18.4226C152.753 18.2873 153.13 18.0651 153.575 17.7559C154.039 17.4466 154.483 17.1278 154.908 16.7992C155.333 16.4707 155.691 16.1808 155.981 15.9295C156.29 15.6783 156.454 15.5527 156.474 15.5527C156.396 15.63 156.174 15.8522 155.807 16.2194C155.44 16.5866 154.995 17.0021 154.473 17.466C153.952 17.9105 153.381 18.355 152.763 18.7995C152.164 19.244 151.594 19.5918 151.053 19.8431C150.512 20.1136 150.048 20.2296 149.661 20.1909C149.275 20.1716 149.033 19.9107 148.936 19.4082C148.898 19.273 148.917 19.1473 148.994 19.0314C149.265 18.6449 149.536 18.2487 149.806 17.8428C150.096 17.437 150.376 17.0408 150.647 16.6543C150.724 16.5383 150.83 16.3837 150.966 16.1904C151.12 15.9779 151.265 15.7749 151.401 15.5817C151.536 15.3884 151.652 15.2145 151.748 15.0599C151.864 14.8859 151.932 14.7796 151.951 14.741C151.565 14.7603 151.149 14.828 150.705 14.9439C150.26 15.0405 149.767 15.2725 149.226 15.6396C149.072 15.7556 148.878 15.9875 148.647 16.3354C148.415 16.6639 148.173 17.0311 147.922 17.437C147.671 17.8235 147.429 18.1907 147.197 18.5386C146.965 18.8864 146.782 19.1183 146.646 19.2343C146.376 19.4469 146.115 19.5725 145.864 19.6112C145.632 19.6498 145.38 19.5628 145.11 19.3503C145.071 19.3116 145.071 19.3019 145.11 19.3213C145.149 19.3213 145.149 19.3213 145.11 19.3213C144.936 19.2053 144.781 19.0797 144.646 18.9444C144.53 18.8285 144.424 18.6932 144.327 18.5386C144.231 18.384 144.192 18.21 144.211 18.0168C144.501 17.6689 144.859 17.1664 145.284 16.5093C145.709 15.8329 146.134 15.1468 146.559 14.4511C147.004 13.7554 147.41 13.1079 147.777 12.5088C148.144 11.8904 148.405 11.4652 148.56 11.2333C148.753 10.9241 149.004 10.8081 149.313 10.8854C149.545 10.9821 149.777 11.069 150.009 11.1463C150.26 11.2236 150.492 11.3106 150.705 11.4072C150.859 11.4652 150.946 11.5908 150.966 11.7841C151.004 11.9774 150.966 12.1513 150.85 12.3059C150.637 12.6151 150.434 12.934 150.241 13.2625C150.048 13.5718 149.864 13.9003 149.69 14.2482C149.903 14.0936 150.115 13.9293 150.328 13.7554C150.56 13.5814 150.801 13.4171 151.053 13.2625C151.304 13.1079 151.555 12.9533 151.806 12.7987C152.077 12.6441 152.347 12.4992 152.618 12.3639C152.889 12.2479 153.14 12.2383 153.372 12.3349C153.604 12.4315 153.845 12.5185 154.097 12.5958Z" fill="#48198F"/>
<path d="M165.15 12.5088C165.227 12.5475 165.275 12.6538 165.294 12.8277C165.333 12.9823 165.343 13.1659 165.323 13.3785C165.323 13.5911 165.285 13.8133 165.208 14.0452C165.13 14.2578 165.024 14.4414 164.889 14.596C164.27 14.77 163.739 14.8859 163.294 14.9439C162.85 15.0019 162.405 14.9922 161.961 14.9149C162.328 14.4511 162.579 14.0936 162.714 13.8423C162.869 13.5911 162.966 13.3302 163.004 13.0596C162.541 13.2335 161.98 13.5621 161.323 14.0452C160.666 14.5284 160.067 15.0309 159.526 15.5527C159.506 15.5527 159.497 15.5623 159.497 15.5817C159.323 15.7556 159.129 15.9585 158.917 16.1904C158.724 16.403 158.54 16.6253 158.366 16.8572C158.211 17.0698 158.067 17.2727 157.931 17.466C157.815 17.6399 157.748 17.7752 157.728 17.8718C157.844 17.9684 158.115 18.0071 158.54 17.9878C158.965 17.9491 159.458 17.8815 160.018 17.7848C160.598 17.6882 161.207 17.5626 161.845 17.408C162.502 17.2534 163.12 17.1181 163.7 17.0021C164.28 16.8669 164.782 16.7606 165.208 16.6833C165.652 16.606 165.952 16.577 166.106 16.5963C166.106 16.6156 166.097 16.6253 166.077 16.6253C166 16.6639 165.787 16.7509 165.439 16.8862C165.092 17.0215 164.676 17.1857 164.193 17.379C163.729 17.5529 163.217 17.7462 162.656 17.9588C162.115 18.152 161.603 18.3356 161.12 18.5096C160.637 18.6835 160.221 18.8381 159.874 18.9734C159.526 19.1087 159.313 19.186 159.236 19.2053C158.656 19.4372 158.038 19.4759 157.38 19.3213C156.607 19.1667 156.008 18.7801 155.583 18.1617C155.544 18.0844 155.506 17.9974 155.467 17.9008C155.429 17.8042 155.39 17.7075 155.351 17.6109C155.313 17.1664 155.477 16.6833 155.844 16.1615C156.211 15.6203 156.646 15.0985 157.149 14.596C157.651 14.0936 158.153 13.6394 158.656 13.2335C159.178 12.8277 159.555 12.5281 159.787 12.3349C159.922 12.2383 160.134 12.1223 160.424 11.987C160.714 11.8324 161.033 11.6971 161.381 11.5812C161.748 11.4652 162.135 11.3686 162.541 11.2913C162.966 11.214 163.372 11.1946 163.758 11.2333C164.048 11.2719 164.222 11.4072 164.28 11.6391C164.357 11.8517 164.454 12.0643 164.57 12.2769C164.666 12.4315 164.86 12.5088 165.15 12.5088Z" fill="#48198F"/>
<path d="M167.622 17.8428C167.738 17.9395 168.008 17.9781 168.434 17.9588C168.859 17.9201 169.352 17.8525 169.912 17.7559C170.492 17.6399 171.101 17.5143 171.738 17.379C172.396 17.2244 173.014 17.0891 173.594 16.9731C174.174 16.8379 174.676 16.7316 175.101 16.6543C175.546 16.577 175.845 16.548 176 16.5673L175.971 16.5963C175.894 16.6349 175.681 16.7219 175.333 16.8572C174.985 16.9925 174.57 17.1567 174.087 17.35C173.623 17.5239 173.111 17.7172 172.55 17.9298C172.009 18.1231 171.497 18.3066 171.014 18.4806C170.531 18.6545 170.115 18.8091 169.767 18.9444C169.419 19.0797 169.207 19.157 169.129 19.1763C168.84 19.2923 168.54 19.3599 168.231 19.3792C167.922 19.3792 167.603 19.3503 167.274 19.2923C166.501 19.1183 165.902 18.7318 165.477 18.1327C165.438 18.0554 165.399 17.9684 165.361 17.8718C165.322 17.7752 165.284 17.6786 165.245 17.5819C165.206 17.1374 165.37 16.6446 165.738 16.1035C166.105 15.5623 166.54 15.0502 167.042 14.567C167.545 14.0646 168.047 13.6104 168.55 13.2046C169.071 12.7987 169.448 12.4992 169.68 12.3059C169.815 12.1899 170.028 12.0643 170.318 11.929C170.608 11.7744 170.927 11.6391 171.275 11.5232C171.642 11.4072 172.028 11.3203 172.434 11.2623C172.859 11.185 173.265 11.1657 173.652 11.2043C173.942 11.243 174.116 11.3782 174.174 11.6102C174.251 11.8227 174.347 12.0353 174.463 12.2479C174.541 12.3639 174.734 12.4412 175.043 12.4798C175.198 12.5765 175.333 12.6924 175.449 12.8277C175.565 12.963 175.623 13.1466 175.623 13.3785C175.546 13.3978 175.488 13.4751 175.449 13.6104C175.333 13.7843 175.236 13.9293 175.159 14.0452C175.101 14.1612 175.043 14.2675 174.985 14.3641C174.927 14.4414 174.85 14.5284 174.753 14.625C174.676 14.7217 174.57 14.8473 174.434 15.0019C174.203 15.2145 173.806 15.3594 173.246 15.4367C172.705 15.4947 172.154 15.5334 171.593 15.5527C170.936 15.572 170.212 15.5623 169.419 15.5237H169.39C169.216 15.6976 169.023 15.9006 168.811 16.1325C168.617 16.3451 168.434 16.5673 168.26 16.7992C168.105 17.0118 167.96 17.2147 167.825 17.408C167.709 17.6012 167.641 17.7462 167.622 17.8428ZM171.188 15.0599C172.27 14.1515 172.84 13.4751 172.898 13.0306C172.473 13.1852 171.97 13.4655 171.391 13.8713C170.83 14.2578 170.299 14.683 169.796 15.1468C169.97 15.1855 170.173 15.1951 170.405 15.1758C170.656 15.1372 170.917 15.0985 171.188 15.0599Z" fill="#48198F"/>
<path d="M0.0289891 25.0465C0.0676413 24.8919 0.106293 24.7373 0.144946 24.5827C0.164272 24.4281 0.193261 24.2735 0.231913 24.1189C0.328544 23.713 0.415511 23.3169 0.492816 22.9303C0.57012 22.5438 0.657087 22.1573 0.753718 21.7708C0.831022 21.4809 0.91799 21.191 1.01462 20.9011C1.11125 20.6305 1.16923 20.36 1.18856 20.0894C1.24653 19.355 1.42047 18.6786 1.71036 18.0602C1.98093 17.4224 2.27082 16.7846 2.58003 16.1469C3.14049 14.9293 3.69129 13.7311 4.23242 12.5522C4.77355 11.3733 5.32434 10.1751 5.8848 8.95756C6.3293 8.01058 6.76414 7.07326 7.18931 6.14561C7.63381 5.21796 8.07831 4.2903 8.52281 3.36265C8.63877 3.09209 8.76439 2.81186 8.89967 2.52197C9.03495 2.23207 9.1799 1.96151 9.33451 1.71027C9.41181 1.61364 9.49878 1.51701 9.59541 1.42038C9.71137 1.32375 9.81766 1.22712 9.91429 1.13049C9.99159 1.18847 10.0592 1.25611 10.1172 1.33341C10.1752 1.39139 10.2428 1.46869 10.3201 1.56532C10.3588 1.52667 10.3878 1.50735 10.4071 1.50735C10.5037 1.66195 10.5907 1.81656 10.668 1.97117C10.7646 2.10646 10.8613 2.24174 10.9579 2.37702C11.0739 2.53163 11.1222 2.75388 11.1028 3.04377C11.0835 3.31434 11.0159 3.55591 10.8999 3.7685C10.6487 4.15502 10.4458 4.56087 10.2911 4.98604C10.1559 5.41122 10.1076 5.84606 10.1462 6.29056C10.1462 6.36786 10.1269 6.4355 10.0882 6.49348C10.0689 6.55146 10.0496 6.60944 10.0302 6.66742C9.75968 7.28585 9.49878 7.90429 9.24754 8.52272C8.9963 9.14116 8.75472 9.76925 8.52281 10.407C8.3682 10.8129 8.21359 11.2187 8.05898 11.6246C7.9237 12.0304 7.73044 12.4363 7.4792 12.8421C7.22796 13.2866 7.01537 13.7504 6.84144 14.2336C6.6675 14.6974 6.47424 15.1612 6.26166 15.6251C6.22301 15.6637 6.20368 15.712 6.20368 15.77C6.20368 15.828 6.20368 15.886 6.20368 15.9439C6.223 15.9633 6.23267 15.9729 6.23267 15.9729C6.25199 15.9729 6.27132 15.9826 6.29065 16.0019C6.79312 15.3062 7.28594 14.6008 7.76909 13.8857C8.27157 13.1706 8.77405 12.4652 9.27653 11.7695C9.58575 11.325 9.90463 10.8902 10.2332 10.465C10.5617 10.0398 10.8903 9.60498 11.2188 9.16048C11.3154 9.00587 11.4797 8.77396 11.7116 8.46474C11.9629 8.15552 12.2334 7.81732 12.5233 7.45012C12.8325 7.0636 13.1514 6.66741 13.48 6.26157C13.8278 5.83639 14.1467 5.44987 14.4366 5.102C14.7265 4.7348 14.9777 4.41592 15.1903 4.14536C15.4222 3.87479 15.5865 3.69119 15.6831 3.59456C16.0117 3.20804 16.3402 2.83118 16.6688 2.46399C17.0166 2.07747 17.3548 1.70061 17.6834 1.33341C17.78 1.23678 17.8766 1.16914 17.9733 1.13049C18.0892 1.07251 18.2052 1.00487 18.3211 0.927562C18.3405 0.772954 18.4468 0.589356 18.64 0.376768C18.8333 0.164182 19.0072 0.0482254 19.1618 0.0288995C19.2585 0.00957255 19.3358 0.00957255 19.3937 0.0288995C19.471 0.0482254 19.4904 0.0772142 19.4517 0.115866C19.5484 0.289801 19.6257 0.463736 19.6836 0.637671C19.7609 0.79228 19.8286 0.966215 19.8866 1.15948C19.9252 1.19813 19.9349 1.25611 19.9155 1.33341C19.8962 1.39139 19.8769 1.45903 19.8576 1.53633C19.703 1.94218 19.5097 2.31904 19.2778 2.66691C19.0459 3.01478 18.814 3.36265 18.582 3.71052C18.3501 4.03907 18.1375 4.37727 17.9443 4.72514C17.751 5.07301 17.5384 5.41122 17.3065 5.73976C16.7267 6.49348 16.1276 7.22787 15.5092 7.94294C14.9101 8.658 14.3303 9.38273 13.7698 10.1171C13.6925 10.2138 13.5862 10.3684 13.451 10.581C13.3157 10.7742 13.1804 10.9868 13.0451 11.2187C12.9098 11.4506 12.7746 11.6729 12.6393 11.8855C12.504 12.0787 12.3977 12.2237 12.3204 12.3203C12.1078 12.5522 11.8952 12.7841 11.6826 13.016C11.47 13.248 11.2575 13.4992 11.0449 13.7698C10.8516 14.0017 10.6777 14.2432 10.5231 14.4945C10.3878 14.7264 10.2428 14.9486 10.0882 15.1612C9.93362 15.3545 9.76935 15.5478 9.59541 15.741C9.4408 15.915 9.28619 16.0986 9.13158 16.2918C8.28123 17.3934 7.44055 18.524 6.60953 19.6835C6.02974 20.4952 5.44996 21.2973 4.87018 22.0896C4.29039 22.9013 3.72027 23.742 3.15982 24.6117C2.83127 25.1335 2.47374 25.5104 2.08722 25.7423C1.7007 25.9935 1.28519 26.1385 0.840685 26.1771C0.705403 26.1964 0.579783 26.1385 0.463826 26.0032C0.34787 25.8679 0.241576 25.7519 0.144946 25.6553C0.106293 25.6167 0.0869674 25.5683 0.0869674 25.5104C0.0676413 25.4717 0.0386522 25.4331 0 25.3944C0 25.3558 0.00966306 25.2978 0.0289891 25.2205C0.0289891 25.1625 0.0289891 25.1045 0.0289891 25.0465Z" fill="#FFFEFA"/>
<path d="M19.0309 17.6833C19.0309 17.7219 19.2145 17.6543 19.5817 17.4804C19.9682 17.3064 20.3934 17.0938 20.8572 16.8426C21.379 16.572 21.9878 16.2435 22.6836 15.857V16.1759C22.0844 16.6204 21.5143 17.0069 20.9732 17.3354C20.5094 17.606 20.0455 17.8572 19.5817 18.0891C19.1179 18.3017 18.77 18.3694 18.5381 18.2921C18.1902 18.1954 17.9777 17.9828 17.9003 17.6543C17.8424 17.3258 17.8327 17.0455 17.8714 16.8136C17.3882 17.2388 16.934 17.606 16.5089 17.9152C16.103 18.2244 15.7648 18.4563 15.4942 18.6109C15.2623 18.7269 15.0401 18.8622 14.8275 19.0168C14.6149 19.1521 14.383 19.268 14.1318 19.3647C13.552 19.5966 12.9335 19.6352 12.2765 19.4806C11.5034 19.326 10.9043 18.9395 10.4791 18.3211C10.4405 18.2438 10.4018 18.1568 10.3632 18.0602C10.3245 17.9635 10.2859 17.8669 10.2472 17.7703C10.2086 17.3258 10.3728 16.8426 10.74 16.3208C11.1072 15.7797 11.5421 15.2579 12.0445 14.7554C12.547 14.2529 13.0495 13.7987 13.552 13.3929C14.0738 12.987 14.4506 12.6875 14.6826 12.4942C14.8178 12.3976 15.0304 12.2816 15.3203 12.1464C15.6102 11.9918 15.9291 11.8565 16.277 11.7405C16.6442 11.6246 17.0307 11.5279 17.4365 11.4506C17.8617 11.3733 18.2675 11.354 18.6541 11.3926C18.944 11.4313 19.1179 11.5666 19.1759 11.7985C19.2532 12.0111 19.3498 12.2237 19.4658 12.4363C19.4851 12.4749 19.5141 12.5136 19.5527 12.5522C19.6494 12.6488 19.7557 12.8324 19.8716 13.103C20.0069 13.3542 20.0552 13.6731 20.0166 14.0596C20.0166 14.137 20.0069 14.2239 19.9876 14.3206C19.9682 14.3979 19.9393 14.4848 19.9006 14.5815C19.8813 14.6008 19.8716 14.6201 19.8716 14.6394C19.8716 14.6394 19.8619 14.6491 19.8426 14.6684C19.7653 14.9197 19.6783 15.2096 19.5817 15.5381C19.5044 15.8666 19.4174 16.1855 19.3208 16.4947C19.2435 16.804 19.1759 17.0745 19.1179 17.3064C19.0599 17.519 19.0309 17.6446 19.0309 17.6833ZM12.9722 17.5094C13.2428 17.49 13.6389 17.3064 14.1607 16.9586C14.7019 16.5914 15.243 16.1759 15.7841 15.712C16.3253 15.2289 16.7988 14.7554 17.2046 14.2916C17.6298 13.8084 17.8617 13.4509 17.9003 13.219C17.6878 13.161 17.4752 13.132 17.2626 13.132C17.0693 13.132 16.8567 13.161 16.6248 13.219C16.3929 13.2576 16.1707 13.3446 15.9581 13.4799C15.8228 13.5765 15.5909 13.7408 15.2623 13.9727C14.9531 14.2046 14.6149 14.4655 14.2477 14.7554C13.8998 15.0453 13.552 15.3545 13.2041 15.683C12.8756 15.9923 12.6243 16.2822 12.4504 16.5527C12.2765 16.8233 12.2185 17.0455 12.2765 17.2195C12.3344 17.3934 12.5663 17.49 12.9722 17.5094Z" fill="#FFFEFA"/>
<path d="M35.5765 13.5378C34.9967 13.9823 34.4556 14.3882 33.9531 14.7554C33.5086 15.0839 33.0641 15.3932 32.6196 15.683C32.1944 15.9536 31.8465 16.1372 31.576 16.2338C31.518 16.2725 31.4504 16.3015 31.3731 16.3208C31.3151 16.3208 31.2571 16.3401 31.1991 16.3788C30.9286 16.688 30.6483 16.9682 30.3584 17.2195C30.0685 17.4514 29.8173 17.6253 29.6047 17.7413C29.4501 17.8186 29.1892 17.9152 28.822 18.0312C28.4741 18.1471 28.0683 18.2631 27.6045 18.379C27.16 18.495 26.6961 18.5916 26.213 18.6689C25.7492 18.7462 25.3336 18.7849 24.9665 18.7849C24.8118 18.7849 24.6572 18.7752 24.5026 18.7559C24.348 18.7366 24.2224 18.7076 24.1258 18.6689H24.0098C23.9132 18.6689 23.7586 18.7269 23.546 18.8429C23.3334 18.9588 23.0628 19.239 22.7343 19.6835C22.6377 19.7995 22.4734 20.0024 22.2415 20.2923C22.0289 20.5822 21.7776 20.9204 21.4878 21.3069C21.2365 21.6355 20.9756 21.9737 20.705 22.3216C20.4345 22.6888 20.1832 23.027 19.9513 23.3362C19.7194 23.6454 19.5165 23.916 19.3426 24.1479C19.1493 24.3991 19.0237 24.573 18.9657 24.6697C18.9657 24.6697 18.9464 24.689 18.9077 24.7277C18.8691 24.8243 18.8111 24.9016 18.7338 24.9596L18.6758 25.0175C18.5985 25.0755 18.5212 25.1335 18.4439 25.1915C18.3473 25.2495 18.2506 25.2784 18.154 25.2784H18.125C17.9704 25.2591 17.8351 25.2301 17.7192 25.1915C17.5839 25.1722 17.4099 25.1238 17.1974 25.0465C17.0814 25.0079 16.9654 24.9499 16.8495 24.8726C16.7335 24.7953 16.6272 24.7083 16.5306 24.6117C16.2021 24.2445 16.1827 23.8773 16.4726 23.5101C16.5886 23.3555 16.8978 22.9593 17.4003 22.3216C17.8834 21.7031 18.4439 20.9687 19.0817 20.1184C19.5262 19.5386 19.9707 18.9588 20.4152 18.379C20.8597 17.7992 21.2655 17.2678 21.6327 16.7846C22.0192 16.3015 22.3381 15.8956 22.5893 15.5671C22.8599 15.2192 23.0338 15.0066 23.1111 14.9293C23.2658 14.7361 23.4204 14.5428 23.575 14.3495C23.7296 14.1563 23.8939 13.9534 24.0678 13.7408C24.1451 13.6441 24.2127 13.5475 24.2707 13.4509C24.348 13.3542 24.4253 13.2576 24.5026 13.161L25.4013 11.7405L25.4883 11.7115C25.5849 11.6729 25.6912 11.6439 25.8071 11.6246C25.9424 11.6052 26.068 11.6052 26.184 11.6246C26.5125 11.6246 26.8314 11.7019 27.1406 11.8565C27.2179 11.9145 27.3146 11.9434 27.4305 11.9434C27.5272 11.9434 27.6721 11.9048 27.8654 11.8275C27.9427 11.8082 28.0103 11.7888 28.0683 11.7695C28.1263 11.7502 28.1939 11.7405 28.2712 11.7405C28.4258 11.7019 28.5708 11.6825 28.7061 11.6825C28.8413 11.6825 28.9766 11.6825 29.1119 11.6825C29.827 11.6825 30.4937 11.8275 31.1122 12.1174C31.3827 12.272 31.5953 12.4556 31.7499 12.6682C31.9238 12.8808 32.0495 13.0837 32.1268 13.2769C32.2234 13.4895 32.291 13.6925 32.3297 13.8857C32.3683 14.079 32.378 14.2239 32.3587 14.3206V14.3495V14.3785C32.32 14.5525 32.2524 14.7264 32.1558 14.9003C32.0785 15.0743 31.9915 15.2385 31.8949 15.3931C32.378 15.1999 32.8708 14.968 33.3733 14.6974C33.4506 14.6588 33.6052 14.5815 33.8371 14.4655C34.069 14.3302 34.3203 14.1949 34.5909 14.0596C34.9001 13.905 35.2286 13.7311 35.5765 13.5378ZM27.6914 13.3639C27.5175 13.4992 27.2856 13.7601 26.9957 14.1466C26.7251 14.5138 26.4546 14.9003 26.184 15.3062C25.9134 15.6927 25.6719 16.0406 25.4593 16.3498C25.266 16.659 25.1694 16.8136 25.1694 16.8136C25.5366 16.7943 25.9907 16.7073 26.5319 16.5527C27.073 16.3788 27.5755 16.1275 28.0393 15.799C28.2132 15.6637 28.4258 15.4608 28.6771 15.1902C28.9476 14.9003 29.1602 14.6104 29.3148 14.3206C29.4888 14.0307 29.5564 13.7698 29.5178 13.5378C29.4984 13.2866 29.2858 13.132 28.88 13.074C28.6094 13.0354 28.3872 13.0354 28.2132 13.074C28.0393 13.1127 27.8654 13.2093 27.6914 13.3639Z" fill="#FFFEFA"/>
<path d="M34.8382 19.4516C34.0651 19.297 33.466 18.9105 33.0408 18.2921C33.0022 18.2148 32.9635 18.1278 32.9249 18.0312C32.8862 17.9345 32.8476 17.8379 32.8089 17.7413C32.7703 17.2968 32.9345 16.8136 33.3017 16.2918C33.6689 15.7507 34.1038 15.2289 34.6063 14.7264C35.1087 14.2239 35.6112 13.7698 36.1137 13.3639C36.6355 12.9581 37.0124 12.6682 37.2443 12.4942C37.3795 12.3783 37.5921 12.2527 37.882 12.1174C38.1719 11.9628 38.4908 11.8275 38.8387 11.7115C39.2059 11.5956 39.5924 11.4989 39.9982 11.4216C40.4234 11.3443 40.8293 11.325 41.2158 11.3637C41.5057 11.4216 41.6796 11.5666 41.7376 11.7985C41.8149 12.0111 41.9115 12.2237 42.0275 12.4363C42.1434 12.6295 42.4237 12.7551 42.8682 12.8131C43.3127 12.8518 43.7861 12.8711 44.2886 12.8711C44.7911 12.8518 45.2453 12.8228 45.6511 12.7841C46.0763 12.7261 46.3179 12.6972 46.3758 12.6972C45.8927 12.8324 45.4385 12.9581 45.0134 13.074C44.6462 13.1706 44.2886 13.2673 43.9408 13.3639C43.5929 13.4605 43.3416 13.5282 43.187 13.5668C43.1484 13.5668 43.1097 13.5958 43.0711 13.6538C43.0518 13.7118 43.0324 13.7601 43.0131 13.7987C42.6459 14.3592 42.2304 14.9003 41.7666 15.4221C41.3027 15.9439 40.8389 16.4174 40.3751 16.8426C39.9113 17.2485 39.4668 17.606 39.0416 17.9152C38.6357 18.2244 38.3072 18.4467 38.056 18.582C37.824 18.7172 37.6018 18.8622 37.3892 19.0168C37.1766 19.1521 36.9447 19.268 36.6935 19.3647C36.4036 19.4806 36.104 19.5483 35.7948 19.5676C35.4856 19.5676 35.1667 19.5289 34.8382 19.4516ZM40.4621 13.19C40.2688 13.016 39.9789 12.9871 39.5924 13.103C39.2252 13.1996 38.8193 13.3832 38.3748 13.6538C37.9303 13.9244 37.4858 14.2529 37.0413 14.6394C36.5968 15.026 36.2103 15.4125 35.8818 15.799C35.5726 16.1855 35.3503 16.5431 35.215 16.8716C35.0797 17.1808 35.1087 17.4127 35.302 17.5673C35.3986 17.6446 35.6209 17.6253 35.9687 17.5094C36.3359 17.3741 36.7418 17.1808 37.1863 16.9296C37.6501 16.659 38.1139 16.3498 38.5778 16.0019C39.0609 15.6541 39.4764 15.3062 39.8243 14.9583C40.1722 14.6104 40.4137 14.2819 40.549 13.9727C40.7036 13.6441 40.6746 13.3832 40.4621 13.19Z" fill="#FFFEFA"/>
<path d="M53.4469 14.9003C53.4856 14.9003 53.5339 14.9003 53.5919 14.9003C53.6692 14.881 53.7562 14.852 53.8528 14.8134C52.7705 15.5284 51.7656 16.1952 50.8379 16.8136C50.4514 17.0842 50.0552 17.3451 49.6494 17.5963C49.2628 17.8476 48.9053 18.0891 48.5768 18.3211C48.2482 18.5336 47.9583 18.7269 47.7071 18.9008C47.4558 19.0554 47.2819 19.1617 47.1853 19.2197C46.934 19.3743 46.6731 19.4903 46.4026 19.5676C46.1513 19.6256 45.8904 19.6256 45.6199 19.5676C45.3493 19.5096 45.1464 19.3453 45.0111 19.0748C44.8758 18.7849 44.8758 18.495 45.0111 18.2051C45.2623 17.6253 45.5715 17.0842 45.9387 16.5817C46.3253 16.0599 46.7311 15.5478 47.1563 15.0453C47.3302 14.8134 47.5525 14.4945 47.823 14.0886C48.1129 13.6828 48.3545 13.3542 48.5478 13.103C48.3352 13.0644 48.1033 13.0644 47.852 13.103C47.6201 13.1417 47.4172 13.2673 47.2433 13.4799C47.0693 13.7504 46.8181 14.108 46.4895 14.5525C46.1803 14.9776 45.8421 15.4318 45.4749 15.915C45.127 16.3788 44.7792 16.8233 44.4313 17.2485C44.1028 17.6736 43.8322 18.0118 43.6196 18.2631L43.1848 18.7849C42.9142 19.0554 42.6147 19.2487 42.2861 19.3647C41.9769 19.4613 41.687 19.5289 41.4164 19.5676C41.0879 19.6062 40.769 19.5966 40.4598 19.5386C40.4018 19.5386 40.3535 19.5483 40.3148 19.5676C40.4695 19.355 40.6241 19.1521 40.7787 18.9588C40.9333 18.7656 41.0879 18.5723 41.2425 18.379C41.4358 18.0891 41.6967 17.7026 42.0252 17.2195C42.3731 16.7363 42.7306 16.2435 43.0978 15.741C43.4843 15.2192 43.8515 14.7264 44.1994 14.2626C44.5473 13.7794 44.8275 13.3832 45.0401 13.074C44.7888 12.9774 44.5569 12.8711 44.3443 12.7551C44.1511 12.6199 44.0061 12.4169 43.9095 12.1464C43.8709 12.0691 43.8419 11.9918 43.8225 11.9145C43.8032 11.8178 43.8129 11.7212 43.8515 11.6246C43.8709 11.5666 43.9288 11.5086 44.0255 11.4506C44.1221 11.3733 44.1994 11.3347 44.2574 11.3347C45.3783 11.3733 46.4992 11.3733 47.6201 11.3347C48.741 11.296 49.8813 11.1704 51.0408 10.9578C51.9298 10.7839 52.6159 11.0351 53.0991 11.7115C53.0218 11.7888 52.9445 11.8661 52.8672 11.9434C52.8092 12.0207 52.7415 12.0787 52.6642 12.1174C52.3164 12.3106 52.0265 12.5329 51.7946 12.7841C51.5626 13.016 51.3404 13.2866 51.1278 13.5958C50.9732 13.8084 50.7799 14.0596 50.548 14.3495C50.3354 14.6394 50.1035 14.939 49.8523 15.2482C49.6204 15.5381 49.3885 15.828 49.1565 16.1179C48.944 16.3884 48.7604 16.6204 48.6057 16.8136C48.5671 16.8523 48.5188 16.9006 48.4608 16.9586C48.4222 17.0165 48.4222 17.0649 48.4608 17.1035C48.4801 17.1422 48.6734 17.0842 49.0406 16.9296C49.4271 16.775 49.8716 16.5817 50.3741 16.3498C50.8766 16.1179 51.3984 15.8763 51.9395 15.6251C52.4806 15.3545 52.9348 15.1129 53.302 14.9003H53.4469Z" fill="#FFFEFA"/>
<path d="M73.5455 1.44937C73.5455 1.48802 73.5358 1.59431 73.5165 1.76825C73.5165 1.94218 73.4972 2.07747 73.4585 2.1741C73.4778 2.23207 73.4682 2.29005 73.4295 2.34803C73.4102 2.40601 73.3812 2.45433 73.3426 2.49298C73.3232 2.47365 73.2846 2.5123 73.2266 2.60893C73.1686 2.70556 73.101 2.82152 73.0237 2.9568C72.9464 3.09209 72.8691 3.23703 72.7918 3.39164C72.7338 3.52692 72.6951 3.62355 72.6758 3.68153C72.6372 3.75884 72.5792 3.82648 72.5019 3.88446C72.4439 3.94243 72.3859 4.01008 72.3279 4.08738C71.9414 4.49323 71.5742 4.94739 71.2263 5.44987C71.0524 5.64313 70.8591 5.9137 70.6466 6.26157C70.434 6.59011 70.2504 6.86068 70.0958 7.07326C69.8832 7.40181 69.6609 7.73035 69.429 8.05889C69.1971 8.38744 68.9555 8.71598 68.7043 9.04452C68.5883 9.19913 68.482 9.35374 68.3854 9.50835C68.2888 9.64363 68.1921 9.78858 68.0955 9.94319C67.825 10.2911 67.5737 10.6486 67.3418 11.0158C67.1099 11.3637 66.878 11.7212 66.6461 12.0884C66.6267 12.127 66.5108 12.301 66.2982 12.6102C66.1049 12.9001 65.8634 13.2673 65.5735 13.7118C65.2836 14.137 64.9647 14.6104 64.6168 15.1322C64.2689 15.6347 63.9404 16.1275 63.6312 16.6107C63.322 17.0745 63.0417 17.49 62.7905 17.8572C62.5586 18.2051 62.404 18.4467 62.3267 18.582C62.0561 19.0071 61.7662 19.413 61.457 19.7995C61.1671 20.2053 60.8869 20.6209 60.6163 21.046C60.4617 21.2586 60.2878 21.5195 60.0945 21.8287C59.9206 22.138 59.737 22.4472 59.5437 22.7564C59.3505 23.0849 59.1669 23.3942 58.9929 23.684C58.819 23.9933 58.6547 24.2638 58.5001 24.4957C58.3455 24.7083 58.2199 24.9209 58.1233 25.1335C58.0266 25.3654 57.901 25.5877 57.7464 25.8003C57.7077 25.8969 57.6401 25.9742 57.5435 26.0322C57.4662 26.0901 57.3889 26.1578 57.3116 26.2351H56.065C55.9684 26.1964 55.8621 26.1578 55.7461 26.1191C55.6495 26.0805 55.5529 26.0515 55.4562 26.0322C55.3016 25.9935 55.1374 25.9742 54.9634 25.9742C54.8088 25.9742 54.6349 25.9645 54.4416 25.9452C54.4996 25.636 54.5383 25.3461 54.5576 25.0755C54.5962 24.805 54.6446 24.5344 54.7025 24.2638C54.7219 24.0899 54.7702 23.8676 54.8475 23.5971C54.9248 23.3265 54.9924 23.0559 55.0504 22.7854C55.1277 22.5148 55.1953 22.2443 55.2533 21.9737C55.3306 21.7031 55.3886 21.4809 55.4273 21.3069C55.5046 20.8045 55.6012 20.3213 55.7172 19.8575C55.8524 19.3937 56.007 18.9298 56.181 18.466C56.4129 17.9442 56.6158 17.4127 56.7897 16.8716C56.983 16.3305 57.1763 15.7893 57.3695 15.2482C57.4082 15.1322 57.4468 15.0163 57.4855 14.9003C57.5241 14.7844 57.5628 14.6684 57.6014 14.5525L56.007 16.7267C55.9491 16.8619 55.8524 17.0165 55.7172 17.1905L51.5717 23.5101C51.4944 23.6067 51.4171 23.684 51.3398 23.742C51.2432 23.8193 51.1175 23.8387 50.9629 23.8C50.6537 23.7227 50.4025 23.5681 50.2092 23.3362C50.016 23.1236 49.8517 22.8627 49.7164 22.5535V22.4665C49.987 21.7901 50.2575 21.104 50.5281 20.4083C50.7793 19.7319 51.0402 19.0554 51.3108 18.379C51.3881 18.2244 51.4654 18.0795 51.5427 17.9442C51.6007 17.8089 51.678 17.664 51.7746 17.5094C52.0065 17.1808 52.1901 16.8426 52.3254 16.4947C52.4607 16.1469 52.6056 15.7797 52.7603 15.3931C52.8955 15.0839 53.0501 14.794 53.2241 14.5235C53.398 14.2336 53.572 13.9437 53.7459 13.6538C53.8425 13.4992 53.9391 13.3446 54.0358 13.19C54.1324 13.016 54.229 12.8518 54.3257 12.6972C54.7122 12.0207 55.0794 11.354 55.4273 10.6969C55.7945 10.0398 56.1713 9.38273 56.5578 8.72564C56.8477 8.20384 57.1569 7.70136 57.4855 7.21821C57.814 6.71573 58.1233 6.21325 58.4131 5.71077C58.703 5.26627 59.0026 4.7348 59.3118 4.11637C59.6403 3.49793 59.9302 2.9568 60.1815 2.49298C60.3168 2.26106 60.4714 2.12578 60.6453 2.08713C60.8192 2.04848 60.9835 2.02915 61.1381 2.02915C61.3314 2.02915 61.4667 2.10646 61.544 2.26106C61.6213 2.41567 61.6793 2.59927 61.7179 2.81186C61.7952 3.1404 61.7952 3.46894 61.7179 3.79749C61.6599 4.10671 61.5633 4.42559 61.428 4.75413C61.3121 5.06335 61.1671 5.37257 60.9932 5.68178C60.8386 5.97167 60.6936 6.24224 60.5583 6.49348C60.3264 6.93798 60.0752 7.37282 59.8046 7.79799C59.5534 8.22317 59.3021 8.658 59.0509 9.1025C58.8963 9.37307 58.7224 9.64363 58.5291 9.9142C58.3552 10.1848 58.1909 10.4553 58.0363 10.7259C57.8237 11.0544 57.6304 11.383 57.4565 11.7115C57.3019 12.0401 57.1183 12.3686 56.9057 12.6972C56.7704 12.9097 56.6448 13.103 56.5288 13.2769C56.4129 13.4509 56.2969 13.6441 56.181 13.8567C56.065 14.05 55.9587 14.2432 55.8621 14.4365C55.7848 14.6298 55.6978 14.8327 55.6012 15.0453L58.4421 11.4796C58.5194 11.2864 58.5967 11.1028 58.674 10.9288C58.7513 10.7549 58.8287 10.5809 58.906 10.407C59.2732 9.78858 59.6403 9.16048 60.0075 8.52272C60.3747 7.88496 60.7516 7.25686 61.1381 6.63843C61.2347 6.48382 61.3217 6.31955 61.399 6.14561C61.4957 5.95235 61.6793 5.86538 61.9498 5.88471C62.0078 5.88471 62.0658 5.90403 62.1238 5.94269C62.1817 5.96201 62.2397 5.991 62.2977 6.02965C62.3943 6.06831 62.4813 6.10696 62.5586 6.14561C62.6552 6.18426 62.7422 6.23258 62.8195 6.29056C63.0514 6.44516 63.1384 6.62876 63.0804 6.84135C63.0417 7.05394 63.0224 7.28585 63.0224 7.53709C62.9838 7.90429 62.9065 8.24249 62.7905 8.55171C62.6939 8.86093 62.5683 9.17015 62.4136 9.47936C62.259 9.92386 62.0754 10.3587 61.8628 10.7839C61.6503 11.209 61.4667 11.6439 61.3121 12.0884C61.1574 12.4169 61.0318 12.7551 60.9352 13.103C60.8579 13.4316 60.7613 13.7601 60.6453 14.0886C60.6067 14.1853 60.5873 14.2722 60.5873 14.3495C60.5873 14.4075 60.568 14.4752 60.5293 14.5525C60.3554 14.997 60.1911 15.4511 60.0365 15.915C59.8819 16.3595 59.7273 16.804 59.5727 17.2485C59.5147 17.461 59.4471 17.6736 59.3698 17.8862C59.3118 18.0795 59.2635 18.2824 59.2248 18.495C59.3601 18.3404 59.4761 18.1858 59.5727 18.0312C59.6693 17.8572 59.7853 17.693 59.9206 17.5383C59.9979 17.4224 60.0848 17.3064 60.1815 17.1905C60.2974 17.0745 60.4037 16.9586 60.5004 16.8426C60.9449 16.1275 61.4087 15.4125 61.8918 14.6974C62.375 13.9823 62.8678 13.2673 63.3703 12.5522C63.5829 12.185 63.8051 11.8275 64.037 11.4796C64.2883 11.1124 64.5298 10.7452 64.7618 10.378C64.7811 10.3587 64.8777 10.2331 65.0517 10.0012C65.2256 9.74993 65.4189 9.4697 65.6314 9.16048C65.8634 8.85126 66.0856 8.55171 66.2982 8.26182C66.5108 7.9526 66.675 7.72069 66.791 7.56608C66.8683 7.48877 66.9843 7.34383 67.1389 7.13124C67.3128 6.91865 67.4867 6.70607 67.6607 6.49348C67.8539 6.26157 68.0182 6.05864 68.1535 5.88471C68.3081 5.69145 68.4047 5.57549 68.4434 5.53684C68.5014 5.47886 68.6173 5.34358 68.7913 5.13099C68.9845 4.9184 69.1874 4.69615 69.4 4.46424C69.6126 4.23233 69.8059 4.01974 69.9798 3.82648C70.1537 3.63322 70.26 3.51726 70.2987 3.47861C70.4146 3.34333 70.5306 3.21771 70.6466 3.10175C70.7818 2.96647 70.9075 2.83118 71.0234 2.6959C71.0621 2.65725 71.1587 2.54129 71.3133 2.34803C71.4679 2.13544 71.6419 1.91319 71.8351 1.68128C72.0284 1.44937 72.2216 1.24644 72.4149 1.07251C72.6082 0.879247 72.7628 0.772953 72.8787 0.753628C72.956 0.734302 73.0333 0.676324 73.1106 0.579693C73.1879 0.483063 73.2556 0.396095 73.3136 0.318791C73.3522 0.280138 73.4005 0.241486 73.4585 0.202834C73.5165 0.164182 73.5938 0.106204 73.6904 0.0288995C73.6324 0.183508 73.5841 0.347779 73.5455 0.521714C73.5262 0.676323 73.5068 0.830932 73.4875 0.985541C73.4875 1.12082 73.4875 1.23678 73.4875 1.33341C73.4875 1.41071 73.5068 1.44937 73.5455 1.44937Z" fill="#FFFEFA"/>
<path d="M73.5385 17.6833C73.5385 17.7219 73.7221 17.6543 74.0893 17.4804C74.4758 17.3064 74.9009 17.0938 75.3648 16.8426C75.8866 16.572 76.4954 16.2435 77.1911 15.857V16.1759C76.592 16.6204 76.0219 17.0069 75.4807 17.3354C75.0169 17.606 74.5531 17.8572 74.0893 18.0891C73.6254 18.3017 73.2776 18.3694 73.0456 18.2921C72.6978 18.1954 72.4852 17.9828 72.4079 17.6543C72.3499 17.3258 72.3402 17.0455 72.3789 16.8136C71.8957 17.2388 71.4416 17.606 71.0164 17.9152C70.6106 18.2244 70.2723 18.4563 70.0018 18.6109C69.7699 18.7269 69.5476 18.8622 69.335 19.0168C69.1224 19.1521 68.8905 19.268 68.6393 19.3647C68.0595 19.5966 67.4411 19.6352 66.784 19.4806C66.0109 19.326 65.4118 18.9395 64.9867 18.3211C64.948 18.2438 64.9094 18.1568 64.8707 18.0602C64.8321 17.9635 64.7934 17.8669 64.7547 17.7703C64.7161 17.3258 64.8804 16.8426 65.2476 16.3208C65.6148 15.7797 66.0496 15.2579 66.5521 14.7554C67.0546 14.2529 67.557 13.7987 68.0595 13.3929C68.5813 12.987 68.9582 12.6875 69.1901 12.4942C69.3254 12.3976 69.538 12.2816 69.8278 12.1464C70.1177 11.9918 70.4366 11.8565 70.7845 11.7405C71.1517 11.6246 71.5382 11.5279 71.9441 11.4506C72.3692 11.3733 72.7751 11.354 73.1616 11.3926C73.4515 11.4313 73.6254 11.5666 73.6834 11.7985C73.7607 12.0111 73.8573 12.2237 73.9733 12.4363C73.9926 12.4749 74.0216 12.5136 74.0603 12.5522C74.1569 12.6488 74.2632 12.8324 74.3791 13.103C74.5144 13.3542 74.5627 13.6731 74.5241 14.0596C74.5241 14.137 74.5144 14.2239 74.4951 14.3206C74.4758 14.3979 74.4468 14.4848 74.4081 14.5815C74.3888 14.6008 74.3791 14.6201 74.3791 14.6394C74.3791 14.6394 74.3695 14.6491 74.3502 14.6684C74.2728 14.9197 74.1859 15.2096 74.0893 15.5381C74.0119 15.8666 73.925 16.1855 73.8284 16.4947C73.751 16.804 73.6834 17.0745 73.6254 17.3064C73.5674 17.519 73.5385 17.6446 73.5385 17.6833ZM67.4797 17.5094C67.7503 17.49 68.1465 17.3064 68.6683 16.9586C69.2094 16.5914 69.7505 16.1759 70.2917 15.712C70.8328 15.2289 71.3063 14.7554 71.7121 14.2916C72.1373 13.8084 72.3692 13.4509 72.4079 13.219C72.1953 13.161 71.9827 13.132 71.7701 13.132C71.5769 13.132 71.3643 13.161 71.1324 13.219C70.9004 13.2576 70.6782 13.3446 70.4656 13.4799C70.3303 13.5765 70.0984 13.7408 69.7699 13.9727C69.4607 14.2046 69.1224 14.4655 68.7552 14.7554C68.4074 15.0453 68.0595 15.3545 67.7116 15.683C67.3831 15.9923 67.1319 16.2822 66.9579 16.5527C66.784 16.8233 66.726 17.0455 66.784 17.2195C66.842 17.3934 67.0739 17.49 67.4797 17.5094Z" fill="#FFFEFA"/>
<path d="M88.5186 12.9581C88.5766 12.9774 88.5959 13.016 88.5766 13.074C88.5766 13.1127 88.5476 13.132 88.4896 13.132L87.5909 13.219C87.4363 13.2383 87.2817 13.2576 87.1271 13.2769C86.9725 13.2769 86.8179 13.2963 86.6633 13.3349C86.3541 13.3736 86.0449 13.4316 85.7356 13.5089C85.4458 13.5862 85.1559 13.6731 84.866 13.7698C84.5567 13.8664 84.2765 13.963 84.0253 14.0596C83.4262 14.6201 82.8077 15.1999 82.17 15.799C81.5322 16.3981 80.9428 16.9489 80.4016 17.4514C79.8605 17.9539 79.3967 18.3887 79.0102 18.7559C78.6236 19.1038 78.3917 19.3067 78.3144 19.3647C78.0245 19.5966 77.7056 19.7995 77.3578 19.9734C77.2225 20.0314 77.0775 20.0218 76.9229 19.9444C76.7683 19.9058 76.6234 19.8382 76.4881 19.7415C76.3528 19.6642 76.2079 19.6062 76.0533 19.5676C75.5894 19.413 75.3672 19.1134 75.3865 18.6689C75.3865 18.437 75.3575 18.1761 75.2995 17.8862C75.3382 17.7316 75.4252 17.4804 75.5604 17.1325C75.6957 16.7846 75.8503 16.3981 76.0243 15.9729C76.1982 15.5478 76.3818 15.1033 76.5751 14.6394C76.7877 14.1756 76.9809 13.7504 77.1549 13.3639C77.3288 12.9581 77.4834 12.6199 77.6187 12.3493C77.754 12.0594 77.8409 11.8855 77.8796 11.8275C77.9569 11.7309 78.0342 11.6535 78.1115 11.5956C78.2081 11.5376 78.3337 11.5473 78.4884 11.6246C78.643 11.7212 78.8169 11.7792 79.0102 11.7985C79.2034 11.8178 79.387 11.8468 79.5609 11.8855C79.7929 11.9434 79.9475 12.0691 80.0248 12.2623C80.1214 12.4363 80.1214 12.6295 80.0248 12.8421C79.9668 12.9967 79.8605 13.2093 79.7059 13.4799C79.5706 13.7311 79.4257 14.0113 79.2711 14.3206C79.1165 14.6104 78.9618 14.9003 78.8072 15.1902C78.6526 15.4801 78.527 15.7217 78.4304 15.915L78.5173 16.0019L79.2421 15.3352L82.4599 12.1464L83.8803 10.8708C83.9576 10.7935 84.0446 10.7645 84.1412 10.7839C84.4311 10.8612 84.7114 10.9481 84.9819 11.0448C85.2718 11.1414 85.5037 11.325 85.6777 11.5956C85.755 11.6922 85.7743 11.8178 85.7356 11.9724C85.697 12.127 85.6583 12.272 85.6197 12.4073C85.5617 12.5619 85.4554 12.7165 85.3008 12.8711L84.9529 13.219C85.2428 13.1417 85.5327 13.0837 85.8226 13.045C86.1125 12.9871 86.4121 12.9387 86.7213 12.9001C86.8759 12.8808 87.0305 12.8711 87.1851 12.8711C87.3397 12.8518 87.4943 12.8518 87.6489 12.8711C87.8035 12.8711 87.9485 12.8808 88.0838 12.9001C88.219 12.9194 88.364 12.9387 88.5186 12.9581Z" fill="#FFFEFA"/>
<path d="M86.8626 17.8572C86.9786 17.9539 87.2491 17.9925 87.6743 17.9732C88.0995 17.9345 88.5923 17.8669 89.1527 17.7703C89.7325 17.6543 90.3413 17.5287 90.9791 17.3934C91.6361 17.2388 92.2546 17.1035 92.8344 16.9876C93.4141 16.8523 93.9166 16.746 94.3418 16.6687C94.7863 16.5914 95.0858 16.5624 95.2405 16.5817L95.2115 16.6107C95.1342 16.6493 94.9216 16.7363 94.5737 16.8716C94.2258 17.0069 93.8103 17.1712 93.3272 17.3644C92.8633 17.5383 92.3512 17.7316 91.7908 17.9442C91.2496 18.1375 90.7375 18.3211 90.2543 18.495C89.7712 18.6689 89.3557 18.8235 89.0078 18.9588C88.6599 19.0941 88.4473 19.1714 88.37 19.1907C88.0801 19.3067 87.7806 19.3743 87.4714 19.3937C87.1622 19.3937 86.8433 19.3647 86.5147 19.3067C85.7417 19.1328 85.1426 18.7462 84.7174 18.1471C84.6787 18.0698 84.6401 17.9828 84.6014 17.8862C84.5628 17.7896 84.5241 17.693 84.4855 17.5963C84.4468 17.1518 84.6111 16.659 84.9783 16.1179C85.3455 15.5767 85.7803 15.0646 86.2828 14.5815C86.7853 14.079 87.2878 13.6248 87.7902 13.219C88.3121 12.8131 88.6889 12.5136 88.9208 12.3203C89.0561 12.2043 89.2687 12.0787 89.5586 11.9434C89.8485 11.7888 90.1674 11.6535 90.5152 11.5376C90.8824 11.4216 91.2689 11.3347 91.6748 11.2767C92.1 11.1994 92.5058 11.1801 92.8923 11.2187C93.1822 11.2574 93.3562 11.3926 93.4141 11.6246C93.4914 11.8371 93.5881 12.0497 93.704 12.2623C93.7813 12.3783 93.9746 12.4556 94.2838 12.4942C94.4384 12.5909 94.5737 12.7068 94.6897 12.8421C94.8056 12.9774 94.8636 13.161 94.8636 13.3929C94.7863 13.4122 94.7283 13.4895 94.6897 13.6248C94.5737 13.7987 94.4771 13.9437 94.3998 14.0596C94.3418 14.1756 94.2838 14.2819 94.2258 14.3785C94.1679 14.4558 94.0906 14.5428 93.9939 14.6394C93.9166 14.7361 93.8103 14.8617 93.675 15.0163C93.4431 15.2289 93.0469 15.3738 92.4865 15.4511C91.9454 15.5091 91.3946 15.5478 90.8341 15.5671C90.177 15.5864 89.4523 15.5767 88.6599 15.5381H88.6309C88.457 15.712 88.2637 15.915 88.0511 16.1469C87.8579 16.3595 87.6743 16.5817 87.5004 16.8136C87.3458 17.0262 87.2008 17.2291 87.0655 17.4224C86.9496 17.6157 86.8819 17.7606 86.8626 17.8572ZM90.4283 15.0743C91.5105 14.1659 92.0806 13.4895 92.1386 13.045C91.7134 13.1996 91.211 13.4799 90.6312 13.8857C90.0707 14.2722 89.5393 14.6974 89.0368 15.1612C89.2107 15.1999 89.4136 15.2096 89.6456 15.1902C89.8968 15.1516 90.1577 15.1129 90.4283 15.0743Z" fill="#FFFEFA"/>
<path d="M98.2014 24.4957C98.472 24.4378 98.6846 24.2832 98.8392 24.0319C98.9938 23.8 99.1484 23.5874 99.303 23.3942C99.6702 22.9883 100.008 22.5631 100.318 22.1186C100.627 21.6741 100.946 21.2296 101.274 20.7851C101.487 20.5146 101.709 20.2633 101.941 20.0314C102.173 19.8188 102.395 19.5869 102.608 19.3357C102.704 19.2197 102.878 19.0168 103.13 18.7269C103.381 18.437 103.671 18.0988 103.999 17.7123C104.328 17.3258 104.666 16.9199 105.014 16.4947C105.381 16.0502 105.729 15.6444 106.057 15.2772C106.386 14.8907 106.666 14.5525 106.898 14.2626C107.149 13.9727 107.323 13.7698 107.42 13.6538C107.517 13.5572 107.604 13.4702 107.681 13.3929C107.758 13.3156 107.845 13.2286 107.942 13.132C108.232 12.8421 108.203 12.6682 107.855 12.6102C107.7 12.5715 107.536 12.5522 107.362 12.5522C107.188 12.5522 107.014 12.5426 106.84 12.5232H106.289C106.27 12.4846 106.26 12.4459 106.26 12.4073C106.26 12.3686 106.251 12.33 106.231 12.2913C106.367 12.1947 106.492 12.098 106.608 12.0014C106.724 11.8855 106.85 11.8082 106.985 11.7695C107.41 11.6149 107.826 11.47 108.232 11.3347C108.657 11.1994 109.072 11.0544 109.478 10.8998C109.633 10.8419 109.787 10.7549 109.942 10.6389C110.097 10.5036 110.242 10.3684 110.377 10.2331C110.841 9.76925 111.276 9.27644 111.681 8.75463C111.894 8.50339 112.097 8.25216 112.29 8.00092C112.503 7.73035 112.735 7.4308 112.986 7.10225C112.754 7.1409 112.522 7.17956 112.29 7.21821C112.078 7.25686 111.865 7.29551 111.652 7.33417C111.498 7.37282 111.334 7.42113 111.16 7.47911C111.005 7.53709 110.85 7.5854 110.696 7.62406C110.251 7.68204 109.797 7.74001 109.333 7.79799C108.889 7.83664 108.444 7.88496 108 7.94294C107.98 7.90429 107.971 7.86563 107.971 7.82698C107.971 7.78833 107.961 7.74968 107.942 7.71102C108.058 7.59507 108.164 7.47911 108.261 7.36315C108.377 7.22787 108.493 7.13124 108.609 7.07326C109.246 6.74472 109.884 6.42584 110.522 6.11662C111.16 5.78808 111.807 5.48852 112.464 5.21796C113.005 5.00537 113.546 4.83144 114.087 4.69615C114.629 4.56087 115.17 4.40626 115.711 4.23233C115.923 4.15502 116.117 4.05839 116.291 3.94243C116.484 3.80715 116.687 3.68153 116.899 3.56558C117.054 3.46894 117.199 3.37231 117.334 3.27568C117.489 3.17905 117.643 3.08242 117.798 2.98579C117.837 3.12107 117.856 3.22737 117.856 3.30467C117.875 3.38198 117.904 3.46894 117.943 3.56558C118.619 3.41097 119.296 3.26602 119.972 3.13074C120.649 2.97613 121.325 2.82152 122.002 2.66691C122.639 2.5123 123.277 2.37702 123.915 2.26106C124.553 2.12578 125.181 1.97117 125.799 1.79724C126.476 1.60398 127.142 1.40105 127.799 1.18846C128.476 0.956552 129.152 0.734302 129.829 0.521714C130.196 0.425084 130.553 0.338116 130.901 0.260811C131.249 0.183508 131.597 0.106204 131.945 0.0288995C132.273 -0.0290792 132.438 0.106204 132.438 0.434748C132.457 0.550704 132.496 0.66666 132.554 0.782616C132.612 0.879247 132.67 0.975877 132.728 1.07251C132.689 1.11116 132.65 1.13049 132.612 1.13049C132.708 1.16914 132.795 1.19813 132.872 1.21745C132.969 1.23678 133.066 1.26577 133.162 1.30442C133.162 1.57499 133.046 1.8842 132.814 2.23207C132.583 2.56062 132.351 2.76354 132.119 2.84085C131.694 2.97613 131.268 3.10175 130.843 3.21771C130.437 3.31434 130.032 3.43029 129.626 3.56558C129.355 3.66221 129.085 3.74917 128.814 3.82648C128.543 3.90378 128.273 3.99075 128.002 4.08738C127.461 4.24199 126.92 4.3966 126.379 4.55121C125.838 4.68649 125.287 4.82177 124.727 4.95706C124.011 5.11166 123.296 5.24695 122.581 5.3629C121.886 5.47886 121.171 5.61414 120.436 5.76875C120.204 5.8074 119.963 5.84606 119.711 5.88471C119.479 5.90403 119.238 5.94269 118.987 6.00066C118.755 6.03932 118.523 6.09729 118.291 6.1746C118.078 6.23258 117.875 6.40651 117.682 6.6964C117.431 7.12158 117.122 7.46945 116.754 7.74001C116.387 8.01058 116.049 8.32946 115.74 8.69666C115.643 8.81261 115.527 8.92857 115.392 9.04452C115.276 9.16048 115.16 9.27644 115.044 9.39239C115.083 9.4697 115.102 9.50835 115.102 9.50835C115.624 9.3924 116.146 9.27644 116.668 9.16048C117.189 9.0252 117.701 8.89958 118.204 8.78362C118.436 8.72564 118.668 8.67733 118.9 8.63868C119.132 8.5807 119.354 8.53238 119.566 8.49373C119.798 8.47441 119.982 8.55171 120.117 8.72564C120.253 8.88025 120.31 9.09284 120.291 9.36341C120.291 9.40206 120.282 9.45037 120.262 9.50835C120.262 9.547 120.272 9.58566 120.291 9.62431C120.388 9.72094 120.436 9.81757 120.436 9.9142C120.455 9.9915 120.436 10.0688 120.378 10.1461C120.339 10.2234 120.282 10.3007 120.204 10.378C120.146 10.436 120.088 10.494 120.03 10.552C119.914 10.6872 119.789 10.8032 119.653 10.8998C119.518 10.9965 119.373 11.0931 119.219 11.1897C119.199 11.209 119.18 11.2284 119.161 11.2477C119.161 11.267 119.141 11.2864 119.103 11.3057C118.542 11.441 117.972 11.5762 117.392 11.7115C116.812 11.8468 116.233 11.9628 115.653 12.0594C115.266 12.1174 114.89 12.156 114.522 12.1754C114.155 12.1754 113.778 12.185 113.392 12.2043C112.967 12.2043 112.609 12.3396 112.319 12.6102C112.029 12.8808 111.739 13.1803 111.449 13.5089C111.276 13.7214 111.092 13.934 110.899 14.1466C110.705 14.3592 110.522 14.5718 110.348 14.7844C110.271 14.881 110.116 15.0646 109.884 15.3352C109.652 15.6057 109.382 15.9246 109.072 16.2918C108.782 16.659 108.464 17.0455 108.116 17.4514C107.787 17.8572 107.468 18.2437 107.159 18.6109C106.869 18.9781 106.608 19.3067 106.376 19.5966C106.164 19.8671 106.019 20.0411 105.942 20.1184C105.033 21.1813 104.125 22.2056 103.217 23.1912C102.946 23.5005 102.685 23.8 102.434 24.0899C102.163 24.3991 101.902 24.718 101.651 25.0465C101.458 25.2784 101.255 25.4427 101.042 25.5394C100.83 25.636 100.608 25.7133 100.376 25.7713C100.298 25.7906 100.221 25.8003 100.144 25.8003C100.066 25.8196 99.9891 25.8486 99.9118 25.8872H99.5349C99.5349 25.7713 99.5253 25.7036 99.5059 25.6843C99.4093 25.607 99.3127 25.5297 99.2161 25.4524C99.1194 25.3944 99.0131 25.3461 98.8972 25.3074C98.8199 25.2881 98.7619 25.2398 98.7232 25.1625C98.6846 25.0852 98.6459 25.0079 98.6073 24.9306C98.5493 24.8533 98.4913 24.7856 98.4334 24.7277C98.3754 24.689 98.2884 24.689 98.1724 24.7277C98.1724 24.689 98.1821 24.6504 98.2014 24.6117C98.2014 24.573 98.2014 24.5344 98.2014 24.4957Z" fill="#FFFEFA"/>
<path d="M121.386 12.7261C121.482 12.8421 121.589 12.9581 121.705 13.074C121.821 13.1706 121.946 13.2866 122.081 13.4219C121.811 13.8857 121.54 14.3495 121.27 14.8134C120.999 15.2772 120.719 15.741 120.429 16.2048C120.39 16.2822 120.313 16.4174 120.197 16.6107C120.081 16.804 119.946 17.0165 119.791 17.2485C119.637 17.4804 119.463 17.7316 119.27 18.0022C119.096 18.2534 118.912 18.4853 118.719 18.6979C118.931 18.6013 119.144 18.495 119.356 18.379C119.569 18.2631 119.782 18.1375 119.994 18.0022C120.168 17.8862 120.342 17.7703 120.516 17.6543C120.69 17.519 120.874 17.3934 121.067 17.2774L121.502 16.9296C121.56 16.8909 121.608 16.8523 121.647 16.8136C121.705 16.775 121.753 16.7363 121.792 16.6977C121.792 16.6783 121.724 16.746 121.589 16.9006C121.473 17.0359 121.318 17.2098 121.125 17.4224C120.951 17.6157 120.767 17.8089 120.574 18.0022C120.4 18.1761 120.274 18.3017 120.197 18.379C120.043 18.495 119.898 18.6109 119.762 18.7269C119.627 18.8235 119.482 18.9105 119.327 18.9878C119.096 19.1038 118.844 19.2101 118.574 19.3067C118.323 19.4033 118.062 19.471 117.791 19.5096C117.521 19.6062 117.26 19.5676 117.008 19.3937C116.757 19.2004 116.603 18.9975 116.545 18.7849C116.525 18.6689 116.535 18.524 116.574 18.35C116.612 18.1568 116.66 17.9635 116.718 17.7703C116.796 17.5577 116.873 17.3644 116.95 17.1905C117.028 17.0165 117.086 16.8909 117.124 16.8136C117.24 16.6397 117.414 16.3788 117.646 16.0309C117.878 15.6637 118.12 15.2965 118.371 14.9293C118.622 14.5428 118.854 14.1853 119.067 13.8567C119.279 13.5282 119.424 13.3059 119.501 13.19C119.598 13.0547 119.685 12.9291 119.762 12.8131C119.859 12.6778 119.975 12.5619 120.11 12.4652C120.323 12.3106 120.545 12.2623 120.777 12.3203C121.028 12.3783 121.231 12.5136 121.386 12.7261ZM123.386 11.1607C123.425 11.354 123.367 11.5376 123.212 11.7115C123.077 11.8855 122.912 11.9918 122.719 12.0304C122.487 12.0691 122.246 12.1077 121.995 12.1464C121.763 12.185 121.54 12.185 121.328 12.1464C121.134 12.1077 120.883 11.9821 120.574 11.7695C120.284 11.5376 120.11 11.296 120.052 11.0448C120.033 11.0061 120.052 10.9481 120.11 10.8708C120.168 10.7935 120.216 10.7452 120.255 10.7259C120.584 10.6679 120.912 10.6099 121.241 10.552C121.569 10.494 121.898 10.4457 122.226 10.407C122.284 10.3877 122.381 10.378 122.516 10.378C122.516 10.3587 122.613 10.378 122.806 10.436C122.999 10.4747 123.144 10.5423 123.241 10.6389C123.299 10.6776 123.328 10.7549 123.328 10.8708C123.328 10.9675 123.347 11.0641 123.386 11.1607ZM122.081 13.3929V13.4219V13.3929Z" fill="#FFFEFA"/>
<path d="M131.907 12.6102C131.945 12.6295 132.003 12.6778 132.08 12.7551C132.177 12.8324 132.274 12.9194 132.37 13.016C132.467 13.1127 132.544 13.219 132.602 13.3349C132.68 13.4509 132.718 13.5572 132.718 13.6538C132.622 14.5428 132.332 15.3738 131.849 16.1469C131.365 16.9199 130.834 17.6833 130.254 18.437C130.563 18.3017 130.94 18.0795 131.385 17.7703C131.849 17.461 132.293 17.1422 132.718 16.8136C133.143 16.4851 133.501 16.1952 133.791 15.9439C134.1 15.6927 134.264 15.5671 134.284 15.5671C134.206 15.6444 133.984 15.8666 133.617 16.2338C133.25 16.601 132.805 17.0165 132.283 17.4804C131.762 17.9249 131.191 18.3694 130.573 18.8139C129.974 19.2584 129.404 19.6062 128.863 19.8575C128.322 20.128 127.858 20.244 127.471 20.2053C127.085 20.186 126.843 19.9251 126.746 19.4226C126.708 19.2874 126.727 19.1617 126.804 19.0458C127.075 18.6593 127.346 18.2631 127.616 17.8572C127.906 17.4514 128.186 17.0552 128.457 16.6687C128.534 16.5527 128.64 16.3981 128.776 16.2048C128.93 15.9923 129.075 15.7893 129.211 15.5961C129.346 15.4028 129.462 15.2289 129.558 15.0743C129.674 14.9003 129.742 14.794 129.761 14.7554C129.375 14.7747 128.959 14.8424 128.515 14.9583C128.07 15.0549 127.577 15.2869 127.036 15.6541C126.882 15.77 126.688 16.0019 126.457 16.3498C126.225 16.6783 125.983 17.0455 125.732 17.4514C125.481 17.8379 125.239 18.2051 125.007 18.553C124.775 18.9008 124.592 19.1328 124.456 19.2487C124.186 19.4613 123.925 19.5869 123.674 19.6256C123.442 19.6642 123.19 19.5773 122.92 19.3647C122.881 19.326 122.881 19.3163 122.92 19.3357C122.959 19.3357 122.959 19.3357 122.92 19.3357C122.746 19.2197 122.591 19.0941 122.456 18.9588C122.34 18.8429 122.234 18.7076 122.137 18.553C122.041 18.3984 122.002 18.2244 122.021 18.0312C122.311 17.6833 122.669 17.1808 123.094 16.5237C123.519 15.8473 123.944 15.1612 124.369 14.4655C124.814 13.7698 125.22 13.1223 125.587 12.5232C125.954 11.9048 126.215 11.4796 126.37 11.2477C126.563 10.9385 126.814 10.8225 127.123 10.8998C127.355 10.9965 127.587 11.0834 127.819 11.1607C128.07 11.238 128.302 11.325 128.515 11.4216C128.669 11.4796 128.756 11.6052 128.776 11.7985C128.814 11.9918 128.776 12.1657 128.66 12.3203C128.447 12.6295 128.244 12.9484 128.051 13.2769C127.858 13.5862 127.674 13.9147 127.5 14.2626C127.713 14.108 127.925 13.9437 128.138 13.7698C128.37 13.5958 128.611 13.4316 128.863 13.2769C129.114 13.1223 129.365 12.9677 129.616 12.8131C129.887 12.6585 130.158 12.5136 130.428 12.3783C130.699 12.2623 130.95 12.2527 131.182 12.3493C131.414 12.4459 131.655 12.5329 131.907 12.6102Z" fill="#FFFEFA"/>
<path d="M141.945 17.6833C141.945 17.7219 142.129 17.6543 142.496 17.4804C142.882 17.3064 143.307 17.0938 143.771 16.8426C144.293 16.572 144.902 16.2435 145.598 15.857V16.1759C144.998 16.6204 144.428 17.0069 143.887 17.3354C143.423 17.606 142.96 17.8572 142.496 18.0891C142.032 18.3017 141.684 18.3694 141.452 18.2921C141.104 18.1954 140.892 17.9828 140.814 17.6543C140.756 17.3258 140.747 17.0455 140.785 16.8136C140.302 17.2388 139.848 17.606 139.423 17.9152C139.017 18.2244 138.679 18.4563 138.408 18.6109C138.176 18.7269 137.954 18.8622 137.742 19.0168C137.529 19.1521 137.297 19.268 137.046 19.3647C136.466 19.5966 135.848 19.6352 135.19 19.4806C134.417 19.326 133.818 18.9395 133.393 18.3211C133.354 18.2438 133.316 18.1568 133.277 18.0602C133.239 17.9635 133.2 17.8669 133.161 17.7703C133.123 17.3258 133.287 16.8426 133.654 16.3208C134.021 15.7797 134.456 15.2579 134.959 14.7554C135.461 14.2529 135.963 13.7987 136.466 13.3929C136.988 12.987 137.365 12.6875 137.597 12.4942C137.732 12.3976 137.944 12.2816 138.234 12.1464C138.524 11.9918 138.843 11.8565 139.191 11.7405C139.558 11.6246 139.945 11.5279 140.351 11.4506C140.776 11.3733 141.182 11.354 141.568 11.3926C141.858 11.4313 142.032 11.5666 142.09 11.7985C142.167 12.0111 142.264 12.2237 142.38 12.4363C142.399 12.4749 142.428 12.5136 142.467 12.5522C142.563 12.6488 142.67 12.8324 142.786 13.103C142.921 13.3542 142.969 13.6731 142.931 14.0596C142.931 14.137 142.921 14.2239 142.902 14.3206C142.882 14.3979 142.853 14.4848 142.815 14.5815C142.795 14.6008 142.786 14.6201 142.786 14.6394C142.786 14.6394 142.776 14.6491 142.757 14.6684C142.679 14.9197 142.592 15.2096 142.496 15.5381C142.418 15.8666 142.331 16.1855 142.235 16.4947C142.158 16.804 142.09 17.0745 142.032 17.3064C141.974 17.519 141.945 17.6446 141.945 17.6833ZM135.886 17.5094C136.157 17.49 136.553 17.3064 137.075 16.9586C137.616 16.5914 138.157 16.1759 138.698 15.712C139.239 15.2289 139.713 14.7554 140.119 14.2916C140.544 13.8084 140.776 13.4509 140.814 13.219C140.602 13.161 140.389 13.132 140.177 13.132C139.983 13.132 139.771 13.161 139.539 13.219C139.307 13.2576 139.085 13.3446 138.872 13.4799C138.737 13.5765 138.505 13.7408 138.176 13.9727C137.867 14.2046 137.529 14.4655 137.162 14.7554C136.814 15.0453 136.466 15.3545 136.118 15.683C135.79 15.9923 135.538 16.2822 135.364 16.5527C135.19 16.8233 135.132 17.0455 135.19 17.2195C135.248 17.3934 135.48 17.49 135.886 17.5094Z" fill="#FFFEFA"/>
<path d="M153.562 12.6102C153.601 12.6295 153.659 12.6778 153.736 12.7551C153.833 12.8324 153.93 12.9194 154.026 13.016C154.123 13.1127 154.2 13.219 154.258 13.3349C154.335 13.4509 154.374 13.5572 154.374 13.6538C154.277 14.5428 153.987 15.3738 153.504 16.1469C153.021 16.9199 152.49 17.6833 151.91 18.437C152.219 18.3017 152.596 18.0795 153.041 17.7703C153.504 17.461 153.949 17.1422 154.374 16.8136C154.799 16.4851 155.157 16.1952 155.447 15.9439C155.756 15.6927 155.92 15.5671 155.939 15.5671C155.862 15.6444 155.64 15.8666 155.273 16.2338C154.905 16.601 154.461 17.0165 153.939 17.4804C153.417 17.9249 152.847 18.3694 152.229 18.8139C151.63 19.2584 151.06 19.6062 150.518 19.8575C149.977 20.128 149.513 20.244 149.127 20.2053C148.74 20.186 148.499 19.9251 148.402 19.4226C148.364 19.2874 148.383 19.1617 148.46 19.0458C148.731 18.6593 149.001 18.2631 149.272 17.8572C149.562 17.4514 149.842 17.0552 150.113 16.6687C150.19 16.5527 150.296 16.3981 150.431 16.2048C150.586 15.9923 150.731 15.7893 150.866 15.5961C151.002 15.4028 151.118 15.2289 151.214 15.0743C151.33 14.9003 151.398 14.794 151.417 14.7554C151.031 14.7747 150.615 14.8424 150.171 14.9583C149.726 15.0549 149.233 15.2869 148.692 15.6541C148.538 15.77 148.344 16.0019 148.112 16.3498C147.88 16.6783 147.639 17.0455 147.388 17.4514C147.136 17.8379 146.895 18.2051 146.663 18.553C146.431 18.9008 146.247 19.1328 146.112 19.2487C145.842 19.4613 145.581 19.5869 145.329 19.6256C145.097 19.6642 144.846 19.5773 144.576 19.3647C144.537 19.326 144.537 19.3163 144.576 19.3357C144.614 19.3357 144.614 19.3357 144.576 19.3357C144.402 19.2197 144.247 19.0941 144.112 18.9588C143.996 18.8429 143.89 18.7076 143.793 18.553C143.696 18.3984 143.658 18.2244 143.677 18.0312C143.967 17.6833 144.324 17.1808 144.75 16.5237C145.175 15.8473 145.6 15.1612 146.025 14.4655C146.47 13.7698 146.875 13.1223 147.243 12.5232C147.61 11.9048 147.871 11.4796 148.025 11.2477C148.219 10.9385 148.47 10.8225 148.779 10.8998C149.011 10.9965 149.243 11.0834 149.475 11.1607C149.726 11.238 149.958 11.325 150.171 11.4216C150.325 11.4796 150.412 11.6052 150.431 11.7985C150.47 11.9918 150.431 12.1657 150.316 12.3203C150.103 12.6295 149.9 12.9484 149.707 13.2769C149.514 13.5862 149.33 13.9147 149.156 14.2626C149.369 14.108 149.581 13.9437 149.794 13.7698C150.026 13.5958 150.267 13.4316 150.518 13.2769C150.77 13.1223 151.021 12.9677 151.272 12.8131C151.543 12.6585 151.813 12.5136 152.084 12.3783C152.354 12.2623 152.606 12.2527 152.838 12.3493C153.07 12.4459 153.311 12.5329 153.562 12.6102Z" fill="#FFFEFA"/>
<path d="M164.615 12.5232C164.693 12.5619 164.741 12.6682 164.76 12.8421C164.799 12.9967 164.809 13.1803 164.789 13.3929C164.789 13.6055 164.751 13.8277 164.673 14.0596C164.596 14.2722 164.49 14.4558 164.354 14.6104C163.736 14.7844 163.205 14.9003 162.76 14.9583C162.316 15.0163 161.871 15.0066 161.427 14.9293C161.794 14.4655 162.045 14.108 162.18 13.8567C162.335 13.6055 162.432 13.3446 162.47 13.074C162.006 13.248 161.446 13.5765 160.789 14.0596C160.132 14.5428 159.533 15.0453 158.991 15.5671C158.972 15.5671 158.962 15.5767 158.962 15.5961C158.789 15.77 158.595 15.9729 158.383 16.2048C158.189 16.4174 158.006 16.6397 157.832 16.8716C157.677 17.0842 157.532 17.2871 157.397 17.4804C157.281 17.6543 157.213 17.7896 157.194 17.8862C157.31 17.9828 157.581 18.0215 158.006 18.0022C158.431 17.9635 158.924 17.8959 159.484 17.7993C160.064 17.7026 160.673 17.577 161.311 17.4224C161.968 17.2678 162.586 17.1325 163.166 17.0165C163.746 16.8813 164.248 16.775 164.673 16.6977C165.118 16.6204 165.417 16.5914 165.572 16.6107C165.572 16.63 165.562 16.6397 165.543 16.6397C165.466 16.6783 165.253 16.7653 164.905 16.9006C164.557 17.0359 164.142 17.2001 163.659 17.3934C163.195 17.5673 162.683 17.7606 162.122 17.9732C161.581 18.1664 161.069 18.35 160.586 18.524C160.103 18.6979 159.687 18.8525 159.339 18.9878C158.991 19.1231 158.779 19.2004 158.702 19.2197C158.122 19.4516 157.503 19.4903 156.846 19.3357C156.073 19.1811 155.474 18.7945 155.049 18.1761C155.01 18.0988 154.972 18.0118 154.933 17.9152C154.894 17.8186 154.856 17.7219 154.817 17.6253C154.778 17.1808 154.943 16.6977 155.31 16.1759C155.677 15.6347 156.112 15.1129 156.614 14.6104C157.117 14.108 157.619 13.6538 158.122 13.248C158.644 12.8421 159.02 12.5426 159.252 12.3493C159.388 12.2527 159.6 12.1367 159.89 12.0014C160.18 11.8468 160.499 11.7115 160.847 11.5956C161.214 11.4796 161.6 11.383 162.006 11.3057C162.432 11.2284 162.837 11.209 163.224 11.2477C163.514 11.2864 163.688 11.4216 163.746 11.6535C163.823 11.8661 163.92 12.0787 164.036 12.2913C164.132 12.4459 164.325 12.5232 164.615 12.5232Z" fill="#FFFEFA"/>
<path d="M167.088 17.8572C167.204 17.9539 167.474 17.9925 167.899 17.9732C168.325 17.9345 168.817 17.8669 169.378 17.7703C169.958 17.6543 170.567 17.5287 171.204 17.3934C171.861 17.2388 172.48 17.1035 173.06 16.9876C173.639 16.8523 174.142 16.746 174.567 16.6687C175.012 16.5914 175.311 16.5624 175.466 16.5817L175.437 16.6107C175.359 16.6493 175.147 16.7363 174.799 16.8716C174.451 17.0069 174.036 17.1712 173.552 17.3644C173.089 17.5383 172.576 17.7316 172.016 17.9442C171.475 18.1375 170.963 18.3211 170.48 18.495C169.996 18.6689 169.581 18.8235 169.233 18.9588C168.885 19.0941 168.673 19.1714 168.595 19.1907C168.305 19.3067 168.006 19.3743 167.697 19.3937C167.387 19.3937 167.068 19.3647 166.74 19.3067C165.967 19.1328 165.368 18.7462 164.943 18.1471C164.904 18.0698 164.865 17.9828 164.827 17.8862C164.788 17.7896 164.749 17.693 164.711 17.5963C164.672 17.1518 164.836 16.659 165.204 16.1179C165.571 15.5767 166.006 15.0646 166.508 14.5815C167.01 14.079 167.513 13.6248 168.015 13.219C168.537 12.8131 168.914 12.5136 169.146 12.3203C169.281 12.2043 169.494 12.0787 169.784 11.9434C170.074 11.7888 170.393 11.6535 170.74 11.5376C171.108 11.4216 171.494 11.3347 171.9 11.2767C172.325 11.1994 172.731 11.1801 173.118 11.2187C173.407 11.2574 173.581 11.3926 173.639 11.6246C173.717 11.8371 173.813 12.0497 173.929 12.2623C174.007 12.3783 174.2 12.4556 174.509 12.4942C174.664 12.5909 174.799 12.7068 174.915 12.8421C175.031 12.9774 175.089 13.161 175.089 13.3929C175.012 13.4122 174.954 13.4895 174.915 13.6248C174.799 13.7987 174.702 13.9437 174.625 14.0596C174.567 14.1756 174.509 14.2819 174.451 14.3785C174.393 14.4558 174.316 14.5428 174.219 14.6394C174.142 14.7361 174.036 14.8617 173.9 15.0163C173.668 15.2289 173.272 15.3738 172.712 15.4511C172.171 15.5091 171.62 15.5478 171.059 15.5671C170.402 15.5864 169.677 15.5767 168.885 15.5381H168.856C168.682 15.712 168.489 15.915 168.276 16.1469C168.083 16.3595 167.899 16.5817 167.726 16.8136C167.571 17.0262 167.426 17.2291 167.291 17.4224C167.175 17.6157 167.107 17.7606 167.088 17.8572ZM170.653 15.0743C171.736 14.1659 172.306 13.4895 172.364 13.045C171.939 13.1996 171.436 13.4799 170.856 13.8857C170.296 14.2722 169.764 14.6974 169.262 15.1612C169.436 15.1999 169.639 15.2096 169.871 15.1902C170.122 15.1516 170.383 15.1129 170.653 15.0743Z" fill="#FFFEFA"/>
<defs>
<linearGradient id="paint0_linear_15_290" x1="9.72807" y1="28.6667" x2="174.272" y2="28.6667" gradientUnits="userSpaceOnUse">
<stop stop-color="#FFFF57"/>
<stop offset="0.223958" stop-color="#57FF57"/>
<stop offset="0.432292" stop-color="#57FFFF"/>
<stop offset="0.635417" stop-color="#5757FF"/>
<stop offset="0.807292" stop-color="#FF57FF"/>
<stop offset="1" stop-color="#FF5757"/>
</linearGradient>
</defs>
</svg>
